<svg width="119" height="18" viewBox="0 0 119 18" fill="none" xmlns="http://www.w3.org/2000/svg">
<path d="M12.552 0.336001C12.488 0.992 12.44 1.632 12.408 2.256C12.392 2.864 12.384 3.328 12.384 3.648C12.384 3.952 12.392 4.248 12.408 4.536C12.424 4.808 12.44 5.04 12.456 5.232H11.904C11.776 4.128 11.568 3.264 11.28 2.64C10.992 2 10.6 1.552 10.104 1.296C9.62399 1.024 8.99199 0.888 8.20799 0.888H6.88799C6.40799 0.888 6.03999 0.928 5.78399 1.008C5.52799 1.088 5.35199 1.256 5.25599 1.512C5.17599 1.768 5.13599 2.16 5.13599 2.688V14.976C5.13599 15.488 5.17599 15.88 5.25599 16.152C5.35199 16.408 5.52799 16.576 5.78399 16.656C6.03999 16.736 6.40799 16.776 6.88799 16.776H8.25599C9.07199 16.776 9.75199 16.624 10.296 16.32C10.856 16.016 11.304 15.52 11.64 14.832C11.976 14.128 12.224 13.168 12.384 11.952H12.936C12.888 12.448 12.864 13.088 12.864 13.872C12.864 14.208 12.872 14.696 12.888 15.336C12.92 15.976 12.968 16.64 13.032 17.328C12.216 17.296 11.296 17.28 10.272 17.28C9.24799 17.264 8.33599 17.256 7.53599 17.256C7.16799 17.256 6.67999 17.256 6.07199 17.256C5.47999 17.256 4.83199 17.264 4.12799 17.28C3.43999 17.28 2.73599 17.288 2.01599 17.304C1.31199 17.304 0.639986 17.312 -1.36197e-05 17.328V16.848C0.527986 16.816 0.919986 16.752 1.17599 16.656C1.44799 16.56 1.62399 16.368 1.70399 16.08C1.79999 15.792 1.84799 15.36 1.84799 14.784V2.88C1.84799 2.288 1.79999 1.856 1.70399 1.584C1.62399 1.296 1.44799 1.104 1.17599 1.008C0.919986 0.896 0.527986 0.832 -1.36197e-05 0.816V0.336001C0.639986 0.352001 1.31199 0.368001 2.01599 0.384C2.73599 0.384 3.43999 0.392 4.12799 0.408C4.83199 0.408 5.47999 0.408 6.07199 0.408C6.67999 0.408 7.16799 0.408 7.53599 0.408C8.27199 0.408 9.10399 0.408 10.032 0.408C10.976 0.392 11.816 0.368001 12.552 0.336001ZM8.68799 8.544C8.68799 8.544 8.68799 8.624 8.68799 8.784C8.68799 8.944 8.68799 9.024 8.68799 9.024H4.41599C4.41599 9.024 4.41599 8.944 4.41599 8.784C4.41599 8.624 4.41599 8.544 4.41599 8.544H8.68799ZM9.38399 5.376C9.31999 6.288 9.28799 6.984 9.28799 7.464C9.30399 7.944 9.31199 8.384 9.31199 8.784C9.31199 9.184 9.31999 9.624 9.33599 10.104C9.35199 10.584 9.39199 11.28 9.45599 12.192H8.90399C8.82399 11.648 8.69599 11.136 8.51999 10.656C8.35999 10.16 8.09599 9.768 7.72799 9.48C7.37599 9.176 6.86399 9.024 6.19199 9.024V8.544C6.68799 8.544 7.08799 8.44 7.39199 8.232C7.71199 8.024 7.96799 7.76 8.15999 7.44C8.35199 7.104 8.49599 6.76 8.59199 6.408C8.70399 6.04 8.78399 5.696 8.83199 5.376H9.38399ZM23.112 0.0480003C24.008 0.0480003 24.696 0.144001 25.176 0.336001C25.656 0.528 26.072 0.736 26.424 0.96C26.616 1.072 26.768 1.16 26.88 1.224C27.008 1.272 27.128 1.296 27.24 1.296C27.4 1.296 27.512 1.208 27.576 1.032C27.656 0.856 27.72 0.592 27.768 0.240001H28.32C28.304 0.544001 28.28 0.896 28.248 1.296C28.232 1.696 28.216 2.232 28.2 2.904C28.2 3.56 28.2 4.432 28.2 5.52H27.648C27.6 4.704 27.416 3.92 27.096 3.168C26.792 2.416 26.352 1.8 25.776 1.32C25.216 0.824 24.496 0.576001 23.616 0.576001C22.832 0.576001 22.176 0.808001 21.648 1.272C21.136 1.736 20.88 2.36 20.88 3.144C20.88 3.816 21.048 4.384 21.384 4.848C21.72 5.296 22.192 5.736 22.8 6.168C23.424 6.584 24.16 7.064 25.008 7.608C25.792 8.12 26.496 8.632 27.12 9.144C27.744 9.64 28.232 10.192 28.584 10.8C28.952 11.408 29.136 12.152 29.136 13.032C29.136 14.072 28.88 14.936 28.368 15.624C27.856 16.312 27.168 16.824 26.304 17.16C25.44 17.496 24.496 17.664 23.472 17.664C22.528 17.664 21.776 17.568 21.216 17.376C20.672 17.184 20.2 16.984 19.8 16.776C19.448 16.552 19.176 16.44 18.984 16.44C18.824 16.44 18.704 16.528 18.624 16.704C18.56 16.88 18.504 17.144 18.456 17.496H17.904C17.936 17.128 17.952 16.696 17.952 16.2C17.968 15.704 17.976 15.064 17.976 14.28C17.992 13.48 18 12.472 18 11.256H18.552C18.616 12.28 18.792 13.24 19.08 14.136C19.384 15.016 19.84 15.728 20.448 16.272C21.072 16.816 21.896 17.088 22.92 17.088C23.48 17.088 23.984 16.992 24.432 16.8C24.896 16.592 25.264 16.28 25.536 15.864C25.808 15.432 25.944 14.888 25.944 14.232C25.944 13.576 25.792 13 25.488 12.504C25.184 12.008 24.76 11.544 24.216 11.112C23.672 10.68 23.032 10.24 22.296 9.792C21.544 9.312 20.84 8.824 20.184 8.328C19.528 7.832 19 7.272 18.6 6.648C18.216 6.008 18.024 5.24 18.024 4.344C18.024 3.352 18.264 2.544 18.744 1.92C19.224 1.28 19.848 0.808 20.616 0.504C21.4 0.2 22.232 0.0480003 23.112 0.0480003ZM39.176 0.0480003C40.072 0.0480003 40.76 0.144001 41.24 0.336001C41.72 0.528 42.136 0.736 42.488 0.96C42.68 1.072 42.832 1.16 42.944 1.224C43.072 1.272 43.192 1.296 43.304 1.296C43.464 1.296 43.576 1.208 43.64 1.032C43.72 0.856 43.784 0.592 43.832 0.240001H44.384C44.368 0.544001 44.344 0.896 44.312 1.296C44.296 1.696 44.28 2.232 44.264 2.904C44.264 3.56 44.264 4.432 44.264 5.52H43.712C43.664 4.704 43.48 3.92 43.16 3.168C42.856 2.416 42.416 1.8 41.84 1.32C41.28 0.824 40.56 0.576001 39.68 0.576001C38.896 0.576001 38.24 0.808001 37.712 1.272C37.2 1.736 36.944 2.36 36.944 3.144C36.944 3.816 37.112 4.384 37.448 4.848C37.784 5.296 38.256 5.736 38.864 6.168C39.488 6.584 40.224 7.064 41.072 7.608C41.856 8.12 42.56 8.632 43.184 9.144C43.808 9.64 44.296 10.192 44.648 10.8C45.016 11.408 45.2 12.152 45.2 13.032C45.2 14.072 44.944 14.936 44.432 15.624C43.92 16.312 43.232 16.824 42.368 17.16C41.504 17.496 40.56 17.664 39.536 17.664C38.592 17.664 37.84 17.568 37.28 17.376C36.736 17.184 36.264 16.984 35.864 16.776C35.512 16.552 35.24 16.44 35.048 16.44C34.888 16.44 34.768 16.528 34.688 16.704C34.624 16.88 34.568 17.144 34.52 17.496H33.968C34 17.128 34.016 16.696 34.016 16.2C34.032 15.704 34.04 15.064 34.04 14.28C34.056 13.48 34.064 12.472 34.064 11.256H34.616C34.68 12.28 34.856 13.24 35.144 14.136C35.448 15.016 35.904 15.728 36.512 16.272C37.136 16.816 37.96 17.088 38.984 17.088C39.544 17.088 40.048 16.992 40.496 16.8C40.96 16.592 41.328 16.28 41.6 15.864C41.872 15.432 42.008 14.888 42.008 14.232C42.008 13.576 41.856 13 41.552 12.504C41.248 12.008 40.824 11.544 40.28 11.112C39.736 10.68 39.096 10.24 38.36 9.792C37.608 9.312 36.904 8.824 36.248 8.328C35.592 7.832 35.064 7.272 34.664 6.648C34.28 6.008 34.088 5.24 34.088 4.344C34.088 3.352 34.328 2.544 34.808 1.92C35.288 1.28 35.912 0.808 36.68 0.504C37.464 0.2 38.296 0.0480003 39.176 0.0480003ZM62.0801 0.336001C62.0161 0.992 61.9681 1.632 61.9361 2.256C61.9201 2.864 61.9121 3.328 61.9121 3.648C61.9121 3.952 61.9201 4.248 61.9361 4.536C61.9521 4.808 61.9681 5.04 61.9841 5.232H61.4321C61.3041 4.128 61.0961 3.264 60.8081 2.64C60.5201 2 60.1281 1.552 59.6321 1.296C59.1521 1.024 58.5201 0.888 57.7361 0.888H56.4161C55.9361 0.888 55.5681 0.928 55.3121 1.008C55.0561 1.088 54.8801 1.256 54.7841 1.512C54.7041 1.768 54.6641 2.16 54.6641 2.688V14.976C54.6641 15.488 54.7041 15.88 54.7841 16.152C54.8801 16.408 55.0561 16.576 55.3121 16.656C55.5681 16.736 55.9361 16.776 56.4161 16.776H57.7841C58.6001 16.776 59.2801 16.624 59.8241 16.32C60.3841 16.016 60.8321 15.52 61.1681 14.832C61.5041 14.128 61.7521 13.168 61.9121 11.952H62.4641C62.4161 12.448 62.3921 13.088 62.3921 13.872C62.3921 14.208 62.4001 14.696 62.4161 15.336C62.4481 15.976 62.4961 16.64 62.5601 17.328C61.7441 17.296 60.8241 17.28 59.8001 17.28C58.7761 17.264 57.8641 17.256 57.0641 17.256C56.6961 17.256 56.2081 17.256 55.6001 17.256C55.0081 17.256 54.3601 17.264 53.6561 17.28C52.9681 17.28 52.2641 17.288 51.5441 17.304C50.8401 17.304 50.1681 17.312 49.5281 17.328V16.848C50.0561 16.816 50.4481 16.752 50.7041 16.656C50.9761 16.56 51.1521 16.368 51.2321 16.08C51.3281 15.792 51.3761 15.36 51.3761 14.784V2.88C51.3761 2.288 51.3281 1.856 51.2321 1.584C51.1521 1.296 50.9761 1.104 50.7041 1.008C50.4481 0.896 50.0561 0.832 49.5281 0.816V0.336001C50.1681 0.352001 50.8401 0.368001 51.5441 0.384C52.2641 0.384 52.9681 0.392 53.6561 0.408C54.3601 0.408 55.0081 0.408 55.6001 0.408C56.2081 0.408 56.6961 0.408 57.0641 0.408C57.8001 0.408 58.6321 0.408 59.5601 0.408C60.5041 0.392 61.3441 0.368001 62.0801 0.336001ZM58.2161 8.544C58.2161 8.544 58.2161 8.624 58.2161 8.784C58.2161 8.944 58.2161 9.024 58.2161 9.024H53.9441C53.9441 9.024 53.9441 8.944 53.9441 8.784C53.9441 8.624 53.9441 8.544 53.9441 8.544H58.2161ZM58.9121 5.376C58.8481 6.288 58.8161 6.984 58.8161 7.464C58.8321 7.944 58.8401 8.384 58.8401 8.784C58.8401 9.184 58.8481 9.624 58.8641 10.104C58.8801 10.584 58.9201 11.28 58.9841 12.192H58.4321C58.3521 11.648 58.2241 11.136 58.0481 10.656C57.8881 10.16 57.6241 9.768 57.2561 9.48C56.9041 9.176 56.3921 9.024 55.7201 9.024V8.544C56.2161 8.544 56.6161 8.44 56.9201 8.232C57.2401 8.024 57.4961 7.76 57.6881 7.44C57.8801 7.104 58.0241 6.76 58.1201 6.408C58.2321 6.04 58.3121 5.696 58.3601 5.376H58.9121ZM82.5041 0.336001V0.816C81.9921 0.864 81.6001 0.984 81.3281 1.176C81.0561 1.352 80.8721 1.64 80.7761 2.04C80.6961 2.424 80.6561 2.976 80.6561 3.696V17.4C80.5121 17.384 80.3521 17.376 80.1761 17.376C80.0161 17.376 79.8401 17.384 79.6481 17.4L69.3521 3.408V13.776C69.3521 14.544 69.4001 15.144 69.4961 15.576C69.5921 15.992 69.8001 16.296 70.1201 16.488C70.4561 16.664 70.9601 16.784 71.6321 16.848V17.328C71.3281 17.296 70.9361 17.28 70.4561 17.28C69.9761 17.264 69.5201 17.256 69.0881 17.256C68.7041 17.256 68.3121 17.264 67.9121 17.28C67.5281 17.28 67.2081 17.296 66.9521 17.328V16.848C67.4801 16.784 67.8721 16.664 68.1281 16.488C68.4001 16.312 68.5761 16.024 68.6561 15.624C68.7521 15.224 68.8001 14.672 68.8001 13.968V2.88C68.8001 2.288 68.7521 1.856 68.6561 1.584C68.5761 1.296 68.4001 1.104 68.1281 1.008C67.8721 0.896 67.4801 0.832 66.9521 0.816V0.336001C67.2081 0.352001 67.5281 0.368001 67.9121 0.384C68.3121 0.4 68.7041 0.408 69.0881 0.408C69.4561 0.408 69.8161 0.4 70.1681 0.384C70.5201 0.368001 70.8321 0.352001 71.1041 0.336001L80.1041 12.312V3.888C80.1041 3.104 80.0561 2.504 79.9601 2.088C79.8641 1.672 79.6561 1.368 79.3361 1.176C79.0161 0.984 78.5121 0.864 77.8241 0.816V0.336001C78.1281 0.352001 78.5201 0.368001 79.0001 0.384C79.4961 0.4 79.9521 0.408 80.3681 0.408C80.7681 0.408 81.1601 0.4 81.5441 0.384C81.9441 0.368001 82.2641 0.352001 82.5041 0.336001ZM94.7917 -4.76837e-07C95.8477 -4.76837e-07 96.7117 0.16 97.3837 0.48C98.0717 0.784 98.6797 1.144 99.2077 1.56C99.5277 1.8 99.7677 1.832 99.9277 1.656C100.104 1.464 100.224 1.024 100.288 0.336001H100.84C100.808 0.944001 100.784 1.688 100.768 2.568C100.752 3.448 100.744 4.608 100.744 6.048H100.192C100.096 5.328 99.9917 4.728 99.8797 4.248C99.7677 3.752 99.6077 3.328 99.3997 2.976C99.2077 2.624 98.9357 2.288 98.5837 1.968C98.1517 1.488 97.6317 1.136 97.0237 0.912001C96.4317 0.672 95.8077 0.552 95.1517 0.552C94.3197 0.552 93.5917 0.776 92.9677 1.224C92.3597 1.656 91.8477 2.256 91.4317 3.024C91.0317 3.776 90.7277 4.656 90.5197 5.664C90.3277 6.672 90.2317 7.744 90.2317 8.88C90.2317 10.048 90.3357 11.136 90.5437 12.144C90.7677 13.136 91.0877 14.008 91.5037 14.76C91.9357 15.496 92.4637 16.072 93.0877 16.488C93.7277 16.904 94.4637 17.112 95.2957 17.112C95.8877 17.112 96.4957 17 97.1197 16.776C97.7437 16.552 98.2557 16.208 98.6557 15.744C99.1837 15.264 99.5437 14.696 99.7357 14.04C99.9277 13.368 100.08 12.48 100.192 11.376H100.744C100.744 12.88 100.752 14.096 100.768 15.024C100.784 15.936 100.808 16.704 100.84 17.328H100.288C100.224 16.64 100.112 16.208 99.9517 16.032C99.8077 15.856 99.5597 15.88 99.2077 16.104C98.6157 16.52 97.9837 16.888 97.3117 17.208C96.6557 17.512 95.8077 17.664 94.7677 17.664C93.1357 17.664 91.7037 17.32 90.4717 16.632C89.2397 15.944 88.2797 14.952 87.5917 13.656C86.9197 12.36 86.5837 10.8 86.5837 8.976C86.5837 7.184 86.9357 5.616 87.6397 4.272C88.3437 2.928 89.3117 1.88 90.5437 1.128C91.7757 0.376 93.1917 -4.76837e-07 94.7917 -4.76837e-07ZM118.1 0.336001C118.036 0.992 117.988 1.632 117.956 2.256C117.94 2.864 117.932 3.328 117.932 3.648C117.932 3.952 117.94 4.248 117.956 4.536C117.972 4.808 117.988 5.04 118.004 5.232H117.452C117.324 4.128 117.116 3.264 116.828 2.64C116.54 2 116.148 1.552 115.652 1.296C115.172 1.024 114.54 0.888 113.756 0.888H112.436C111.956 0.888 111.588 0.928 111.332 1.008C111.076 1.088 110.9 1.256 110.804 1.512C110.724 1.768 110.684 2.16 110.684 2.688V14.976C110.684 15.488 110.724 15.88 110.804 16.152C110.9 16.408 111.076 16.576 111.332 16.656C111.588 16.736 111.956 16.776 112.436 16.776H113.804C114.62 16.776 115.3 16.624 115.844 16.32C116.404 16.016 116.852 15.52 117.188 14.832C117.524 14.128 117.772 13.168 117.932 11.952H118.484C118.436 12.448 118.412 13.088 118.412 13.872C118.412 14.208 118.42 14.696 118.436 15.336C118.468 15.976 118.516 16.64 118.58 17.328C117.764 17.296 116.844 17.28 115.82 17.28C114.796 17.264 113.884 17.256 113.084 17.256C112.716 17.256 112.228 17.256 111.62 17.256C111.028 17.256 110.38 17.264 109.676 17.28C108.988 17.28 108.284 17.288 107.564 17.304C106.86 17.304 106.188 17.312 105.548 17.328V16.848C106.076 16.816 106.468 16.752 106.724 16.656C106.996 16.56 107.172 16.368 107.252 16.08C107.348 15.792 107.396 15.36 107.396 14.784V2.88C107.396 2.288 107.348 1.856 107.252 1.584C107.172 1.296 106.996 1.104 106.724 1.008C106.468 0.896 106.076 0.832 105.548 0.816V0.336001C106.188 0.352001 106.86 0.368001 107.564 0.384C108.284 0.384 108.988 0.392 109.676 0.408C110.38 0.408 111.028 0.408 111.62 0.408C112.228 0.408 112.716 0.408 113.084 0.408C113.82 0.408 114.652 0.408 115.58 0.408C116.524 0.392 117.364 0.368001 118.1 0.336001ZM114.236 8.544C114.236 8.544 114.236 8.624 114.236 8.784C114.236 8.944 114.236 9.024 114.236 9.024H109.964C109.964 9.024 109.964 8.944 109.964 8.784C109.964 8.624 109.964 8.544 109.964 8.544H114.236ZM114.932 5.376C114.868 6.288 114.836 6.984 114.836 7.464C114.852 7.944 114.86 8.384 114.86 8.784C114.86 9.184 114.868 9.624 114.884 10.104C114.9 10.584 114.94 11.28 115.004 12.192H114.452C114.372 11.648 114.244 11.136 114.068 10.656C113.908 10.16 113.644 9.768 113.276 9.48C112.924 9.176 112.412 9.024 111.74 9.024V8.544C112.236 8.544 112.636 8.44 112.94 8.232C113.26 8.024 113.516 7.76 113.708 7.44C113.9 7.104 114.044 6.76 114.14 6.408C114.252 6.04 114.332 5.696 114.38 5.376H114.932Z" fill="#E2E2E2"/>
</svg>
