<?xml version="1.0" standalone="no"?>
<!DOCTYPE svg PUBLIC "-//W3C//DTD SVG 1.1//EN" "http://www.w3.org/Graphics/SVG/1.1/DTD/svg11.dtd" >
<svg xmlns="http://www.w3.org/2000/svg" xmlns:xlink="http://www.w3.org/1999/xlink" version="1.1">
<metadata>
Created by FontForge 20201107 at Wed Feb 14 14:10:40 2024
 By www-data
Copyright 2022 The Noto Project Authors (https://github.com/notofonts/georgian)
</metadata>
<defs>
<font id="NotoSansGeorgianSemiCondensed-Regular" horiz-adv-x="559" >
  <font-face 
    font-family="Noto Sans Georgian SemiCondensed"
    font-weight="400"
    font-stretch="semi-condensed"
    units-per-em="1000"
    panose-1="2 11 5 2 4 5 4 2 2 4"
    ascent="800"
    descent="-200"
    x-height="536"
    cap-height="714"
    bbox="-460 -250 969 992"
    underline-thickness="50"
    underline-position="-125"
    unicode-range="U+000D-2D2D"
  />
<missing-glyph horiz-adv-x="600" 
d="M94 0v714h411v-714h-411zM145 51h309v612h-309v-612z" />
    <glyph glyph-name=".notdef" horiz-adv-x="600" 
d="M94 0v714h411v-714h-411zM145 51h309v612h-309v-612z" />
    <glyph glyph-name=".null" horiz-adv-x="0" 
 />
    <glyph glyph-name="nonmarkingreturn" horiz-adv-x="333" 
 />
    <glyph glyph-name="NULL" horiz-adv-x="0" 
 />
    <glyph glyph-name="NULL" horiz-adv-x="0" 
 />
    <glyph glyph-name="CR" unicode="&#xd;" horiz-adv-x="232" 
 />
    <glyph glyph-name="space" unicode=" " horiz-adv-x="232" 
 />
    <glyph glyph-name="exclam" unicode="!" horiz-adv-x="257" 
d="M158 201h-59l-23 513h104zM69 54q0 36 16.5 51t42.5 15q25 0 42 -15t17 -51q0 -35 -17.5 -50.5t-41.5 -15.5q-26 0 -42.5 16t-16.5 50z" />
    <glyph glyph-name="quotedbl" unicode="&#x22;" horiz-adv-x="397" 
d="M157 714l-18 -258h-58l-19 258h95zM335 714l-18 -258h-57l-19 258h94z" />
    <glyph glyph-name="numbersign" unicode="#" horiz-adv-x="578" 
d="M433 441l-27 -163h119v-66h-130l-36 -212h-68l36 212h-127l-34 -212h-67l34 212h-110v66h121l28 163h-117v65h127l34 208h69l-34 -208h127l35 208h66l-35 -208h111v-65h-122zM212 278h126l28 163h-127z" />
    <glyph glyph-name="dollar" unicode="$" horiz-adv-x="520" 
d="M230 50q-51 1 -98 9.5t-78 23.5v83q32 -17 80 -29t96 -13v207q-62 19 -100.5 42.5t-57 56.5t-18.5 79q0 48 22 83t61.5 56t92.5 24v87h58v-85q48 -2 88 -11.5t74 -24.5l-25 -71q-30 13 -64.5 21.5t-72.5 11.5v-206q61 -20 101 -42t60.5 -53t20.5 -78q0 -68 -47.5 -112
t-134.5 -55v-112h-58v108zM288 128q52 7 76.5 30t24.5 57q0 25 -9.5 41.5t-31 29.5t-60.5 24v-182zM230 598q-32 -2 -53 -13.5t-31.5 -29.5t-10.5 -41q0 -26 8.5 -44t29.5 -30.5t57 -23.5v182z" />
    <glyph glyph-name="percent" unicode="%" horiz-adv-x="770" 
d="M181 724q67 0 102.5 -58.5t35.5 -164.5t-34.5 -165.5t-103.5 -59.5q-66 0 -100.5 59.5t-34.5 165.5q0 107 33 165t102 58zM180 663q-33 0 -48 -40.5t-15 -121.5t15 -122t49 -41t50 40.5t16 122.5q0 81 -16.5 121.5t-50.5 40.5zM592 714l-342 -714h-73l342 714h73z
M587 438q66 0 101.5 -58t35.5 -165t-34 -166t-103 -59q-66 0 -100.5 59.5t-34.5 165.5q0 108 33 165.5t102 57.5zM586 376q-33 0 -48.5 -40t-15.5 -121t15.5 -121.5t49.5 -40.5t50 40.5t16 121.5q0 80 -16.5 120.5t-50.5 40.5z" />
    <glyph glyph-name="ampersand" unicode="&#x26;" horiz-adv-x="639" 
d="M268 725q72 0 113 -40.5t41 -112.5q0 -62 -33.5 -107t-89.5 -84l159 -180q22 29 35 67t20 83h87q-11 -59 -32.5 -114.5t-54.5 -97.5l125 -139h-111l-71 80q-28 -27 -59.5 -47.5t-69 -31.5t-85.5 -11q-63 0 -107 23.5t-67.5 67t-23.5 103.5q0 48 16 84.5t47.5 66.5
t74.5 58q-20 28 -37.5 55t-28 57.5t-10.5 66.5q0 72 43.5 112.5t118.5 40.5zM230 338q-32 -21 -53.5 -43t-32.5 -47.5t-11 -60.5q0 -55 31.5 -87.5t83.5 -32.5t90.5 20t66.5 52zM265 655q-33 0 -54.5 -21.5t-21.5 -61.5q0 -35 16 -69t46 -68q48 31 68 64t20 74
q0 38 -19.5 60t-54.5 22z" />
    <glyph glyph-name="quotesingle" unicode="'" horiz-adv-x="219" 
d="M157 714l-18 -258h-58l-19 258h95z" />
    <glyph glyph-name="parenleft" unicode="(" horiz-adv-x="297" 
d="M43 275q0 83 16 161.5t48.5 149.5t80.5 130h79q-68 -95 -102.5 -208t-34.5 -232q0 -77 15.5 -153.5t46 -147t74.5 -133.5h-78q-48 58 -80.5 127.5t-48.5 147t-16 158.5z" />
    <glyph glyph-name="parenright" unicode=")" horiz-adv-x="297" 
d="M253 275q0 -81 -15.5 -158.5t-48 -147t-81.5 -127.5h-77q44 63 74.5 134t46 147t15.5 153q0 80 -15.5 156.5t-46 148.5t-75.5 135h78q49 -59 81.5 -130t48 -150t15.5 -161z" />
    <glyph glyph-name="asterisk" unicode="*" horiz-adv-x="495" 
d="M292 760l-18 -169l166 47l14 -86l-160 -13l106 -141l-79 -45l-76 156l-71 -156l-81 45l104 141l-158 12l15 87l164 -47l-19 169h93z" />
    <glyph glyph-name="plus" unicode="+" horiz-adv-x="520" 
d="M295 388h180v-70h-180v-204h-71v204h-181v70h181v204h71v-204z" />
    <glyph glyph-name="comma" unicode="," horiz-adv-x="253" 
d="M185 104q-9 -37 -22 -78t-28.5 -80.5t-31.5 -75.5h-64q11 39 20 82.5t16.5 85.5t11.5 77h91z" />
    <glyph glyph-name="hyphen" unicode="-" horiz-adv-x="304" 
d="M35 229v79h234v-79h-234z" />
    <glyph glyph-name="period" unicode="." horiz-adv-x="253" 
d="M67 54q0 36 16.5 51t42.5 15q25 0 42 -15t17 -51q0 -35 -17 -50.5t-42 -15.5t-42 16t-17 50z" />
    <glyph glyph-name="slash" unicode="/" horiz-adv-x="372" 
d="M361 715l-265 -716h-83l265 716h83z" />
    <glyph glyph-name="zero" unicode="0" horiz-adv-x="520" 
d="M473 358q0 -87 -12 -155t-37.5 -115.5t-66.5 -72.5t-98 -25q-70 0 -117.5 39.5t-71.5 121t-24 207.5q0 119 22 200.5t69 124t122 42.5q72 0 119.5 -42.5t71 -124.5t23.5 -200zM133 358q0 -98 12.5 -163t40 -97.5t73.5 -32.5t73.5 32t40.5 97.5t13 163.5q0 97 -13 161.5
t-40.5 97t-73.5 32.5t-73.5 -32t-40 -96.5t-12.5 -162.5z" />
    <glyph glyph-name="one" unicode="1" horiz-adv-x="520" 
d="M333 0h-85v492q0 27 0.5 47.5t1.5 40t2 39.5q-13 -13 -25 -24t-31 -28l-71 -62l-46 56l181 153h73v-714z" />
    <glyph glyph-name="two" unicode="2" horiz-adv-x="520" 
d="M469 0h-426v69l170 196q50 56 82 99t47.5 82.5t15.5 87.5q0 55 -31 85t-83 30q-44 0 -78.5 -15.5t-70.5 -45.5l-46 58q28 24 58 41.5t65 27t74 9.5q63 0 107 -23t68.5 -64.5t24.5 -98.5q0 -56 -19.5 -104.5t-55 -95.5t-85.5 -102l-137 -154v-4h320v-78z" />
    <glyph glyph-name="three" unicode="3" horiz-adv-x="520" 
d="M448 548q0 -46 -16.5 -80.5t-47.5 -58t-73 -33.5v-4q77 -11 116 -56t39 -116q0 -61 -27 -109t-81.5 -74.5t-137.5 -26.5q-51 0 -94.5 8t-83.5 27v83q41 -21 87 -32.5t89 -11.5q83 0 120.5 37.5t37.5 101.5q0 44 -21 72.5t-61 42t-98 13.5h-57v75h59q52 0 88 17t55 47.5
t19 70.5q0 52 -31 80.5t-86 28.5q-33 0 -59.5 -6.5t-50 -19.5t-47.5 -30l-42 59q38 32 88.5 51.5t113.5 19.5q100 0 151 -49t51 -127z" />
    <glyph glyph-name="four" unicode="4" horiz-adv-x="520" 
d="M502 159h-93v-159h-84v159h-305v73l299 487h90v-483h93v-77zM325 478q0 21 0.5 40t1.5 37t1.5 34t0.5 30h-3q-8 -20 -19 -42t-21 -39l-185 -302h224v242z" />
    <glyph glyph-name="five" unicode="5" horiz-adv-x="520" 
d="M252 438q66 0 114.5 -25.5t74.5 -72t26 -111.5q0 -73 -28.5 -127t-83 -83t-132.5 -29q-50 0 -92.5 9t-72.5 27v83q33 -21 77.5 -33t86.5 -12q49 0 84 19t54 54.5t19 84.5q0 70 -38.5 106.5t-117.5 36.5q-27 0 -58 -4.5t-54 -10.5l-40 30l25 334h325v-79h-252l-16 -207
q18 4 44 7t55 3z" />
    <glyph glyph-name="six" unicode="6" horiz-adv-x="520" 
d="M51 304q0 69 8.5 131t28 114.5t53 92t83.5 61t120 21.5q21 0 43.5 -2t38.5 -7v-75q-17 5 -37.5 8t-42.5 3q-57 0 -96.5 -21t-63.5 -59t-35.5 -90t-14.5 -115h5q14 25 34.5 43.5t49 29t64.5 10.5q58 0 99.5 -27t64 -77t22.5 -116q0 -72 -24.5 -125.5t-70 -83.5t-110.5 -30
q-48 0 -88 19.5t-69.5 59t-45.5 98.5t-16 137zM269 64q54 0 87 40.5t33 123.5q0 71 -29.5 110.5t-88.5 39.5q-41 0 -70.5 -19t-45.5 -48t-16 -61t7.5 -64.5t24 -60t41 -44.5t57.5 -17z" />
    <glyph glyph-name="seven" unicode="7" horiz-adv-x="520" 
d="M120 0l265 635h-346v79h436v-66l-261 -648h-94z" />
    <glyph glyph-name="eight" unicode="8" horiz-adv-x="520" 
d="M260 724q87 0 141 -44.5t54 -125.5q0 -41 -16 -73.5t-44.5 -58t-65.5 -46.5q41 -22 74.5 -49t53 -61.5t19.5 -81.5q0 -59 -26.5 -102.5t-74.5 -67.5t-112 -24q-71 0 -120 23t-74 65.5t-25 101.5q0 46 17.5 82t48.5 63t70 48q-34 22 -60.5 49t-41 59.5t-14.5 73.5
q0 53 25.5 91t69.5 58t101 20zM128 179q0 -51 33 -85t99 -34q64 0 97.5 34.5t33.5 88.5q0 32 -15 57t-43 47t-69 40l-17 9q-40 -20 -66.5 -42.5t-39.5 -50.5t-13 -64zM258 653q-48 0 -79 -26.5t-31 -76.5q0 -34 14.5 -59t40.5 -43.5t59 -35.5q33 17 57 36t37.5 44t13.5 58
q0 50 -30 76.5t-82 26.5z" />
    <glyph glyph-name="nine" unicode="9" horiz-adv-x="520" 
d="M469 412q0 -85 -13.5 -161.5t-46.5 -135t-90 -92t-144 -33.5q-19 0 -44 2.5t-41 7.5v75q17 -6 39 -9t44 -3q60 0 99.5 23t63.5 62t34.5 91t12.5 108h-5q-13 -24 -34 -42.5t-49 -29t-66 -10.5q-57 0 -98.5 27.5t-63.5 76.5t-22 116q0 72 25 125.5t71.5 83.5t111.5 30
q47 0 87 -19.5t69 -59t44.5 -97.5t15.5 -136zM252 650q-55 0 -88 -40.5t-33 -123.5q0 -71 29 -110.5t89 -39.5q42 0 71.5 19.5t45.5 49.5t16 62q0 29 -7.5 61t-23 60t-40.5 45t-59 17z" />
    <glyph glyph-name="colon" unicode=":" horiz-adv-x="253" 
d="M68 54q0 36 16 51t42 15t43 -15t17 -51q0 -35 -17.5 -50.5t-42.5 -15.5t-41.5 16t-16.5 50zM68 480q0 36 16 51t42 15t43 -15t17 -51q0 -35 -17.5 -51t-42.5 -16t-41.5 16t-16.5 51z" />
    <glyph glyph-name="semicolon" unicode=";" horiz-adv-x="253" 
d="M180 104q-9 -37 -22.5 -78t-29 -80.5t-31.5 -75.5h-64q7 29 14.5 61t14 64.5t11.5 63t9 56.5h91zM66 480q0 36 16.5 51t42.5 15t42.5 -15t16.5 -51q0 -35 -17 -51t-42 -16q-26 0 -42.5 16t-16.5 51z" />
    <glyph glyph-name="less" unicode="&#x3c;" horiz-adv-x="520" 
d="M477 122l-435 204v50l435 221v-78l-341 -166l341 -153v-78z" />
    <glyph glyph-name="equal" unicode="=" horiz-adv-x="520" 
d="M46 419v70h425v-70h-425zM46 215v70h425v-70h-425z" />
    <glyph glyph-name="greater" unicode="&#x3e;" horiz-adv-x="520" 
d="M43 200l341 152l-341 167v78l434 -221v-50l-434 -204v78z" />
    <glyph glyph-name="question" unicode="?" horiz-adv-x="391" 
d="M125 229q0 36 6 63.5t22.5 52.5t43.5 52q34 32 52.5 55t26.5 45.5t8 51.5q0 48 -27 73.5t-77 25.5q-41 0 -73.5 -11.5t-63.5 -28.5l-31 68q37 22 80 35t94 13q87 0 134 -45.5t47 -125.5q0 -44 -12 -75.5t-35.5 -59t-56.5 -60.5q-29 -27 -44 -48t-20.5 -42t-5.5 -49v-18
h-68v28zM103 54q0 36 16 51t43 15q25 0 41.5 -15t16.5 -51q0 -35 -17 -50.5t-41 -15.5q-26 0 -42.5 16t-16.5 50z" />
    <glyph glyph-name="at" unicode="@" horiz-adv-x="808" 
d="M755 359q0 -51 -10 -96t-29.5 -79t-48.5 -54t-68 -20q-43 0 -67.5 26t-29.5 63h-5q-16 -40 -45.5 -64.5t-74.5 -24.5q-67 0 -103.5 50t-36.5 135q0 69 22.5 120t65 79t100.5 28q37 0 73 -6.5t60 -15.5l-9 -205q-1 -17 -1.5 -27.5t-0.5 -15.5q0 -46 16 -63t40 -17
q26 0 45 23.5t28.5 66t9.5 98.5q0 91 -32.5 157t-90 101t-132.5 35q-77 0 -134.5 -29t-96 -80t-57.5 -117t-19 -140q0 -94 30 -164t89.5 -108.5t148.5 -38.5q52 0 100.5 12.5t86.5 28.5v-66q-39 -17 -85 -27.5t-103 -10.5q-107 0 -182 43.5t-115 126t-40 200.5
q0 95 26 174.5t75.5 137.5t119 90t156.5 31q72 0 131.5 -25.5t102.5 -73t66.5 -113t23.5 -145.5zM311 293q0 -63 21 -92t57 -29q43 0 63 41t24 114l7 127q-11 3 -26.5 5.5t-32.5 2.5q-39 0 -64.5 -23t-37 -61t-11.5 -85z" />
    <glyph glyph-name="A" unicode="A" horiz-adv-x="570" 
d="M478 0l-74 222h-240l-73 -222h-91l240 716h88l241 -716h-91zM311 524q-3 12 -8.5 31.5t-11 40t-8.5 33.5q-3 -18 -7.5 -37t-9.5 -36.5l-9 -31.5l-70 -223h194z" />
    <glyph glyph-name="B" unicode="B" horiz-adv-x="587" 
d="M275 714q120 0 181.5 -41t61.5 -134q0 -44 -14.5 -77t-42 -54t-67.5 -29v-5q43 -8 75.5 -28t50.5 -54.5t18 -87.5q0 -64 -26.5 -110t-76.5 -70t-121 -24h-226v714h187zM287 409q79 0 109.5 30.5t30.5 90.5q0 56 -36 82.5t-113 26.5h-102v-230h111zM176 336v-261h124
q79 0 112 36t33 99q0 39 -15 67t-49 43.5t-89 15.5h-116z" />
    <glyph glyph-name="C" unicode="C" horiz-adv-x="564" 
d="M362 646q-51 0 -91 -20.5t-67 -59.5t-41 -92t-14 -117q0 -89 24.5 -154t72.5 -100t118 -35q40 0 76.5 8t70.5 20v-78q-34 -14 -71.5 -21t-87.5 -7q-96 0 -162 44.5t-99.5 127.5t-33.5 196q0 79 19.5 146t58 116.5t95.5 76.5t132 27q48 0 92.5 -10t80.5 -29l-33 -75
q-29 15 -64 25.5t-76 10.5z" />
    <glyph glyph-name="D" unicode="D" horiz-adv-x="652" 
d="M595 365q0 -120 -38.5 -201.5t-111.5 -122.5t-178 -41h-179v714h195q97 0 167 -40t107.5 -117.5t37.5 -191.5zM503 361q0 94 -27 155.5t-78 91.5t-125 30h-97v-562h82q124 0 184.5 72t60.5 213z" />
    <glyph glyph-name="E" unicode="E" horiz-adv-x="500" 
d="M445 0h-357v714h357v-78h-269v-225h253v-77h-253v-256h269v-78z" />
    <glyph glyph-name="F" unicode="F" horiz-adv-x="468" 
d="M176 0h-88v714h357v-78h-269v-254h253v-78h-253v-304z" />
    <glyph glyph-name="G" unicode="G" horiz-adv-x="661" 
d="M371 377h223v-351q-53 -18 -107.5 -27t-119.5 -9q-102 0 -171 46t-104 129t-35 193t38.5 192t113 128t181.5 46q55 0 104 -11t91 -32l-33 -76q-36 19 -78 30t-86 11q-76 0 -129.5 -34t-81.5 -99t-28 -156q0 -84 23.5 -149.5t75 -103t135.5 -37.5q40 0 69.5 5t54.5 12v215
h-136v78z" />
    <glyph glyph-name="H" unicode="H" horiz-adv-x="665" 
d="M576 0h-88v334h-312v-334h-88v714h88v-302h312v302h88v-714z" />
    <glyph glyph-name="I" unicode="I" horiz-adv-x="318" 
d="M280 0h-242v51l77 18v576l-77 18v51h242v-51l-77 -18v-576l77 -18v-51z" />
    <glyph glyph-name="J" unicode="J" horiz-adv-x="255" 
d="M3 -191q-21 0 -38.5 3t-31.5 9v76q14 -4 30.5 -7t35.5 -3q24 0 43 10.5t30.5 36.5t11.5 71v709h88v-707q0 -70 -20.5 -113.5t-58.5 -64t-90 -20.5z" />
    <glyph glyph-name="K" unicode="K" horiz-adv-x="556" 
d="M557 0h-101l-215 337l-65 -63v-274h-88v714h88v-354q21 26 45.5 57.5t52.5 66.5l173 230h100l-244 -313z" />
    <glyph glyph-name="L" unicode="L" horiz-adv-x="468" 
d="M88 0v714h88v-635h270v-79h-358z" />
    <glyph glyph-name="M" unicode="M" horiz-adv-x="838" 
d="M379 0l-212 616h-4q2 -25 3.5 -54.5t2.5 -60t1 -59.5v-442h-82v714h128l200 -584h4l203 584h127v-714h-86v445q0 28 0.5 57.5t2.5 58.5t3 54h-4l-213 -615h-74z" />
    <glyph glyph-name="N" unicode="N" horiz-adv-x="690" 
d="M602 0h-104l-331 589h-4q2 -24 3.5 -53.5t2.5 -60.5t1 -62v-413h-82v714h103l331 -584h4q-1 21 -2.5 50.5t-2.5 62t-1 59.5v412h82v-714z" />
    <glyph glyph-name="O" unicode="O" horiz-adv-x="696" 
d="M640 358q0 -81 -18 -148t-54 -117t-90.5 -76.5t-128.5 -26.5q-76 0 -131 27.5t-91 76.5t-53 117t-17 148q0 114 32 196t97 126t163 44t162.5 -47t96.5 -129.5t32 -190.5zM149 358q0 -92 21.5 -157t66 -99t111.5 -34q68 0 112 33.5t65.5 98.5t21.5 158q0 139 -48 214
t-150 75q-68 0 -112.5 -34t-66 -98.5t-21.5 -156.5z" />
    <glyph glyph-name="P" unicode="P" horiz-adv-x="546" 
d="M256 714q128 0 187 -54t59 -156q0 -48 -14 -89t-44.5 -72t-79.5 -48t-119 -17h-69v-278h-88v714h168zM250 638h-74v-284h60q60 0 99 14.5t58 47t19 85.5q0 71 -39 104t-123 33z" />
    <glyph glyph-name="Q" unicode="Q" horiz-adv-x="696" 
d="M640 358q0 -88 -20.5 -158.5t-60.5 -119t-99 -71.5l148 -179h-118l-120 161q-5 0 -11 -0.5t-12 -0.5q-76 0 -130.5 27.5t-90 77t-52.5 117t-17 147.5q0 114 32 196t97 126t163 44q95 0 159.5 -44t98 -126t33.5 -197zM149 358q0 -92 21.5 -157t66 -99t111.5 -34
q68 0 112 33.5t65.5 98.5t21.5 158q0 139 -48 214t-150 75q-68 0 -112.5 -34t-66 -98.5t-21.5 -156.5z" />
    <glyph glyph-name="R" unicode="R" horiz-adv-x="563" 
d="M259 714q84 0 137.5 -22.5t79.5 -67.5t26 -112q0 -54 -17 -91.5t-46.5 -61.5t-66.5 -39l177 -320h-101l-156 296h-116v-296h-88v714h171zM256 637h-80v-267h87q76 0 112.5 35t36.5 103q0 46 -16.5 74t-51 41.5t-88.5 13.5z" />
    <glyph glyph-name="S" unicode="S" horiz-adv-x="499" 
d="M455 193q0 -63 -28 -108t-80 -70t-122 -25q-36 0 -68.5 4t-60 11t-50.5 18v86q36 -17 84 -29t96 -12q46 0 77.5 15t47.5 41.5t16 60.5q0 35 -13 59t-45 44t-88 43q-54 22 -91.5 49t-56.5 65.5t-19 94.5q-1 56 26 97.5t75 64t110 22.5q53 0 97.5 -11t79.5 -27l-27 -77
q-35 16 -73 26t-78 10q-39 0 -66.5 -13t-41 -36.5t-13.5 -54.5q0 -37 13 -60.5t43.5 -42.5t82.5 -41q57 -24 95.5 -51.5t58 -64t19.5 -88.5z" />
    <glyph glyph-name="T" unicode="T" horiz-adv-x="492" 
d="M290 0h-88v636h-192v78h471v-78h-191v-636z" />
    <glyph glyph-name="U" unicode="U" horiz-adv-x="654" 
d="M572 242q0 -77 -27 -133.5t-81.5 -87.5t-138.5 -31q-119 0 -181 67t-62 186v471h87v-474q0 -85 40.5 -128.5t119.5 -43.5q54 0 88.5 20.5t51 59.5t16.5 93v473h87v-472z" />
    <glyph glyph-name="V" unicode="V" horiz-adv-x="542" 
d="M542 714l-225 -714h-93l-224 714h92l141 -467q9 -26 15.5 -52t12 -50t9.5 -47q5 23 10.5 47.5t12.5 50.5t15 53l141 465h93z" />
    <glyph glyph-name="W" unicode="W" horiz-adv-x="853" 
d="M843 714l-174 -714h-94l-121 463q-4 17 -9 36t-9 38t-7 36t-5 31q-1 -10 -3.5 -26t-6.5 -35t-8.5 -39.5t-10.5 -41.5l-118 -462h-94l-174 714h91l102 -437q5 -24 10 -47.5t9 -45.5t7 -42t5 -38q3 21 6.5 42.5t8.5 44l10 45t10 44.5l113 434h87l115 -436q6 -21 11 -44
t9.5 -45t8 -43.5t6.5 -41.5q4 28 8.5 56.5t11 58.5t13.5 59l102 436h90z" />
    <glyph glyph-name="X" unicode="X" horiz-adv-x="518" 
d="M513 0h-98l-156 303l-162 -303h-92l206 372l-190 342h95l145 -275l146 275h93l-189 -343z" />
    <glyph glyph-name="Y" unicode="Y" horiz-adv-x="502" 
d="M251 368l158 346h93l-207 -437v-277h-88v274l-207 440h94z" />
    <glyph glyph-name="Z" unicode="Z" horiz-adv-x="495" 
d="M463 0h-429v67l318 568h-309v79h411v-67l-319 -568h328v-79z" />
    <glyph glyph-name="bracketleft" unicode="[" horiz-adv-x="323" 
d="M296 -159h-219v875h219v-70h-136v-735h136v-70z" />
    <glyph glyph-name="backslash" unicode="\" horiz-adv-x="372" 
d="M95 715l266 -716h-84l-264 716h82z" />
    <glyph glyph-name="bracketright" unicode="]" horiz-adv-x="323" 
d="M27 -89h136v735h-136v70h219v-875h-219v70z" />
    <glyph glyph-name="asciicircum" unicode="^" horiz-adv-x="524" 
d="M30 291l201 426h49l215 -426h-78l-161 329l-148 -329h-78z" />
    <glyph glyph-name="underscore" unicode="_" horiz-adv-x="441" 
d="M443 -151h-445v64h445v-64z" />
    <glyph glyph-name="grave" unicode="`" horiz-adv-x="276" 
d="M142 766q11 -22 27 -49.5t34 -53.5t33 -45v-12h-57q-16 14 -36.5 33t-40.5 40.5t-36.5 42t-25.5 34.5v10h102z" />
    <glyph glyph-name="a" unicode="a" horiz-adv-x="508" 
d="M261 546q89 0 130.5 -45t41.5 -137v-364h-63l-15 75h-3q-20 -28 -42 -47.5t-50.5 -28.5t-66.5 -9q-46 0 -80 19t-52.5 55t-18.5 85q0 80 56.5 124t170.5 48l80 3v33q0 65 -24.5 92t-71.5 27q-35 0 -68.5 -11t-64.5 -27l-27 64q34 20 77.5 32t90.5 12zM281 260
q-83 -3 -117 -31t-34 -80q0 -46 23.5 -68t62.5 -22q58 0 95.5 39t37.5 115v50z" />
    <glyph glyph-name="b" unicode="b" 
d="M163 563q0 -27 -1.5 -52.5t-2.5 -45.5h4q23 37 59 58.5t90 21.5q91 0 144 -69.5t53 -207.5q0 -91 -24 -153t-68 -93.5t-104 -31.5q-54 0 -90.5 21.5t-59.5 56.5h-6l-15 -68h-64v760h85v-197zM295 473q-50 0 -79 -23t-41 -68t-12 -109v-10q0 -99 30 -150t104 -51
q63 0 93.5 52t30.5 155q0 102 -30.5 153t-95.5 51z" />
    <glyph glyph-name="c" unicode="c" horiz-adv-x="431" 
d="M271 -10q-67 0 -116.5 29.5t-76.5 90.5t-27 155q0 95 28 157.5t78.5 93t118.5 30.5q37 0 70.5 -7.5t56.5 -19.5l-27 -71q-22 9 -49 16t-50 7q-47 0 -77.5 -23t-45.5 -68.5t-15 -113.5q0 -65 15 -110.5t45 -68.5t75 -23q36 0 65.5 8t55.5 21v-74q-25 -14 -55.5 -21.5
t-68.5 -7.5z" />
    <glyph glyph-name="d" unicode="d" 
d="M247 -10q-91 0 -144 70t-53 207t53 208t144 71q35 0 63 -10t49.5 -27.5t36.5 -41.5h5q-1 17 -3 39.5t-2 38.5v215h86v-760h-69l-12 71h-5q-15 -24 -36 -42t-49 -28.5t-64 -10.5zM263 62q72 0 103 46t31 140v21q0 101 -30 153t-105 52q-63 0 -93.5 -55.5t-30.5 -152.5
q0 -98 31 -151t94 -53z" />
    <glyph glyph-name="e" unicode="e" horiz-adv-x="510" 
d="M264 546q64 0 108.5 -30.5t68 -84.5t23.5 -125v-54h-326q2 -93 40.5 -141t111.5 -48q42 0 77.5 9t73.5 28v-75q-36 -18 -73 -26.5t-84 -8.5q-73 0 -125.5 33t-80 94.5t-27.5 146.5q0 89 25.5 152t73.5 96.5t114 33.5zM263 476q-55 0 -86.5 -40t-37.5 -116h238
q0 45 -12 80t-37 55.5t-65 20.5z" />
    <glyph glyph-name="f" unicode="f" horiz-adv-x="311" 
d="M298 468h-116v-468h-86v468h-83v42l83 29v31q0 100 38.5 147.5t116.5 47.5q28 0 52 -5t43 -12l-22 -68q-15 5 -33 9t-36 4q-38 0 -55.5 -28t-17.5 -93v-36h116v-68z" />
    <glyph glyph-name="g" unicode="g" 
d="M247 546q48 0 85 -19.5t64 -61.5h5l11 71h70v-544q0 -75 -24.5 -127t-74.5 -78.5t-128 -26.5q-50 0 -92 8t-77 25v79q37 -19 80.5 -29t91.5 -10q66 0 102.5 37.5t36.5 110.5v19q0 14 1 36t2 36h-4q-26 -41 -62.5 -61.5t-86.5 -20.5q-93 0 -145 72t-52 205
q0 132 52.5 205.5t144.5 73.5zM261 473q-40 0 -67.5 -24t-41.5 -70t-14 -113q0 -102 31.5 -153t93.5 -51q35 0 60 10.5t41.5 33.5t24.5 57.5t8 82.5v22q0 72 -14 117.5t-44.5 66.5t-77.5 21z" />
    <glyph glyph-name="h" unicode="h" 
d="M163 540q0 -20 -1.5 -40t-3.5 -37h6q14 27 37 45.5t51.5 28t59.5 9.5q58 0 96 -21t57 -63t19 -108v-354h-85v345q0 66 -24 97t-77 31q-50 0 -79.5 -22t-42.5 -65.5t-13 -107.5v-278h-85v760h85v-220z" />
    <glyph glyph-name="i" unicode="i" horiz-adv-x="241" 
d="M163 536v-536h-85v536h85zM122 738q21 0 35 -14t14 -43q0 -28 -14 -42t-35 -14q-22 0 -36.5 14t-14.5 42q0 29 14 43t37 14z" />
    <glyph glyph-name="j" unicode="j" horiz-adv-x="241" 
d="M27 -240q-21 0 -37.5 3t-29.5 8v71q13 -4 26.5 -6.5t28.5 -2.5q29 0 46 18.5t17 65.5v619h85v-617q0 -51 -14.5 -86.5t-44.5 -54t-77 -18.5zM71 681q0 29 14 43t37 14q21 0 35 -14t14 -43q0 -28 -14 -42t-35 -14q-22 0 -36.5 14t-14.5 42z" />
    <glyph glyph-name="k" unicode="k" horiz-adv-x="485" 
d="M162 370q0 -20 -1.5 -46t-2.5 -48h4q6 9 15.5 22.5t19.5 27t18 23.5l152 187h98l-186 -221l198 -315h-99l-157 255l-59 -57v-198h-84v760h84v-390z" />
    <glyph glyph-name="l" unicode="l" horiz-adv-x="240" 
d="M163 0h-85v760h85v-760z" />
    <glyph glyph-name="m" unicode="m" horiz-adv-x="842" 
d="M607 546q81 0 121 -46t40 -147v-353h-85v345q0 66 -23 97t-71 31q-67 0 -95.5 -45t-28.5 -132v-296h-84v346q0 44 -10.5 72t-31.5 41.5t-53 13.5q-47 0 -74 -23t-38 -66.5t-11 -104.5v-279h-85v536h68l12 -73h5q15 28 36.5 46.5t48.5 27.5t57 9q56 0 92.5 -22.5
t51.5 -65.5h5q25 45 64.5 66.5t88.5 21.5z" />
    <glyph glyph-name="n" unicode="n" 
d="M313 546q85 0 128 -46t43 -146v-354h-85v345q0 64 -24 96t-77 32q-75 0 -105 -48.5t-30 -146.5v-278h-85v536h68l12 -73h5q16 28 39 46.5t52 27.5t59 9z" />
    <glyph glyph-name="o" unicode="o" horiz-adv-x="546" 
d="M497 269q0 -66 -15 -117t-44 -87.5t-71 -55.5t-95 -19q-50 0 -91 19t-70 55t-45 87.5t-16 117.5q0 89 26.5 150.5t76.5 94t121 32.5q67 0 117 -32t78 -93.5t28 -151.5zM138 269q0 -65 14.5 -111.5t44.5 -71t77 -24.5q46 0 76 24.5t44.5 71t14.5 111.5q0 66 -14.5 111.5
t-44.5 69t-77 23.5q-71 0 -103 -53t-32 -151z" />
    <glyph glyph-name="p" unicode="p" 
d="M312 546q91 0 144 -69t53 -208q0 -90 -24 -152.5t-68 -94.5t-104 -32q-36 0 -64.5 10.5t-49.5 28.5t-36 40h-5q2 -18 3.5 -41t1.5 -41v-227h-85v776h69l12 -73h4q16 26 36.5 44.5t48.5 28.5t64 10zM295 474q-46 0 -75 -20.5t-42.5 -62t-14.5 -105.5v-18q0 -68 13 -114
t42 -69t79 -23q42 0 69.5 25.5t41 72t13.5 109.5q0 97 -30.5 151t-95.5 54z" />
    <glyph glyph-name="q" unicode="q" 
d="M396 -14q0 18 1 41.5t4 45.5h-5q-23 -37 -59.5 -60t-91.5 -23q-88 0 -141.5 69.5t-53.5 207.5q0 92 25 154t69.5 93.5t103.5 31.5q54 0 89.5 -22t58.5 -60h5l11 72h70v-776h-86v226zM264 62q47 0 76 20.5t42.5 61.5t14.5 103v20q0 104 -30.5 155.5t-104.5 51.5
q-63 0 -93.5 -55.5t-30.5 -153.5q0 -99 31 -151t95 -52z" />
    <glyph glyph-name="r" unicode="r" horiz-adv-x="373" 
d="M303 546q14 0 29.5 -1.5t27.5 -4.5l-11 -82q-12 3 -25.5 5t-26.5 2q-27 0 -51.5 -13t-43 -37.5t-29 -57.5t-10.5 -73v-284h-85v536h68l11 -95h4q15 30 36 54t48 37.5t58 13.5z" />
    <glyph glyph-name="s" unicode="s" horiz-adv-x="428" 
d="M387 147q0 -51 -23 -86t-65.5 -53t-102.5 -18q-49 0 -86 9t-65 24v81q28 -17 68.5 -29.5t82.5 -12.5q56 0 82 21t26 57q0 21 -10 37t-34.5 31.5t-68.5 34.5q-45 21 -78 41.5t-51 49t-18 71.5q0 66 50.5 103.5t132.5 37.5q44 0 81.5 -9t71.5 -26l-30 -68q-29 14 -61 23
t-66 9q-46 0 -71.5 -18t-25.5 -48q0 -22 11.5 -37.5t37.5 -30t70 -34.5t76 -40.5t49 -49t17 -70.5z" />
    <glyph glyph-name="t" unicode="t" horiz-adv-x="324" 
d="M239 62q18 0 35.5 3.5t30.5 7.5v-67q-15 -7 -38 -11.5t-47 -4.5q-39 0 -70 15t-49 49.5t-18 93.5v320h-67v43l69 30l30 118h53v-123h131v-68h-131v-315q0 -46 18.5 -68.5t52.5 -22.5z" />
    <glyph glyph-name="u" unicode="u" 
d="M481 536v-536h-69l-12 71h-5q-15 -27 -38.5 -45t-51.5 -27t-60 -9q-58 0 -96 22t-57 65.5t-19 108.5v350h86v-341q0 -67 24.5 -99.5t75.5 -32.5t81 22t43 64.5t13 105.5v281h85z" />
    <glyph glyph-name="v" unicode="v" horiz-adv-x="457" 
d="M180 0l-179 536h90l99 -317q7 -21 14 -45.5t13 -48t9 -42.5h4q3 16 8.5 37.5t13 45.5t13.5 46l101 324h90l-179 -536h-97z" />
    <glyph glyph-name="w" unicode="w" horiz-adv-x="720" 
d="M391 311q-6 25 -12 49t-10.5 46t-7.5 38h-3q-3 -16 -7.5 -38t-10 -46.5t-12.5 -49.5l-85 -309h-97l-136 536h88l66 -279q7 -29 13.5 -58t11.5 -56.5t8 -49.5h3q3 14 6.5 32.5t7.5 39t9 41t10 39.5l81 291h94l78 -291q6 -22 12.5 -47.5t12 -52.5t8.5 -52h3q2 16 6.5 38.5
t10.5 49.5t12 55l72 300h86l-137 -536h-100z" />
    <glyph glyph-name="x" unicode="x" horiz-adv-x="472" 
d="M186 275l-161 261h95l117 -199l116 199h94l-161 -262l170 -274h-95l-125 211l-126 -211h-93z" />
    <glyph glyph-name="y" unicode="y" horiz-adv-x="459" 
d="M2 536h90l101 -304q7 -24 14 -47.5t13 -46t10 -43.5h4q5 26 15.5 62.5t22.5 74.5l95 304h90l-204 -613q-18 -51 -41 -88t-56 -56t-79 -19q-20 0 -36 2.5t-29 5.5v71q11 -3 24.5 -5t27.5 -2q27 0 46 11t32.5 33t24.5 54l24 70z" />
    <glyph glyph-name="z" unicode="z" horiz-adv-x="409" 
d="M376 0h-342v57l241 411h-227v68h321v-63l-238 -405h245v-68z" />
    <glyph glyph-name="braceleft" unicode="{" horiz-adv-x="373" 
d="M338 -159q-61 1 -103.5 18t-65 52.5t-22.5 88.5v148q0 34 -12 55t-37.5 31t-64.5 10v69q38 0 63 9t38 30t13 56v149q0 52 22.5 87t65.5 53t103 18v-70q-34 -1 -58 -10.5t-36.5 -30t-12.5 -53.5v-147q0 -52 -24.5 -82.5t-78.5 -40.5v-5q55 -10 79 -40.5t24 -82.5v-148
q0 -33 12 -53.5t36 -30t59 -10.5v-70z" />
    <glyph glyph-name="bar" unicode="|" horiz-adv-x="497" 
d="M212 761h74v-1001h-74v1001z" />
    <glyph glyph-name="braceright" unicode="}" horiz-adv-x="373" 
d="M35 -89q35 1 58.5 11t36 30.5t12.5 52.5v147q0 53 25 83t78 40v6q-53 9 -78 39.5t-25 83.5v147q0 34 -12.5 54t-36 30t-58.5 10v70q62 0 104 -17.5t64.5 -52.5t22.5 -89v-148q0 -33 12 -54t37.5 -31t64.5 -10v-69q-38 0 -63.5 -10t-38 -30.5t-12.5 -54.5v-149
q0 -53 -22.5 -88t-65 -53t-103.5 -18v70z" />
    <glyph glyph-name="asciitilde" unicode="~" horiz-adv-x="520" 
d="M246 319q-31 15 -54 21t-43 6q-26 0 -54.5 -16.5t-52.5 -42.5v78q23 26 50.5 39t61.5 13q29 0 55 -6.5t65 -24.5q32 -15 54 -21t42 -6q27 0 56 17t51 42v-77q-22 -25 -50 -39t-61 -14q-29 0 -55.5 7t-64.5 24z" />
    <glyph glyph-name="uni00A0" unicode="&#xa0;" horiz-adv-x="232" 
 />
    <glyph glyph-name="exclamdown" unicode="&#xa1;" horiz-adv-x="257" 
d="M98 330h59l22 -514h-104zM188 477q0 -36 -17 -51t-42 -15q-26 0 -43 15.5t-17 50.5t17 51t43 16q24 0 41.5 -16t17.5 -51z" />
    <glyph glyph-name="cent" unicode="&#xa2;" horiz-adv-x="520" 
d="M323 644q33 -1 63 -9t52 -19l-26 -71q-23 11 -50.5 17.5t-50.5 6.5q-47 0 -78 -22.5t-46 -68.5t-15 -115t15 -113.5t45.5 -66t75.5 -21.5q36 0 65 8t57 21v-75q-23 -12 -48.5 -19t-59.5 -9v-98h-62v100q-55 8 -94 39.5t-60 89.5t-21 143q0 88 21 146t60.5 91t93.5 41v84
h63v-80z" />
    <glyph glyph-name="sterling" unicode="&#xa3;" horiz-adv-x="520" 
d="M307 723q48 0 87.5 -11.5t71.5 -29.5l-31 -69q-29 16 -60 26.5t-65 10.5q-50 0 -74.5 -29t-24.5 -92v-141h174v-66h-174v-107q0 -38 -8.5 -64t-23.5 -43t-34 -29h337v-79h-446v73q27 8 46.5 25.5t30.5 45.5t11 70v108h-87v66h87v147q0 61 22 103t63.5 63.5t97.5 21.5z
" />
    <glyph glyph-name="yen" unicode="&#xa5;" horiz-adv-x="520" 
d="M259 370l146 344h90l-171 -377h114v-62h-137v-83h137v-63h-137v-129h-85v129h-136v63h136v83h-136v62h111l-169 377h90z" />
    <glyph glyph-name="section" unicode="&#xa7;" horiz-adv-x="461" 
d="M57 400q0 45 22 75.5t54 45.5q-34 21 -52.5 48.5t-18.5 64.5q0 61 48 95t131 34q48 0 82.5 -8.5t69.5 -24.5l-27 -63q-31 14 -60.5 22.5t-67.5 8.5q-51 0 -74 -16.5t-23 -44.5q0 -20 11 -34.5t36 -28.5t67 -31q47 -20 79.5 -41.5t50 -48.5t17.5 -66q0 -45 -20.5 -77.5
t-49.5 -49.5q34 -21 51 -47.5t17 -62.5q0 -67 -52.5 -105t-143.5 -38q-48 0 -85.5 8.5t-66.5 24.5v73q20 -10 45 -19.5t53.5 -15.5t55.5 -6q62 0 88 21.5t26 50.5q0 21 -9.5 35.5t-34.5 30t-74 35.5q-47 21 -79.5 41.5t-49 47.5t-16.5 66zM130 410q0 -23 12 -41t38 -33.5
t67 -33.5l27 -12q22 14 38 34t16 51q0 24 -11 42.5t-40 36t-83 37.5q-27 -8 -45.5 -29.5t-18.5 -51.5z" />
    <glyph glyph-name="dieresis" unicode="&#xa8;" 
d="M145 676q0 26 13.5 38t31.5 12q19 0 32 -12t13 -38q0 -25 -13 -37.5t-32 -12.5q-18 0 -31.5 12.5t-13.5 37.5zM323 676q0 26 13.5 38t31.5 12q19 0 32.5 -12t13.5 -38q0 -25 -13.5 -37.5t-32.5 -12.5t-32 12.5t-13 37.5z" />
    <glyph glyph-name="copyright" unicode="&#xa9;" horiz-adv-x="831" 
d="M430 133q-97 0 -147 60t-50 163q0 67 23.5 117t68.5 78.5t110 28.5q31 0 63 -8t60 -22l-28 -59q-25 13 -48.5 19t-45.5 6q-60 0 -93.5 -42t-33.5 -117q0 -79 30 -119.5t96 -40.5q23 0 51 6.5t54 16.5v-63q-25 -10 -51 -17t-59 -7zM416 -10q-82 0 -149.5 27.5t-116 78
t-75 117t-26.5 144.5q0 81 27.5 148t77 116t116.5 76t146 27q77 0 144 -27.5t117 -77t78 -116.5t28 -146q0 -80 -27.5 -147t-77 -116.5t-116.5 -76.5t-146 -27zM416 43q65 0 121.5 23.5t99 66t66 99.5t23.5 125q0 66 -23 123t-65 100t-98.5 67t-123.5 24q-69 0 -126 -23.5
t-98.5 -66t-64 -99.5t-22.5 -125q0 -67 23 -124.5t65 -99.5t98.5 -66t124.5 -24z" />
    <glyph glyph-name="ordfeminine" unicode="&#xaa;" horiz-adv-x="337" 
d="M168 722q60 0 89.5 -27.5t29.5 -85.5v-220h-45l-12 44q-19 -23 -44.5 -36.5t-60.5 -13.5q-29 0 -50.5 11.5t-33 33.5t-11.5 53q0 34 16 56.5t48.5 34t80.5 14.5l50 2v23q0 33 -17 46t-45 13q-24 0 -46.5 -6.5t-43.5 -17.5l-21 48q25 13 54.5 20.5t61.5 7.5zM184 542
q-52 -3 -71.5 -18t-19.5 -42q0 -25 13 -37t36 -12q43 0 63 23.5t20 63.5v24z" />
    <glyph glyph-name="guillemotleft" unicode="&#xab;" horiz-adv-x="491" 
d="M38 270l159 199l61 -34l-127 -171l127 -171l-61 -34l-159 198v13zM233 270l161 199l60 -34l-128 -171l128 -171l-60 -34l-161 198v13z" />
    <glyph glyph-name="registered" unicode="&#xae;" horiz-adv-x="831" 
d="M280 141v434h124q80 0 119 -32t39 -96q0 -46 -22 -74t-54 -41l109 -191h-83l-94 171h-63v-171h-75zM402 372q39 0 61.5 19t22.5 53q0 36 -20.5 52.5t-64.5 16.5h-47v-141h48zM416 -10q-82 0 -149.5 27.5t-116 78t-75 117t-26.5 144.5q0 81 27.5 148t77 116t116.5 76
t146 27q77 0 144 -27.5t117 -77t78 -116.5t28 -146q0 -80 -27.5 -147t-77 -116.5t-116.5 -76.5t-146 -27zM416 43q65 0 121.5 23.5t99 66t66 99.5t23.5 125q0 66 -23 123t-65 100t-98.5 67t-123.5 24q-69 0 -126 -23.5t-98.5 -66t-64 -99.5t-22.5 -125q0 -67 23 -124.5
t65 -99.5t98.5 -66t124.5 -24z" />
    <glyph glyph-name="overscore" unicode="&#xaf;" horiz-adv-x="477" 
d="M480 760h-483v65h483v-65z" />
    <glyph glyph-name="degree" unicode="&#xb0;" horiz-adv-x="405" 
d="M202 431q-45 0 -78.5 18.5t-53 51t-19.5 76.5t19 77t53 51.5t79 18.5t79 -18.5t53.5 -51.5t19.5 -77t-19.5 -77t-54 -51t-78.5 -18zM203 487q44 0 66 25t22 65q0 41 -22.5 66t-65.5 25q-45 0 -67 -25t-22 -66t22.5 -65.5t66.5 -24.5z" />
    <glyph glyph-name="acute" unicode="&#xb4;" horiz-adv-x="276" 
d="M236 756q-9 -14 -26 -34t-37 -41.5t-40 -41t-37 -33.5h-56v12q16 22 33.5 47.5t33 52t26.5 48.5h103v-10z" />
    <glyph glyph-name="paragraph" unicode="&#xb6;" horiz-adv-x="592" 
d="M495 -127h-58v831h-89v-831h-58v400q-12 -4 -28 -6.5t-31 -2.5q-54 0 -93 24.5t-60 78.5t-21 142q0 91 23 146t66 80t102 25h247v-887z" />
    <glyph glyph-name="periodcentered" unicode="&#xb7;" horiz-adv-x="253" 
d="M67 352q0 36 16.5 51t42.5 15q25 0 42 -15t17 -51q0 -35 -17 -50.5t-42 -15.5t-42 16t-17 50z" />
    <glyph glyph-name="cedilla" unicode="&#xb8;" horiz-adv-x="217" 
d="M202 -138q0 -49 -35 -75.5t-102 -26.5q-16 0 -30 1.5t-22 3.5v55q9 -2 22.5 -3.5t26.5 -1.5q34 0 52 11t18 34q0 26 -24 39t-62 18l40 83h55l-25 -52q25 -5 44.5 -16t30.5 -28t11 -42z" />
    <glyph glyph-name="ordmasculine" unicode="&#xba;" horiz-adv-x="353" 
d="M322 553q0 -81 -39 -125.5t-107 -44.5q-65 0 -105 44t-40 126q0 81 39 125t108 44q44 0 76.5 -19.5t50 -57t17.5 -92.5zM95 553q0 -59 19.5 -88t62.5 -29t62.5 29t19.5 88t-19.5 87.5t-62.5 28.5q-42 0 -62 -28.5t-20 -87.5z" />
    <glyph glyph-name="guillemotright" unicode="&#xbb;" horiz-adv-x="491" 
d="M453 257l-161 -198l-59 34l127 171l-127 171l59 34l161 -199v-13zM258 257l-161 -198l-59 34l127 171l-127 171l59 34l161 -199v-13z" />
    <glyph glyph-name="questiondown" unicode="&#xbf;" horiz-adv-x="391" 
d="M266 303q0 -36 -6.5 -64t-22 -52.5t-44.5 -51.5q-33 -31 -52 -54.5t-27 -46t-8 -52.5q0 -48 27 -73t77 -25q42 0 74.5 11.5t62.5 27.5l31 -67q-36 -22 -79 -35t-94 -13q-87 0 -134.5 45t-47.5 126q0 44 12.5 75.5t36 59t56.5 60.5q29 28 44 48.5t20 41.5t5 49v18h69v-28z
M288 477q0 -35 -16.5 -50.5t-43.5 -15.5q-25 0 -41.5 15t-16.5 51q0 35 17 51t41 16q27 0 43.5 -16t16.5 -51z" />
    <glyph glyph-name="Agrave" unicode="&#xc0;" horiz-adv-x="570" 
d="M478 0l-74 222h-240l-73 -222h-91l240 716h88l241 -716h-91zM311 524q-3 12 -8.5 31.5t-11 40t-8.5 33.5q-3 -18 -7.5 -37t-9.5 -36.5l-9 -31.5l-70 -223h194zM262 944q11 -22 27 -49.5t34 -53.5t33 -45v-12h-57q-16 14 -36.5 33t-40.5 40.5t-36.5 42t-25.5 34.5v10h102z
" />
    <glyph glyph-name="Aacute" unicode="&#xc1;" horiz-adv-x="570" 
d="M478 0l-74 222h-240l-73 -222h-91l240 716h88l241 -716h-91zM311 524q-3 12 -8.5 31.5t-11 40t-8.5 33.5q-3 -18 -7.5 -37t-9.5 -36.5l-9 -31.5l-70 -223h194zM425 934q-9 -14 -26 -34t-37 -41.5t-40 -41t-37 -33.5h-56v12q16 22 33.5 47.5t33 52t26.5 48.5h103v-10z" />
    <glyph glyph-name="Acircumflex" unicode="&#xc2;" horiz-adv-x="570" 
d="M478 0l-74 222h-240l-73 -222h-91l240 716h88l241 -716h-91zM311 524q-3 12 -8.5 31.5t-11 40t-8.5 33.5q-3 -18 -7.5 -37t-9.5 -36.5l-9 -31.5l-70 -223h194zM325 944q12 -22 31.5 -49t41.5 -53.5t40 -46.5v-11h-56q-24 17 -49.5 41t-50.5 50q-26 -26 -51 -50t-48 -41
h-55v11q19 21 40 47.5t40.5 53t31.5 48.5h85z" />
    <glyph glyph-name="Atilde" unicode="&#xc3;" horiz-adv-x="570" 
d="M478 0l-74 222h-240l-73 -222h-91l240 716h88l241 -716h-91zM311 524q-3 12 -8.5 31.5t-11 40t-8.5 33.5q-3 -18 -7.5 -37t-9.5 -36.5l-9 -31.5l-70 -223h194zM114 784q3 27 10 50t19.5 40t30 26t40.5 9q21 0 40 -8.5t37 -20t34.5 -20t31.5 -8.5q20 0 31 15.5t17 42.5h50
q-5 -58 -31 -91.5t-68 -33.5q-20 0 -39 8.5t-37.5 20t-34.5 20t-32 8.5q-20 0 -31 -15t-17 -43h-51z" />
    <glyph glyph-name="Adieresis" unicode="&#xc4;" horiz-adv-x="570" 
d="M478 0l-74 222h-240l-73 -222h-91l240 716h88l241 -716h-91zM311 524q-3 12 -8.5 31.5t-11 40t-8.5 33.5q-3 -18 -7.5 -37t-9.5 -36.5l-9 -31.5l-70 -223h194zM149 854q0 26 13.5 38t31.5 12q19 0 32 -12t13 -38q0 -25 -13 -37.5t-32 -12.5q-18 0 -31.5 12.5t-13.5 37.5z
M327 854q0 26 13.5 38t31.5 12q19 0 32.5 -12t13.5 -38q0 -25 -13.5 -37.5t-32.5 -12.5t-32 12.5t-13 37.5z" />
    <glyph glyph-name="Aring" unicode="&#xc5;" horiz-adv-x="570" 
d="M478 0l-74 222h-240l-73 -222h-91l240 716h88l241 -716h-91zM311 524q-3 12 -8.5 31.5t-11 40t-8.5 33.5q-3 -18 -7.5 -37t-9.5 -36.5l-9 -31.5l-70 -223h194zM284 668q-49 0 -78.5 28t-29.5 76t29.5 75.5t78.5 27.5q46 0 77 -27t31 -75q0 -49 -30 -77t-78 -28zM284 718
q24 0 39.5 14.5t15.5 39.5t-15 40t-40 15q-24 0 -39.5 -15t-15.5 -40t14 -39.5t41 -14.5z" />
    <glyph glyph-name="AE" unicode="&#xc6;" horiz-adv-x="784" 
d="M729 0h-340v222h-207l-91 -222h-92l293 714h437v-78h-252v-225h235v-77h-235v-256h252v-78zM212 301h178v334h-43z" />
    <glyph glyph-name="Ccedilla" unicode="&#xc7;" horiz-adv-x="564" 
d="M362 646q-51 0 -91 -20.5t-67 -59.5t-41 -92t-14 -117q0 -89 24.5 -154t72.5 -100t118 -35q40 0 76.5 8t70.5 20v-78q-34 -14 -71.5 -21t-87.5 -7q-96 0 -162 44.5t-99.5 127.5t-33.5 196q0 79 19.5 146t58 116.5t95.5 76.5t132 27q48 0 92.5 -10t80.5 -29l-33 -75
q-29 15 -64 25.5t-76 10.5zM430 -138q0 -49 -35 -75.5t-102 -26.5q-16 0 -30 1.5t-22 3.5v55q9 -2 22.5 -3.5t26.5 -1.5q34 0 52 11t18 34q0 26 -24 39t-62 18l40 83h55l-25 -52q25 -5 44.5 -16t30.5 -28t11 -42z" />
    <glyph glyph-name="Egrave" unicode="&#xc8;" horiz-adv-x="500" 
d="M445 0h-357v714h357v-78h-269v-225h253v-77h-253v-256h269v-78zM251 944q11 -22 27 -49.5t34 -53.5t33 -45v-12h-57q-16 14 -36.5 33t-40.5 40.5t-36.5 42t-25.5 34.5v10h102z" />
    <glyph glyph-name="Eacute" unicode="&#xc9;" horiz-adv-x="500" 
d="M445 0h-357v714h357v-78h-269v-225h253v-77h-253v-256h269v-78zM414 934q-9 -14 -26 -34t-37 -41.5t-40 -41t-37 -33.5h-56v12q16 22 33.5 47.5t33 52t26.5 48.5h103v-10z" />
    <glyph glyph-name="Ecircumflex" unicode="&#xca;" horiz-adv-x="500" 
d="M445 0h-357v714h357v-78h-269v-225h253v-77h-253v-256h269v-78zM314 944q12 -22 31.5 -49t41.5 -53.5t40 -46.5v-11h-56q-24 17 -49.5 41t-50.5 50q-26 -26 -51 -50t-48 -41h-55v11q19 21 40 47.5t40.5 53t31.5 48.5h85z" />
    <glyph glyph-name="Edieresis" unicode="&#xcb;" horiz-adv-x="500" 
d="M445 0h-357v714h357v-78h-269v-225h253v-77h-253v-256h269v-78zM138 854q0 26 13.5 38t31.5 12q19 0 32 -12t13 -38q0 -25 -13 -37.5t-32 -12.5q-18 0 -31.5 12.5t-13.5 37.5zM316 854q0 26 13.5 38t31.5 12q19 0 32.5 -12t13.5 -38q0 -25 -13.5 -37.5t-32.5 -12.5
t-32 12.5t-13 37.5z" />
    <glyph glyph-name="Igrave" unicode="&#xcc;" horiz-adv-x="318" 
d="M280 0h-242v51l77 18v576l-77 18v51h242v-51l-77 -18v-576l77 -18v-51zM138 944q11 -22 27 -49.5t34 -53.5t33 -45v-12h-57q-16 14 -36.5 33t-40.5 40.5t-36.5 42t-25.5 34.5v10h102z" />
    <glyph glyph-name="Iacute" unicode="&#xcd;" horiz-adv-x="318" 
d="M280 0h-242v51l77 18v576l-77 18v51h242v-51l-77 -18v-576l77 -18v-51zM301 934q-9 -14 -26 -34t-37 -41.5t-40 -41t-37 -33.5h-56v12q16 22 33.5 47.5t33 52t26.5 48.5h103v-10z" />
    <glyph glyph-name="Icircumflex" unicode="&#xce;" horiz-adv-x="318" 
d="M280 0h-242v51l77 18v576l-77 18v51h242v-51l-77 -18v-576l77 -18v-51zM201 944q12 -22 31.5 -49t41.5 -53.5t40 -46.5v-11h-56q-24 17 -49.5 41t-50.5 50q-26 -26 -51 -50t-48 -41h-55v11q19 21 40 47.5t40.5 53t31.5 48.5h85z" />
    <glyph glyph-name="Idieresis" unicode="&#xcf;" horiz-adv-x="318" 
d="M280 0h-242v51l77 18v576l-77 18v51h242v-51l-77 -18v-576l77 -18v-51zM25 854q0 26 13.5 38t31.5 12q19 0 32 -12t13 -38q0 -25 -13 -37.5t-32 -12.5q-18 0 -31.5 12.5t-13.5 37.5zM203 854q0 26 13.5 38t31.5 12q19 0 32.5 -12t13.5 -38q0 -25 -13.5 -37.5t-32.5 -12.5
t-32 12.5t-13 37.5z" />
    <glyph glyph-name="Eth" unicode="&#xd0;" horiz-adv-x="652" 
d="M282 714q97 0 167 -40t108 -117t38 -192q0 -120 -39 -201.5t-112 -122.5t-178 -41h-174v321h-65v74h65v319h190zM273 638h-93v-243h149v-74h-149v-245h78q124 0 184.5 72t60.5 213q0 94 -27 155.5t-78 91.5t-125 30z" />
    <glyph glyph-name="Ntilde" unicode="&#xd1;" horiz-adv-x="690" 
d="M602 0h-104l-331 589h-4q2 -24 3.5 -53.5t2.5 -60.5t1 -62v-413h-82v714h103l331 -584h4q-1 21 -2.5 50.5t-2.5 62t-1 59.5v412h82v-714zM175 784q3 27 10 50t19.5 40t30 26t40.5 9q21 0 40 -8.5t37 -20t34.5 -20t31.5 -8.5q20 0 31 15.5t17 42.5h50q-5 -58 -31 -91.5
t-68 -33.5q-20 0 -39 8.5t-37.5 20t-34.5 20t-32 8.5q-20 0 -31 -15t-17 -43h-51z" />
    <glyph glyph-name="Ograve" unicode="&#xd2;" horiz-adv-x="696" 
d="M640 358q0 -81 -18 -148t-54 -117t-90.5 -76.5t-128.5 -26.5q-76 0 -131 27.5t-91 76.5t-53 117t-17 148q0 114 32 196t97 126t163 44t162.5 -47t96.5 -129.5t32 -190.5zM149 358q0 -92 21.5 -157t66 -99t111.5 -34q68 0 112 33.5t65.5 98.5t21.5 158q0 139 -48 214
t-150 75q-68 0 -112.5 -34t-66 -98.5t-21.5 -156.5zM327 944q11 -22 27 -49.5t34 -53.5t33 -45v-12h-57q-16 14 -36.5 33t-40.5 40.5t-36.5 42t-25.5 34.5v10h102z" />
    <glyph glyph-name="Oacute" unicode="&#xd3;" horiz-adv-x="696" 
d="M640 358q0 -81 -18 -148t-54 -117t-90.5 -76.5t-128.5 -26.5q-76 0 -131 27.5t-91 76.5t-53 117t-17 148q0 114 32 196t97 126t163 44t162.5 -47t96.5 -129.5t32 -190.5zM149 358q0 -92 21.5 -157t66 -99t111.5 -34q68 0 112 33.5t65.5 98.5t21.5 158q0 139 -48 214
t-150 75q-68 0 -112.5 -34t-66 -98.5t-21.5 -156.5zM490 934q-9 -14 -26 -34t-37 -41.5t-40 -41t-37 -33.5h-56v12q16 22 33.5 47.5t33 52t26.5 48.5h103v-10z" />
    <glyph glyph-name="Ocircumflex" unicode="&#xd4;" horiz-adv-x="696" 
d="M640 358q0 -81 -18 -148t-54 -117t-90.5 -76.5t-128.5 -26.5q-76 0 -131 27.5t-91 76.5t-53 117t-17 148q0 114 32 196t97 126t163 44t162.5 -47t96.5 -129.5t32 -190.5zM149 358q0 -92 21.5 -157t66 -99t111.5 -34q68 0 112 33.5t65.5 98.5t21.5 158q0 139 -48 214
t-150 75q-68 0 -112.5 -34t-66 -98.5t-21.5 -156.5zM390 944q12 -22 31.5 -49t41.5 -53.5t40 -46.5v-11h-56q-24 17 -49.5 41t-50.5 50q-26 -26 -51 -50t-48 -41h-55v11q19 21 40 47.5t40.5 53t31.5 48.5h85z" />
    <glyph glyph-name="Otilde" unicode="&#xd5;" horiz-adv-x="696" 
d="M640 358q0 -81 -18 -148t-54 -117t-90.5 -76.5t-128.5 -26.5q-76 0 -131 27.5t-91 76.5t-53 117t-17 148q0 114 32 196t97 126t163 44t162.5 -47t96.5 -129.5t32 -190.5zM149 358q0 -92 21.5 -157t66 -99t111.5 -34q68 0 112 33.5t65.5 98.5t21.5 158q0 139 -48 214
t-150 75q-68 0 -112.5 -34t-66 -98.5t-21.5 -156.5zM179 784q3 27 10 50t19.5 40t30 26t40.5 9q21 0 40 -8.5t37 -20t34.5 -20t31.5 -8.5q20 0 31 15.5t17 42.5h50q-5 -58 -31 -91.5t-68 -33.5q-20 0 -39 8.5t-37.5 20t-34.5 20t-32 8.5q-20 0 -31 -15t-17 -43h-51z" />
    <glyph glyph-name="Odieresis" unicode="&#xd6;" horiz-adv-x="696" 
d="M640 358q0 -81 -18 -148t-54 -117t-90.5 -76.5t-128.5 -26.5q-76 0 -131 27.5t-91 76.5t-53 117t-17 148q0 114 32 196t97 126t163 44t162.5 -47t96.5 -129.5t32 -190.5zM149 358q0 -92 21.5 -157t66 -99t111.5 -34q68 0 112 33.5t65.5 98.5t21.5 158q0 139 -48 214
t-150 75q-68 0 -112.5 -34t-66 -98.5t-21.5 -156.5zM214 854q0 26 13.5 38t31.5 12q19 0 32 -12t13 -38q0 -25 -13 -37.5t-32 -12.5q-18 0 -31.5 12.5t-13.5 37.5zM392 854q0 26 13.5 38t31.5 12q19 0 32.5 -12t13.5 -38q0 -25 -13.5 -37.5t-32.5 -12.5t-32 12.5t-13 37.5z
" />
    <glyph glyph-name="multiply" unicode="&#xd7;" horiz-adv-x="520" 
d="M418 560l49 -49l-158 -158l156 -158l-48 -49l-159 157l-155 -157l-50 49l156 158l-157 157l50 50l157 -158z" />
    <glyph glyph-name="Oslash" unicode="&#xd8;" horiz-adv-x="696" 
d="M640 358q0 -85 -19 -153t-55.5 -116t-91 -73.5t-125.5 -25.5q-49 0 -90 12t-73 35l-46 -74l-57 34l52 86q-40 49 -59 118.5t-19 157.5q0 114 32 196t97 126t163 44q47 0 87.5 -12.5t73.5 -35.5l44 72l57 -35l-51 -84q39 -47 59.5 -116t20.5 -156zM548 358q0 119 -39 190
l-280 -440q23 -20 53 -30.5t66 -10.5q69 0 113 34t65.5 99t21.5 158zM149 358q0 -60 9.5 -108.5t28.5 -83.5l279 439q-22 21 -51 31.5t-66 10.5q-68 0 -112.5 -34t-66 -98.5t-21.5 -156.5z" />
    <glyph glyph-name="Ugrave" unicode="&#xd9;" horiz-adv-x="654" 
d="M572 242q0 -77 -27 -133.5t-81.5 -87.5t-138.5 -31q-119 0 -181 67t-62 186v471h87v-474q0 -85 40.5 -128.5t119.5 -43.5q54 0 88.5 20.5t51 59.5t16.5 93v473h87v-472zM306 944q11 -22 27 -49.5t34 -53.5t33 -45v-12h-57q-16 14 -36.5 33t-40.5 40.5t-36.5 42
t-25.5 34.5v10h102z" />
    <glyph glyph-name="Uacute" unicode="&#xda;" horiz-adv-x="654" 
d="M572 242q0 -77 -27 -133.5t-81.5 -87.5t-138.5 -31q-119 0 -181 67t-62 186v471h87v-474q0 -85 40.5 -128.5t119.5 -43.5q54 0 88.5 20.5t51 59.5t16.5 93v473h87v-472zM469 934q-9 -14 -26 -34t-37 -41.5t-40 -41t-37 -33.5h-56v12q16 22 33.5 47.5t33 52t26.5 48.5h103
v-10z" />
    <glyph glyph-name="Ucircumflex" unicode="&#xdb;" horiz-adv-x="654" 
d="M572 242q0 -77 -27 -133.5t-81.5 -87.5t-138.5 -31q-119 0 -181 67t-62 186v471h87v-474q0 -85 40.5 -128.5t119.5 -43.5q54 0 88.5 20.5t51 59.5t16.5 93v473h87v-472zM369 944q12 -22 31.5 -49t41.5 -53.5t40 -46.5v-11h-56q-24 17 -49.5 41t-50.5 50q-26 -26 -51 -50
t-48 -41h-55v11q19 21 40 47.5t40.5 53t31.5 48.5h85z" />
    <glyph glyph-name="Udieresis" unicode="&#xdc;" horiz-adv-x="654" 
d="M572 242q0 -77 -27 -133.5t-81.5 -87.5t-138.5 -31q-119 0 -181 67t-62 186v471h87v-474q0 -85 40.5 -128.5t119.5 -43.5q54 0 88.5 20.5t51 59.5t16.5 93v473h87v-472zM193 854q0 26 13.5 38t31.5 12q19 0 32 -12t13 -38q0 -25 -13 -37.5t-32 -12.5q-18 0 -31.5 12.5
t-13.5 37.5zM371 854q0 26 13.5 38t31.5 12q19 0 32.5 -12t13.5 -38q0 -25 -13.5 -37.5t-32.5 -12.5t-32 12.5t-13 37.5z" />
    <glyph glyph-name="Yacute" unicode="&#xdd;" horiz-adv-x="502" 
d="M251 368l158 346h93l-207 -437v-277h-88v274l-207 440h94zM393 934q-9 -14 -26 -34t-37 -41.5t-40 -41t-37 -33.5h-56v12q16 22 33.5 47.5t33 52t26.5 48.5h103v-10z" />
    <glyph glyph-name="Thorn" unicode="&#xde;" horiz-adv-x="543" 
d="M501 382q0 -48 -13.5 -89.5t-43.5 -72.5t-79 -48t-120 -17h-69v-155h-88v714h88v-124h78q130 0 188.5 -53.5t58.5 -154.5zM236 230q61 0 99.5 15t57 48t18.5 84q0 70 -38.5 103.5t-123.5 33.5h-73v-284h60z" />
    <glyph glyph-name="germandbls" unicode="&#xdf;" horiz-adv-x="567" 
d="M470 617q0 -33 -12.5 -57.5t-31 -44t-36.5 -36t-30.5 -32.5t-12.5 -35q0 -14 6.5 -26.5t23 -27.5t46.5 -38q34 -27 57.5 -51.5t35 -51.5t11.5 -64q0 -55 -21 -91t-59.5 -54t-89.5 -18q-39 0 -71.5 8t-56.5 23v79q16 -9 35.5 -18t42 -14.5t45.5 -5.5q48 0 69.5 22.5
t21.5 62.5q0 23 -8 41t-26 36.5t-49 41.5q-37 27 -58 50t-29.5 45t-8.5 47q0 30 12 51t30 38t36 33.5t30 35.5t12 47q0 40 -29 60t-78 20q-31 0 -57 -11.5t-41.5 -36t-15.5 -66.5v-579h-85v580q0 64 25.5 105t71 60.5t103.5 19.5q59 0 101.5 -16.5t66.5 -49.5t24 -82z" />
    <glyph glyph-name="agrave" unicode="&#xe0;" horiz-adv-x="508" 
d="M261 546q89 0 130.5 -45t41.5 -137v-364h-63l-15 75h-3q-20 -28 -42 -47.5t-50.5 -28.5t-66.5 -9q-46 0 -80 19t-52.5 55t-18.5 85q0 80 56.5 124t170.5 48l80 3v33q0 65 -24.5 92t-71.5 27q-35 0 -68.5 -11t-64.5 -27l-27 64q34 20 77.5 32t90.5 12zM281 260
q-83 -3 -117 -31t-34 -80q0 -46 23.5 -68t62.5 -22q58 0 95.5 39t37.5 115v50zM235 766q11 -22 27 -49.5t34 -53.5t33 -45v-12h-57q-16 14 -36.5 33t-40.5 40.5t-36.5 42t-25.5 34.5v10h102z" />
    <glyph glyph-name="aacute" unicode="&#xe1;" horiz-adv-x="508" 
d="M261 546q89 0 130.5 -45t41.5 -137v-364h-63l-15 75h-3q-20 -28 -42 -47.5t-50.5 -28.5t-66.5 -9q-46 0 -80 19t-52.5 55t-18.5 85q0 80 56.5 124t170.5 48l80 3v33q0 65 -24.5 92t-71.5 27q-35 0 -68.5 -11t-64.5 -27l-27 64q34 20 77.5 32t90.5 12zM281 260
q-83 -3 -117 -31t-34 -80q0 -46 23.5 -68t62.5 -22q58 0 95.5 39t37.5 115v50zM398 756q-9 -14 -26 -34t-37 -41.5t-40 -41t-37 -33.5h-56v12q16 22 33.5 47.5t33 52t26.5 48.5h103v-10z" />
    <glyph glyph-name="acircumflex" unicode="&#xe2;" horiz-adv-x="508" 
d="M261 546q89 0 130.5 -45t41.5 -137v-364h-63l-15 75h-3q-20 -28 -42 -47.5t-50.5 -28.5t-66.5 -9q-46 0 -80 19t-52.5 55t-18.5 85q0 80 56.5 124t170.5 48l80 3v33q0 65 -24.5 92t-71.5 27q-35 0 -68.5 -11t-64.5 -27l-27 64q34 20 77.5 32t90.5 12zM281 260
q-83 -3 -117 -31t-34 -80q0 -46 23.5 -68t62.5 -22q58 0 95.5 39t37.5 115v50zM298 766q12 -22 31.5 -49t41.5 -53.5t40 -46.5v-11h-56q-24 17 -49.5 41t-50.5 50q-26 -26 -51 -50t-48 -41h-55v11q19 21 40 47.5t40.5 53t31.5 48.5h85z" />
    <glyph glyph-name="atilde" unicode="&#xe3;" horiz-adv-x="508" 
d="M261 546q89 0 130.5 -45t41.5 -137v-364h-63l-15 75h-3q-20 -28 -42 -47.5t-50.5 -28.5t-66.5 -9q-46 0 -80 19t-52.5 55t-18.5 85q0 80 56.5 124t170.5 48l80 3v33q0 65 -24.5 92t-71.5 27q-35 0 -68.5 -11t-64.5 -27l-27 64q34 20 77.5 32t90.5 12zM281 260
q-83 -3 -117 -31t-34 -80q0 -46 23.5 -68t62.5 -22q58 0 95.5 39t37.5 115v50zM87 606q3 27 10 50t19.5 40t30 26t40.5 9q21 0 40 -8.5t37 -20t34.5 -20t31.5 -8.5q20 0 31 15.5t17 42.5h50q-5 -58 -31 -91.5t-68 -33.5q-20 0 -39 8.5t-37.5 20t-34.5 20t-32 8.5
q-20 0 -31 -15t-17 -43h-51z" />
    <glyph glyph-name="adieresis" unicode="&#xe4;" horiz-adv-x="508" 
d="M261 546q89 0 130.5 -45t41.5 -137v-364h-63l-15 75h-3q-20 -28 -42 -47.5t-50.5 -28.5t-66.5 -9q-46 0 -80 19t-52.5 55t-18.5 85q0 80 56.5 124t170.5 48l80 3v33q0 65 -24.5 92t-71.5 27q-35 0 -68.5 -11t-64.5 -27l-27 64q34 20 77.5 32t90.5 12zM281 260
q-83 -3 -117 -31t-34 -80q0 -46 23.5 -68t62.5 -22q58 0 95.5 39t37.5 115v50zM122 676q0 26 13.5 38t31.5 12q19 0 32 -12t13 -38q0 -25 -13 -37.5t-32 -12.5q-18 0 -31.5 12.5t-13.5 37.5zM300 676q0 26 13.5 38t31.5 12q19 0 32.5 -12t13.5 -38q0 -25 -13.5 -37.5
t-32.5 -12.5t-32 12.5t-13 37.5z" />
    <glyph glyph-name="aring" unicode="&#xe5;" horiz-adv-x="508" 
d="M261 546q89 0 130.5 -45t41.5 -137v-364h-63l-15 75h-3q-20 -28 -42 -47.5t-50.5 -28.5t-66.5 -9q-46 0 -80 19t-52.5 55t-18.5 85q0 80 56.5 124t170.5 48l80 3v33q0 65 -24.5 92t-71.5 27q-35 0 -68.5 -11t-64.5 -27l-27 64q34 20 77.5 32t90.5 12zM281 260
q-83 -3 -117 -31t-34 -80q0 -46 23.5 -68t62.5 -22q58 0 95.5 39t37.5 115v50zM256 607q-49 0 -78.5 28t-29.5 76t29.5 75.5t78.5 27.5q46 0 77 -27t31 -75q0 -49 -30 -77t-78 -28zM256 657q24 0 39.5 14.5t15.5 39.5t-15 40t-40 15q-24 0 -39.5 -15t-15.5 -40t14 -39.5
t41 -14.5z" />
    <glyph glyph-name="ae" unicode="&#xe6;" horiz-adv-x="785" 
d="M545 546q61 0 104 -30.5t65.5 -84.5t22.5 -124v-55h-310q2 -96 37.5 -143t102.5 -47q43 0 78 9.5t70 27.5v-74q-36 -18 -71.5 -26.5t-80.5 -8.5q-42 0 -77.5 12.5t-63 37.5t-45.5 61q-21 -35 -46.5 -60t-58 -38t-77.5 -13q-46 0 -80.5 19t-53.5 55t-19 85q0 54 24 91
t73.5 58t121.5 23l79 3v34q0 63 -25.5 90.5t-71.5 27.5q-33 0 -66.5 -10.5t-65.5 -27.5l-27 64q33 19 76.5 31.5t89.5 12.5q55 0 91 -19.5t55 -62.5q24 40 62 61t87 21zM274 260q-79 -3 -111.5 -30.5t-32.5 -80.5q0 -46 22 -68t60 -22q37 0 66 17.5t45.5 51.5t16.5 85v50z
M544 476q-51 0 -81 -39.5t-35 -116.5h223q0 46 -11.5 81t-35 55t-60.5 20z" />
    <glyph glyph-name="ccedilla" unicode="&#xe7;" horiz-adv-x="431" 
d="M271 -10q-67 0 -116.5 29.5t-76.5 90.5t-27 155q0 95 28 157.5t78.5 93t118.5 30.5q37 0 70.5 -7.5t56.5 -19.5l-27 -71q-22 9 -49 16t-50 7q-47 0 -77.5 -23t-45.5 -68.5t-15 -113.5q0 -65 15 -110.5t45 -68.5t75 -23q36 0 65.5 8t55.5 21v-74q-25 -14 -55.5 -21.5
t-68.5 -7.5zM354 -138q0 -49 -35 -75.5t-102 -26.5q-16 0 -30 1.5t-22 3.5v55q9 -2 22.5 -3.5t26.5 -1.5q34 0 52 11t18 34q0 26 -24 39t-62 18l40 83h55l-25 -52q25 -5 44.5 -16t30.5 -28t11 -42z" />
    <glyph glyph-name="egrave" unicode="&#xe8;" horiz-adv-x="510" 
d="M264 546q64 0 108.5 -30.5t68 -84.5t23.5 -125v-54h-326q2 -93 40.5 -141t111.5 -48q42 0 77.5 9t73.5 28v-75q-36 -18 -73 -26.5t-84 -8.5q-73 0 -125.5 33t-80 94.5t-27.5 146.5q0 89 25.5 152t73.5 96.5t114 33.5zM263 476q-55 0 -86.5 -40t-37.5 -116h238
q0 45 -12 80t-37 55.5t-65 20.5zM236 766q11 -22 27 -49.5t34 -53.5t33 -45v-12h-57q-16 14 -36.5 33t-40.5 40.5t-36.5 42t-25.5 34.5v10h102z" />
    <glyph glyph-name="eacute" unicode="&#xe9;" horiz-adv-x="510" 
d="M264 546q64 0 108.5 -30.5t68 -84.5t23.5 -125v-54h-326q2 -93 40.5 -141t111.5 -48q42 0 77.5 9t73.5 28v-75q-36 -18 -73 -26.5t-84 -8.5q-73 0 -125.5 33t-80 94.5t-27.5 146.5q0 89 25.5 152t73.5 96.5t114 33.5zM263 476q-55 0 -86.5 -40t-37.5 -116h238
q0 45 -12 80t-37 55.5t-65 20.5zM400 756q-9 -14 -26 -34t-37 -41.5t-40 -41t-37 -33.5h-56v12q16 22 33.5 47.5t33 52t26.5 48.5h103v-10z" />
    <glyph glyph-name="ecircumflex" unicode="&#xea;" horiz-adv-x="510" 
d="M264 546q64 0 108.5 -30.5t68 -84.5t23.5 -125v-54h-326q2 -93 40.5 -141t111.5 -48q42 0 77.5 9t73.5 28v-75q-36 -18 -73 -26.5t-84 -8.5q-73 0 -125.5 33t-80 94.5t-27.5 146.5q0 89 25.5 152t73.5 96.5t114 33.5zM263 476q-55 0 -86.5 -40t-37.5 -116h238
q0 45 -12 80t-37 55.5t-65 20.5zM300 766q12 -22 31.5 -49t41.5 -53.5t40 -46.5v-11h-56q-24 17 -49.5 41t-50.5 50q-26 -26 -51 -50t-48 -41h-55v11q19 21 40 47.5t40.5 53t31.5 48.5h85z" />
    <glyph glyph-name="edieresis" unicode="&#xeb;" horiz-adv-x="510" 
d="M264 546q64 0 108.5 -30.5t68 -84.5t23.5 -125v-54h-326q2 -93 40.5 -141t111.5 -48q42 0 77.5 9t73.5 28v-75q-36 -18 -73 -26.5t-84 -8.5q-73 0 -125.5 33t-80 94.5t-27.5 146.5q0 89 25.5 152t73.5 96.5t114 33.5zM263 476q-55 0 -86.5 -40t-37.5 -116h238
q0 45 -12 80t-37 55.5t-65 20.5zM124 676q0 26 13.5 38t31.5 12q19 0 32 -12t13 -38q0 -25 -13 -37.5t-32 -12.5q-18 0 -31.5 12.5t-13.5 37.5zM302 676q0 26 13.5 38t31.5 12q19 0 32.5 -12t13.5 -38q0 -25 -13.5 -37.5t-32.5 -12.5t-32 12.5t-13 37.5z" />
    <glyph glyph-name="igrave" unicode="&#xec;" horiz-adv-x="241" 
d="M163 0h-85v536h85v-536zM98 766q11 -22 27 -49.5t34 -53.5t33 -45v-12h-57q-16 14 -36.5 33t-40.5 40.5t-36.5 42t-25.5 34.5v10h102z" />
    <glyph glyph-name="iacute" unicode="&#xed;" horiz-adv-x="241" 
d="M163 0h-85v536h85v-536zM262 756q-9 -14 -26 -34t-37 -41.5t-40 -41t-37 -33.5h-56v12q16 22 33.5 47.5t33 52t26.5 48.5h103v-10z" />
    <glyph glyph-name="icircumflex" unicode="&#xee;" horiz-adv-x="241" 
d="M163 0h-85v536h85v-536zM162 766q12 -22 31.5 -49t41.5 -53.5t40 -46.5v-11h-56q-24 17 -49.5 41t-50.5 50q-26 -26 -51 -50t-48 -41h-55v11q19 21 40 47.5t40.5 53t31.5 48.5h85z" />
    <glyph glyph-name="idieresis" unicode="&#xef;" horiz-adv-x="241" 
d="M163 0h-85v536h85v-536zM-14 676q0 26 13.5 38t31.5 12q19 0 32 -12t13 -38q0 -25 -13 -37.5t-32 -12.5q-18 0 -31.5 12.5t-13.5 37.5zM164 676q0 26 13.5 38t31.5 12q19 0 32.5 -12t13.5 -38q0 -25 -13.5 -37.5t-32.5 -12.5t-32 12.5t-13 37.5z" />
    <glyph glyph-name="eth" unicode="&#xf0;" horiz-adv-x="547" 
d="M195 764q27 -13 54.5 -29.5t52.5 -36.5l103 63l36 -51l-91 -54q45 -45 78 -103t51 -129t18 -155q0 -92 -26.5 -154.5t-77 -93.5t-121.5 -31q-67 0 -117 31t-77.5 85.5t-27.5 126.5q0 76 26 129.5t73 82t111 28.5q30 0 55 -5.5t45 -17t34 -30.5l4 2q-14 56 -44 104.5
t-69 88.5l-111 -66l-35 51l97 58q-18 14 -37.5 26.5t-39.5 24.5zM274 402q-47 0 -77.5 -19.5t-45 -58t-14.5 -94.5q0 -48 14 -86.5t45 -60.5t78 -22q72 0 104.5 47t32.5 138q0 32 -8 60.5t-25.5 50t-42.5 33.5t-61 12z" />
    <glyph glyph-name="ntilde" unicode="&#xf1;" 
d="M313 546q85 0 128 -46t43 -146v-354h-85v345q0 64 -24 96t-77 32q-75 0 -105 -48.5t-30 -146.5v-278h-85v536h68l12 -73h5q16 28 39 46.5t52 27.5t59 9zM112 606q3 27 10 50t19.5 40t30 26t40.5 9q21 0 40 -8.5t37 -20t34.5 -20t31.5 -8.5q20 0 31 15.5t17 42.5h50
q-5 -58 -31 -91.5t-68 -33.5q-20 0 -39 8.5t-37.5 20t-34.5 20t-32 8.5q-20 0 -31 -15t-17 -43h-51z" />
    <glyph glyph-name="ograve" unicode="&#xf2;" horiz-adv-x="546" 
d="M497 269q0 -66 -15 -117t-44 -87.5t-71 -55.5t-95 -19q-50 0 -91 19t-70 55t-45 87.5t-16 117.5q0 89 26.5 150.5t76.5 94t121 32.5q67 0 117 -32t78 -93.5t28 -151.5zM138 269q0 -65 14.5 -111.5t44.5 -71t77 -24.5q46 0 76 24.5t44.5 71t14.5 111.5q0 66 -14.5 111.5
t-44.5 69t-77 23.5q-71 0 -103 -53t-32 -151zM252 766q11 -22 27 -49.5t34 -53.5t33 -45v-12h-57q-16 14 -36.5 33t-40.5 40.5t-36.5 42t-25.5 34.5v10h102z" />
    <glyph glyph-name="oacute" unicode="&#xf3;" horiz-adv-x="546" 
d="M497 269q0 -66 -15 -117t-44 -87.5t-71 -55.5t-95 -19q-50 0 -91 19t-70 55t-45 87.5t-16 117.5q0 89 26.5 150.5t76.5 94t121 32.5q67 0 117 -32t78 -93.5t28 -151.5zM138 269q0 -65 14.5 -111.5t44.5 -71t77 -24.5q46 0 76 24.5t44.5 71t14.5 111.5q0 66 -14.5 111.5
t-44.5 69t-77 23.5q-71 0 -103 -53t-32 -151zM415 756q-9 -14 -26 -34t-37 -41.5t-40 -41t-37 -33.5h-56v12q16 22 33.5 47.5t33 52t26.5 48.5h103v-10z" />
    <glyph glyph-name="ocircumflex" unicode="&#xf4;" horiz-adv-x="546" 
d="M497 269q0 -66 -15 -117t-44 -87.5t-71 -55.5t-95 -19q-50 0 -91 19t-70 55t-45 87.5t-16 117.5q0 89 26.5 150.5t76.5 94t121 32.5q67 0 117 -32t78 -93.5t28 -151.5zM138 269q0 -65 14.5 -111.5t44.5 -71t77 -24.5q46 0 76 24.5t44.5 71t14.5 111.5q0 66 -14.5 111.5
t-44.5 69t-77 23.5q-71 0 -103 -53t-32 -151zM315 766q12 -22 31.5 -49t41.5 -53.5t40 -46.5v-11h-56q-24 17 -49.5 41t-50.5 50q-26 -26 -51 -50t-48 -41h-55v11q19 21 40 47.5t40.5 53t31.5 48.5h85z" />
    <glyph glyph-name="otilde" unicode="&#xf5;" horiz-adv-x="546" 
d="M497 269q0 -66 -15 -117t-44 -87.5t-71 -55.5t-95 -19q-50 0 -91 19t-70 55t-45 87.5t-16 117.5q0 89 26.5 150.5t76.5 94t121 32.5q67 0 117 -32t78 -93.5t28 -151.5zM138 269q0 -65 14.5 -111.5t44.5 -71t77 -24.5q46 0 76 24.5t44.5 71t14.5 111.5q0 66 -14.5 111.5
t-44.5 69t-77 23.5q-71 0 -103 -53t-32 -151zM104 606q3 27 10 50t19.5 40t30 26t40.5 9q21 0 40 -8.5t37 -20t34.5 -20t31.5 -8.5q20 0 31 15.5t17 42.5h50q-5 -58 -31 -91.5t-68 -33.5q-20 0 -39 8.5t-37.5 20t-34.5 20t-32 8.5q-20 0 -31 -15t-17 -43h-51z" />
    <glyph glyph-name="odieresis" unicode="&#xf6;" horiz-adv-x="546" 
d="M497 269q0 -66 -15 -117t-44 -87.5t-71 -55.5t-95 -19q-50 0 -91 19t-70 55t-45 87.5t-16 117.5q0 89 26.5 150.5t76.5 94t121 32.5q67 0 117 -32t78 -93.5t28 -151.5zM138 269q0 -65 14.5 -111.5t44.5 -71t77 -24.5q46 0 76 24.5t44.5 71t14.5 111.5q0 66 -14.5 111.5
t-44.5 69t-77 23.5q-71 0 -103 -53t-32 -151zM139 676q0 26 13.5 38t31.5 12q19 0 32 -12t13 -38q0 -25 -13 -37.5t-32 -12.5q-18 0 -31.5 12.5t-13.5 37.5zM317 676q0 26 13.5 38t31.5 12q19 0 32.5 -12t13.5 -38q0 -25 -13.5 -37.5t-32.5 -12.5t-32 12.5t-13 37.5z" />
    <glyph glyph-name="divide" unicode="&#xf7;" horiz-adv-x="520" 
d="M43 318v70h433v-70h-433zM260 118q-24 0 -39 14.5t-15 46.5q0 33 15 47t39 14q23 0 38 -14t15 -47q0 -32 -15.5 -46.5t-37.5 -14.5zM260 465q-24 0 -39 14.5t-15 46.5q0 33 15 47t39 14q23 0 38 -14t15 -47q0 -32 -15.5 -46.5t-37.5 -14.5z" />
    <glyph glyph-name="oslash" unicode="&#xf8;" horiz-adv-x="546" 
d="M496 269q0 -89 -27 -151.5t-77 -95t-121 -32.5q-33 0 -61.5 8t-52.5 24l-40 -67l-55 33l47 77q-29 37 -44 88t-15 116q0 134 59.5 205.5t164.5 71.5q34 0 63 -9t54 -26l38 62l56 -33l-45 -73q26 -36 41 -86t15 -112zM137 269q0 -39 5 -71t16 -56l194 305q-15 13 -35.5 20
t-43.5 7q-71 0 -103.5 -53t-32.5 -152zM410 269q0 37 -5 67t-14 53l-194 -303q15 -12 34.5 -18.5t41.5 -6.5q47 0 77.5 24.5t45 71t14.5 112.5z" />
    <glyph glyph-name="ugrave" unicode="&#xf9;" 
d="M481 536v-536h-69l-12 71h-5q-15 -27 -38.5 -45t-51.5 -27t-60 -9q-58 0 -96 22t-57 65.5t-19 108.5v350h86v-341q0 -67 24.5 -99.5t75.5 -32.5t81 22t43 64.5t13 105.5v281h85zM258 766q11 -22 27 -49.5t34 -53.5t33 -45v-12h-57q-16 14 -36.5 33t-40.5 40.5t-36.5 42
t-25.5 34.5v10h102z" />
    <glyph glyph-name="uacute" unicode="&#xfa;" 
d="M481 536v-536h-69l-12 71h-5q-15 -27 -38.5 -45t-51.5 -27t-60 -9q-58 0 -96 22t-57 65.5t-19 108.5v350h86v-341q0 -67 24.5 -99.5t75.5 -32.5t81 22t43 64.5t13 105.5v281h85zM422 756q-9 -14 -26 -34t-37 -41.5t-40 -41t-37 -33.5h-56v12q16 22 33.5 47.5t33 52
t26.5 48.5h103v-10z" />
    <glyph glyph-name="ucircumflex" unicode="&#xfb;" 
d="M481 536v-536h-69l-12 71h-5q-15 -27 -38.5 -45t-51.5 -27t-60 -9q-58 0 -96 22t-57 65.5t-19 108.5v350h86v-341q0 -67 24.5 -99.5t75.5 -32.5t81 22t43 64.5t13 105.5v281h85zM322 766q12 -22 31.5 -49t41.5 -53.5t40 -46.5v-11h-56q-24 17 -49.5 41t-50.5 50
q-26 -26 -51 -50t-48 -41h-55v11q19 21 40 47.5t40.5 53t31.5 48.5h85z" />
    <glyph glyph-name="udieresis" unicode="&#xfc;" 
d="M481 536v-536h-69l-12 71h-5q-15 -27 -38.5 -45t-51.5 -27t-60 -9q-58 0 -96 22t-57 65.5t-19 108.5v350h86v-341q0 -67 24.5 -99.5t75.5 -32.5t81 22t43 64.5t13 105.5v281h85zM146 676q0 26 13.5 38t31.5 12q19 0 32 -12t13 -38q0 -25 -13 -37.5t-32 -12.5
q-18 0 -31.5 12.5t-13.5 37.5zM324 676q0 26 13.5 38t31.5 12q19 0 32.5 -12t13.5 -38q0 -25 -13.5 -37.5t-32.5 -12.5t-32 12.5t-13 37.5z" />
    <glyph glyph-name="yacute" unicode="&#xfd;" horiz-adv-x="459" 
d="M2 536h90l101 -304q7 -24 14 -47.5t13 -46t10 -43.5h4q5 26 15.5 62.5t22.5 74.5l95 304h90l-204 -613q-18 -51 -41 -88t-56 -56t-79 -19q-20 0 -36 2.5t-29 5.5v71q11 -3 24.5 -5t27.5 -2q27 0 46 11t32.5 33t24.5 54l24 70zM371 756q-9 -14 -26 -34t-37 -41.5t-40 -41
t-37 -33.5h-56v12q16 22 33.5 47.5t33 52t26.5 48.5h103v-10z" />
    <glyph glyph-name="thorn" unicode="&#xfe;" 
d="M509 269q0 -90 -24 -152.5t-68 -94.5t-103 -32q-37 0 -65.5 10t-49.5 28.5t-36 40.5h-5q1 -9 2 -24l2 -30t1 -25v-230h-85v1000h85v-221q0 -16 -1 -37.5t-2 -37.5h4q15 25 36 43.5t48.5 28.5t63.5 10q91 0 144 -70t53 -207zM421 269q0 104 -30 154t-95 50
q-71 0 -101.5 -46t-31.5 -140v-19q0 -102 29.5 -154t104.5 -52q44 0 71.5 26t40 72.5t12.5 108.5z" />
    <glyph glyph-name="ydieresis" unicode="&#xff;" horiz-adv-x="459" 
d="M2 536h90l101 -304q7 -24 14 -47.5t13 -46t10 -43.5h4q5 26 15.5 62.5t22.5 74.5l95 304h90l-204 -613q-18 -51 -41 -88t-56 -56t-79 -19q-20 0 -36 2.5t-29 5.5v71q11 -3 24.5 -5t27.5 -2q27 0 46 11t32.5 33t24.5 54l24 70zM95 676q0 26 13.5 38t31.5 12q19 0 32 -12
t13 -38q0 -25 -13 -37.5t-32 -12.5q-18 0 -31.5 12.5t-13.5 37.5zM273 676q0 26 13.5 38t31.5 12q19 0 32.5 -12t13.5 -38q0 -25 -13.5 -37.5t-32.5 -12.5t-32 12.5t-13 37.5z" />
    <glyph glyph-name="Amacron" unicode="&#x100;" horiz-adv-x="570" 
d="M478 0l-74 222h-240l-73 -222h-91l240 716h88l241 -716h-91zM311 524q-3 12 -8.5 31.5t-11 40t-8.5 33.5q-3 -18 -7.5 -37t-9.5 -36.5l-9 -31.5l-70 -223h194zM421 855v-68h-277v68h277z" />
    <glyph glyph-name="amacron" unicode="&#x101;" horiz-adv-x="508" 
d="M261 546q89 0 130.5 -45t41.5 -137v-364h-63l-15 75h-3q-20 -28 -42 -47.5t-50.5 -28.5t-66.5 -9q-46 0 -80 19t-52.5 55t-18.5 85q0 80 56.5 124t170.5 48l80 3v33q0 65 -24.5 92t-71.5 27q-35 0 -68.5 -11t-64.5 -27l-27 64q34 20 77.5 32t90.5 12zM281 260
q-83 -3 -117 -31t-34 -80q0 -46 23.5 -68t62.5 -22q58 0 95.5 39t37.5 115v50zM394 677v-68h-277v68h277z" />
    <glyph glyph-name="Abreve" unicode="&#x102;" horiz-adv-x="570" 
d="M478 0l-74 222h-240l-73 -222h-91l240 716h88l241 -716h-91zM311 524q-3 12 -8.5 31.5t-11 40t-8.5 33.5q-3 -18 -7.5 -37t-9.5 -36.5l-9 -31.5l-70 -223h194zM426 918q-1 -40 -19.5 -70t-50 -47t-75.5 -17q-67 0 -102.5 35.5t-38.5 98.5h54q4 -39 26 -52.5t63 -13.5
q36 0 60.5 14t29.5 52h53z" />
    <glyph glyph-name="abreve" unicode="&#x103;" horiz-adv-x="508" 
d="M261 546q89 0 130.5 -45t41.5 -137v-364h-63l-15 75h-3q-20 -28 -42 -47.5t-50.5 -28.5t-66.5 -9q-46 0 -80 19t-52.5 55t-18.5 85q0 80 56.5 124t170.5 48l80 3v33q0 65 -24.5 92t-71.5 27q-35 0 -68.5 -11t-64.5 -27l-27 64q34 20 77.5 32t90.5 12zM281 260
q-83 -3 -117 -31t-34 -80q0 -46 23.5 -68t62.5 -22q58 0 95.5 39t37.5 115v50zM399 740q-1 -40 -19.5 -70t-50 -47t-75.5 -17q-67 0 -102.5 35.5t-38.5 98.5h54q4 -39 26 -52.5t63 -13.5q36 0 60.5 14t29.5 52h53z" />
    <glyph glyph-name="Aogonek" unicode="&#x104;" horiz-adv-x="570" 
d="M478 0l-74 222h-240l-73 -222h-91l240 716h88l241 -716h-91zM311 524q-3 12 -8.5 31.5t-11 40t-8.5 33.5q-3 -18 -7.5 -37t-9.5 -36.5l-9 -31.5l-70 -223h194zM477 -116q0 -23 12 -35t33 -12q15 0 25 2.5t17 3.5v-56q-12 -4 -25 -6t-32 -2q-51 0 -75.5 24t-24.5 69
q0 28 12.5 54t33 49t42.5 39l47 -14q-34 -33 -49.5 -59.5t-15.5 -56.5z" />
    <glyph glyph-name="aogonek" unicode="&#x105;" horiz-adv-x="508" 
d="M261 546q89 0 130.5 -45t41.5 -137v-364h-63l-15 75h-3q-20 -28 -42 -47.5t-50.5 -28.5t-66.5 -9q-46 0 -80 19t-52.5 55t-18.5 85q0 80 56.5 124t170.5 48l80 3v33q0 65 -24.5 92t-71.5 27q-35 0 -68.5 -11t-64.5 -27l-27 64q34 20 77.5 32t90.5 12zM281 260
q-83 -3 -117 -31t-34 -80q0 -46 23.5 -68t62.5 -22q58 0 95.5 39t37.5 115v50zM366 -116q0 -23 12 -35t33 -12q15 0 25 2.5t17 3.5v-56q-12 -4 -25 -6t-32 -2q-51 0 -75.5 24t-24.5 69q0 28 12.5 54t33 49t42.5 39l47 -14q-34 -33 -49.5 -59.5t-15.5 -56.5z" />
    <glyph glyph-name="Cacute" unicode="&#x106;" horiz-adv-x="564" 
d="M362 646q-51 0 -91 -20.5t-67 -59.5t-41 -92t-14 -117q0 -89 24.5 -154t72.5 -100t118 -35q40 0 76.5 8t70.5 20v-78q-34 -14 -71.5 -21t-87.5 -7q-96 0 -162 44.5t-99.5 127.5t-33.5 196q0 79 19.5 146t58 116.5t95.5 76.5t132 27q48 0 92.5 -10t80.5 -29l-33 -75
q-29 15 -64 25.5t-76 10.5zM484 934q-9 -14 -26 -34t-37 -41.5t-40 -41t-37 -33.5h-56v12q16 22 33.5 47.5t33 52t26.5 48.5h103v-10z" />
    <glyph glyph-name="cacute" unicode="&#x107;" horiz-adv-x="431" 
d="M271 -10q-67 0 -116.5 29.5t-76.5 90.5t-27 155q0 95 28 157.5t78.5 93t118.5 30.5q37 0 70.5 -7.5t56.5 -19.5l-27 -71q-22 9 -49 16t-50 7q-47 0 -77.5 -23t-45.5 -68.5t-15 -113.5q0 -65 15 -110.5t45 -68.5t75 -23q36 0 65.5 8t55.5 21v-74q-25 -14 -55.5 -21.5
t-68.5 -7.5zM398 756q-9 -14 -26 -34t-37 -41.5t-40 -41t-37 -33.5h-56v12q16 22 33.5 47.5t33 52t26.5 48.5h103v-10z" />
    <glyph glyph-name="Cdotaccent" unicode="&#x10a;" horiz-adv-x="564" 
d="M362 646q-51 0 -91 -20.5t-67 -59.5t-41 -92t-14 -117q0 -89 24.5 -154t72.5 -100t118 -35q40 0 76.5 8t70.5 20v-78q-34 -14 -71.5 -21t-87.5 -7q-96 0 -162 44.5t-99.5 127.5t-33.5 196q0 79 19.5 146t58 116.5t95.5 76.5t132 27q48 0 92.5 -10t80.5 -29l-33 -75
q-29 15 -64 25.5t-76 10.5zM344 916q21 0 35 -14t14 -43q0 -28 -14 -42t-35 -14q-22 0 -36.5 14t-14.5 42q0 29 14 43t37 14z" />
    <glyph glyph-name="cdotaccent" unicode="&#x10b;" horiz-adv-x="431" 
d="M271 -10q-67 0 -116.5 29.5t-76.5 90.5t-27 155q0 95 28 157.5t78.5 93t118.5 30.5q37 0 70.5 -7.5t56.5 -19.5l-27 -71q-22 9 -49 16t-50 7q-47 0 -77.5 -23t-45.5 -68.5t-15 -113.5q0 -65 15 -110.5t45 -68.5t75 -23q36 0 65.5 8t55.5 21v-74q-25 -14 -55.5 -21.5
t-68.5 -7.5zM258 738q21 0 35 -14t14 -43q0 -28 -14 -42t-35 -14q-22 0 -36.5 14t-14.5 42q0 29 14 43t37 14z" />
    <glyph glyph-name="Ccaron" unicode="&#x10c;" horiz-adv-x="564" 
d="M362 646q-51 0 -91 -20.5t-67 -59.5t-41 -92t-14 -117q0 -89 24.5 -154t72.5 -100t118 -35q40 0 76.5 8t70.5 20v-78q-34 -14 -71.5 -21t-87.5 -7q-96 0 -162 44.5t-99.5 127.5t-33.5 196q0 79 19.5 146t58 116.5t95.5 76.5t132 27q48 0 92.5 -10t80.5 -29l-33 -75
q-29 15 -64 25.5t-76 10.5zM299 784q-12 23 -31.5 49t-41 52.5t-39.5 46.5v12h55q23 -17 49 -41.5t50 -51.5q26 28 50.5 50.5t49.5 42.5h56v-12q-17 -19 -39 -45.5t-42 -53t-32 -49.5h-85z" />
    <glyph glyph-name="ccaron" unicode="&#x10d;" horiz-adv-x="431" 
d="M271 -10q-67 0 -116.5 29.5t-76.5 90.5t-27 155q0 95 28 157.5t78.5 93t118.5 30.5q37 0 70.5 -7.5t56.5 -19.5l-27 -71q-22 9 -49 16t-50 7q-47 0 -77.5 -23t-45.5 -68.5t-15 -113.5q0 -65 15 -110.5t45 -68.5t75 -23q36 0 65.5 8t55.5 21v-74q-25 -14 -55.5 -21.5
t-68.5 -7.5zM213 606q-12 23 -31.5 49t-41 52.5t-39.5 46.5v12h55q23 -17 49 -41.5t50 -51.5q26 28 50.5 50.5t49.5 42.5h56v-12q-17 -19 -39 -45.5t-42 -53t-32 -49.5h-85z" />
    <glyph glyph-name="Dcaron" unicode="&#x10e;" horiz-adv-x="652" 
d="M595 365q0 -120 -38.5 -201.5t-111.5 -122.5t-178 -41h-179v714h195q97 0 167 -40t107.5 -117.5t37.5 -191.5zM503 361q0 94 -27 155.5t-78 91.5t-125 30h-97v-562h82q124 0 184.5 72t60.5 213zM278 784q-12 23 -31.5 49t-41 52.5t-39.5 46.5v12h55q23 -17 49 -41.5
t50 -51.5q26 28 50.5 50.5t49.5 42.5h56v-12q-17 -19 -39 -45.5t-42 -53t-32 -49.5h-85z" />
    <glyph glyph-name="dcaron" unicode="&#x10f;" 
d="M247 -10q-91 0 -144 70t-53 207t53 208t144 71q35 0 63 -10t49.5 -27.5t36.5 -41.5h5q-1 17 -3 39.5t-2 38.5v215h86v-760h-69l-12 71h-5q-15 -24 -36 -42t-49 -28.5t-64 -10.5zM263 62q72 0 103 46t31 140v21q0 101 -30 153t-105 52q-63 0 -93.5 -55.5t-30.5 -152.5
q0 -98 31 -151t94 -53zM637 751q-4 -19 -15.5 -47t-25.5 -56t-28 -48h-46v12q3 11 7.5 30.5t9 41t7.5 41.5t4 35h87v-9z" />
    <glyph glyph-name="Dcroat" unicode="&#x110;" horiz-adv-x="652" 
d="M282 714q97 0 167 -40t108 -117t38 -192q0 -120 -39 -201.5t-112 -122.5t-178 -41h-174v321h-65v74h65v319h190zM273 638h-93v-243h149v-74h-149v-245h78q124 0 184.5 72t60.5 213q0 94 -27 155.5t-78 91.5t-125 30z" />
    <glyph glyph-name="dcroat" unicode="&#x111;" horiz-adv-x="560" 
d="M247 -10q-91 0 -144 70t-53 205q0 137 53 207t143 70q36 0 64 -10t49.5 -28t36.5 -41h5q-2 16 -3.5 39t-1.5 39v65h-176v65h176v89h86v-89h69v-65h-69v-606h-70l-12 71h-5q-15 -24 -36 -42.5t-48.5 -28.5t-63.5 -10zM264 62q71 0 102 46t31 141v18q0 101 -30 151.5
t-105 50.5q-63 0 -93 -54t-30 -151q0 -98 30.5 -150t94.5 -52z" />
    <glyph glyph-name="Emacron" unicode="&#x112;" horiz-adv-x="500" 
d="M445 0h-357v714h357v-78h-269v-225h253v-77h-253v-256h269v-78zM410 855v-68h-277v68h277z" />
    <glyph glyph-name="emacron" unicode="&#x113;" horiz-adv-x="510" 
d="M264 546q64 0 108.5 -30.5t68 -84.5t23.5 -125v-54h-326q2 -93 40.5 -141t111.5 -48q42 0 77.5 9t73.5 28v-75q-36 -18 -73 -26.5t-84 -8.5q-73 0 -125.5 33t-80 94.5t-27.5 146.5q0 89 25.5 152t73.5 96.5t114 33.5zM263 476q-55 0 -86.5 -40t-37.5 -116h238
q0 45 -12 80t-37 55.5t-65 20.5zM396 677v-68h-277v68h277z" />
    <glyph glyph-name="Edotaccent" unicode="&#x116;" horiz-adv-x="500" 
d="M445 0h-357v714h357v-78h-269v-225h253v-77h-253v-256h269v-78zM274 916q21 0 35 -14t14 -43q0 -28 -14 -42t-35 -14q-22 0 -36.5 14t-14.5 42q0 29 14 43t37 14z" />
    <glyph glyph-name="edotaccent" unicode="&#x117;" horiz-adv-x="510" 
d="M264 546q64 0 108.5 -30.5t68 -84.5t23.5 -125v-54h-326q2 -93 40.5 -141t111.5 -48q42 0 77.5 9t73.5 28v-75q-36 -18 -73 -26.5t-84 -8.5q-73 0 -125.5 33t-80 94.5t-27.5 146.5q0 89 25.5 152t73.5 96.5t114 33.5zM263 476q-55 0 -86.5 -40t-37.5 -116h238
q0 45 -12 80t-37 55.5t-65 20.5zM260 738q21 0 35 -14t14 -43q0 -28 -14 -42t-35 -14q-22 0 -36.5 14t-14.5 42q0 29 14 43t37 14z" />
    <glyph glyph-name="Eogonek" unicode="&#x118;" horiz-adv-x="500" 
d="M445 0h-357v714h357v-78h-269v-225h253v-77h-253v-256h269v-78zM352 -116q0 -23 12 -35t33 -12q15 0 25 2.5t17 3.5v-56q-12 -4 -25 -6t-32 -2q-51 0 -75.5 24t-24.5 69q0 28 12.5 54t33 49t42.5 39l47 -14q-34 -33 -49.5 -59.5t-15.5 -56.5z" />
    <glyph glyph-name="eogonek" unicode="&#x119;" horiz-adv-x="510" 
d="M348 -116q0 -23 12 -34.5t33 -11.5q14 0 24.5 2.5t17.5 3.5v-56q-12 -4 -26 -6.5t-32 -2.5q-51 0 -75 24.5t-24 69.5q0 27 12.5 53t32 47.5t40.5 36.5l78 15q-35 -30 -55.5 -54.5t-29 -45.5t-8.5 -41zM264 546q64 0 108.5 -30.5t68 -84.5t23.5 -125v-54h-326
q2 -93 40.5 -141t111.5 -48q42 0 77.5 9t73.5 28v-75q-36 -18 -73 -26.5t-84 -8.5q-73 0 -125.5 33t-80 94.5t-27.5 146.5q0 89 25.5 152t73.5 96.5t114 33.5zM263 476q-55 0 -86.5 -40t-37.5 -116h238q0 45 -12 80t-37 55.5t-65 20.5z" />
    <glyph glyph-name="Ecaron" unicode="&#x11a;" horiz-adv-x="500" 
d="M445 0h-357v714h357v-78h-269v-225h253v-77h-253v-256h269v-78zM229 784q-12 23 -31.5 49t-41 52.5t-39.5 46.5v12h55q23 -17 49 -41.5t50 -51.5q26 28 50.5 50.5t49.5 42.5h56v-12q-17 -19 -39 -45.5t-42 -53t-32 -49.5h-85z" />
    <glyph glyph-name="ecaron" unicode="&#x11b;" horiz-adv-x="510" 
d="M264 546q64 0 108.5 -30.5t68 -84.5t23.5 -125v-54h-326q2 -93 40.5 -141t111.5 -48q42 0 77.5 9t73.5 28v-75q-36 -18 -73 -26.5t-84 -8.5q-73 0 -125.5 33t-80 94.5t-27.5 146.5q0 89 25.5 152t73.5 96.5t114 33.5zM263 476q-55 0 -86.5 -40t-37.5 -116h238
q0 45 -12 80t-37 55.5t-65 20.5zM215 606q-12 23 -31.5 49t-41 52.5t-39.5 46.5v12h55q23 -17 49 -41.5t50 -51.5q26 28 50.5 50.5t49.5 42.5h56v-12q-17 -19 -39 -45.5t-42 -53t-32 -49.5h-85z" />
    <glyph glyph-name="Gbreve" unicode="&#x11e;" horiz-adv-x="661" 
d="M371 377h223v-351q-53 -18 -107.5 -27t-119.5 -9q-102 0 -171 46t-104 129t-35 193t38.5 192t113 128t181.5 46q55 0 104 -11t91 -32l-33 -76q-36 19 -78 30t-86 11q-76 0 -129.5 -34t-81.5 -99t-28 -156q0 -84 23.5 -149.5t75 -103t135.5 -37.5q40 0 69.5 5t54.5 12v215
h-136v78zM512 918q-1 -40 -19.5 -70t-50 -47t-75.5 -17q-67 0 -102.5 35.5t-38.5 98.5h54q4 -39 26 -52.5t63 -13.5q36 0 60.5 14t29.5 52h53z" />
    <glyph glyph-name="gbreve" unicode="&#x11f;" 
d="M247 546q48 0 85 -19.5t64 -61.5h5l11 71h70v-544q0 -75 -24.5 -127t-74.5 -78.5t-128 -26.5q-50 0 -92 8t-77 25v79q37 -19 80.5 -29t91.5 -10q66 0 102.5 37.5t36.5 110.5v19q0 14 1 36t2 36h-4q-26 -41 -62.5 -61.5t-86.5 -20.5q-93 0 -145 72t-52 205
q0 132 52.5 205.5t144.5 73.5zM261 473q-40 0 -67.5 -24t-41.5 -70t-14 -113q0 -102 31.5 -153t93.5 -51q35 0 60 10.5t41.5 33.5t24.5 57.5t8 82.5v22q0 72 -14 117.5t-44.5 66.5t-77.5 21zM418 740q-1 -40 -19.5 -70t-50 -47t-75.5 -17q-67 0 -102.5 35.5t-38.5 98.5h54
q4 -39 26 -52.5t63 -13.5q36 0 60.5 14t29.5 52h53z" />
    <glyph glyph-name="Gdotaccent" unicode="&#x120;" horiz-adv-x="661" 
d="M371 377h223v-351q-53 -18 -107.5 -27t-119.5 -9q-102 0 -171 46t-104 129t-35 193t38.5 192t113 128t181.5 46q55 0 104 -11t91 -32l-33 -76q-36 19 -78 30t-86 11q-76 0 -129.5 -34t-81.5 -99t-28 -156q0 -84 23.5 -149.5t75 -103t135.5 -37.5q40 0 69.5 5t54.5 12v215
h-136v78zM371 916q21 0 35 -14t14 -43q0 -28 -14 -42t-35 -14q-22 0 -36.5 14t-14.5 42q0 29 14 43t37 14z" />
    <glyph glyph-name="gdotaccent" unicode="&#x121;" 
d="M247 546q48 0 85 -19.5t64 -61.5h5l11 71h70v-544q0 -75 -24.5 -127t-74.5 -78.5t-128 -26.5q-50 0 -92 8t-77 25v79q37 -19 80.5 -29t91.5 -10q66 0 102.5 37.5t36.5 110.5v19q0 14 1 36t2 36h-4q-26 -41 -62.5 -61.5t-86.5 -20.5q-93 0 -145 72t-52 205
q0 132 52.5 205.5t144.5 73.5zM261 473q-40 0 -67.5 -24t-41.5 -70t-14 -113q0 -102 31.5 -153t93.5 -51q35 0 60 10.5t41.5 33.5t24.5 57.5t8 82.5v22q0 72 -14 117.5t-44.5 66.5t-77.5 21zM277 738q21 0 35 -14t14 -43q0 -28 -14 -42t-35 -14q-22 0 -36.5 14t-14.5 42
q0 29 14 43t37 14z" />
    <glyph glyph-name="uni0122" unicode="&#x122;" horiz-adv-x="661" 
d="M371 377h223v-351q-53 -18 -107.5 -27t-119.5 -9q-102 0 -171 46t-104 129t-35 193t38.5 192t113 128t181.5 46q55 0 104 -11t91 -32l-33 -76q-36 19 -78 30t-86 11q-76 0 -129.5 -34t-81.5 -99t-28 -156q0 -84 23.5 -149.5t75 -103t135.5 -37.5q40 0 69.5 5t54.5 12v215
h-136v78zM429 -70q-5 -21 -17 -48.5t-27 -54.5t-32 -48h-47v12q7 17 15 44t14.5 55t8.5 49h85v-9z" />
    <glyph glyph-name="uni0123" unicode="&#x123;" 
d="M247 546q48 0 85 -19.5t64 -61.5h5l11 71h70v-544q0 -75 -24.5 -127t-74.5 -78.5t-128 -26.5q-50 0 -92 8t-77 25v79q37 -19 80.5 -29t91.5 -10q66 0 102.5 37.5t36.5 110.5v19q0 14 1 36t2 36h-4q-26 -41 -62.5 -61.5t-86.5 -20.5q-93 0 -145 72t-52 205
q0 132 52.5 205.5t144.5 73.5zM261 473q-40 0 -67.5 -24t-41.5 -70t-14 -113q0 -102 31.5 -153t93.5 -51q35 0 60 10.5t41.5 33.5t24.5 57.5t8 82.5v22q0 72 -14 117.5t-44.5 66.5t-77.5 21zM337 754q-8 -17 -16.5 -44t-15.5 -55t-9 -49h-85v9q5 21 16.5 48t27.5 54.5
t33 48.5h49v-12z" />
    <glyph glyph-name="Hbar" unicode="&#x126;" horiz-adv-x="665" 
d="M88 0v526h-89v69h89v119h88v-119h312v119h88v-119h88v-69h-88v-526h-88v333h-312v-333h-88zM176 412h312v114h-312v-114z" />
    <glyph glyph-name="hbar" unicode="&#x127;" 
d="M163 760v-90h177v-65h-177v-84q0 -18 -1.5 -37t-3.5 -36h6q14 28 37 46t51.5 27.5t59.5 9.5q58 0 96 -20.5t57 -63t19 -108.5v-339h-85v330q0 65 -24 96t-77 31q-50 0 -79.5 -21.5t-42.5 -64t-13 -108.5v-263h-85v605h-70v65h70v90h85z" />
    <glyph glyph-name="Imacron" unicode="&#x12a;" horiz-adv-x="318" 
d="M280 0h-242v51l77 18v576l-77 18v51h242v-51l-77 -18v-576l77 -18v-51zM297 855v-68h-277v68h277z" />
    <glyph glyph-name="imacron" unicode="&#x12b;" horiz-adv-x="241" 
d="M163 0h-85v536h85v-536zM258 677v-68h-277v68h277z" />
    <glyph glyph-name="Iogonek" unicode="&#x12e;" horiz-adv-x="318" 
d="M280 0h-242v51l77 18v576l-77 18v51h242v-51l-77 -18v-576l77 -18v-51zM189 -116q0 -23 12 -35t33 -12q15 0 25 2.5t17 3.5v-56q-12 -4 -25 -6t-32 -2q-51 0 -75.5 24t-24.5 69q0 28 12.5 54t33 49t42.5 39l47 -14q-34 -33 -49.5 -59.5t-15.5 -56.5z" />
    <glyph glyph-name="iogonek" unicode="&#x12f;" horiz-adv-x="241" 
d="M163 536v-536h-85v536h85zM122 738q21 0 35 -14t14 -43q0 -28 -14 -42t-35 -14q-22 0 -36.5 14t-14.5 42q0 29 14 43t37 14zM92 -116q0 -23 12 -35t33 -12q15 0 25 2.5t17 3.5v-56q-12 -4 -25 -6t-32 -2q-51 0 -75.5 24t-24.5 69q0 28 12.5 54t33 49t42.5 39l47 -14
q-34 -33 -49.5 -59.5t-15.5 -56.5z" />
    <glyph glyph-name="Idotaccent" unicode="&#x130;" horiz-adv-x="318" 
d="M280 0h-242v51l77 18v576l-77 18v51h242v-51l-77 -18v-576l77 -18v-51zM161 916q21 0 35 -14t14 -43q0 -28 -14 -42t-35 -14q-22 0 -36.5 14t-14.5 42q0 29 14 43t37 14z" />
    <glyph glyph-name="dotlessi" unicode="&#x131;" horiz-adv-x="241" 
d="M163 0h-85v536h85v-536z" />
    <glyph glyph-name="uni0136" unicode="&#x136;" horiz-adv-x="556" 
d="M557 0h-101l-215 337l-65 -63v-274h-88v714h88v-354q21 26 45.5 57.5t52.5 66.5l173 230h100l-244 -313zM363 -70q-5 -21 -17 -48.5t-27 -54.5t-32 -48h-47v12q7 17 15 44t14.5 55t8.5 49h85v-9z" />
    <glyph glyph-name="uni0137" unicode="&#x137;" horiz-adv-x="485" 
d="M162 370q0 -20 -1.5 -46t-2.5 -48h4q6 9 15.5 22.5t19.5 27t18 23.5l152 187h98l-186 -221l198 -315h-99l-157 255l-59 -57v-198h-84v760h84v-390zM309 -70q-5 -21 -17 -48.5t-27 -54.5t-32 -48h-47v12q7 17 15 44t14.5 55t8.5 49h85v-9z" />
    <glyph glyph-name="Lacute" unicode="&#x139;" horiz-adv-x="468" 
d="M88 0v714h88v-635h270v-79h-358zM273 934q-9 -14 -26 -34t-37 -41.5t-40 -41t-37 -33.5h-56v12q16 22 33.5 47.5t33 52t26.5 48.5h103v-10z" />
    <glyph glyph-name="lacute" unicode="&#x13a;" horiz-adv-x="240" 
d="M163 0h-85v760h85v-760zM262 980q-9 -14 -26 -34t-37 -41.5t-40 -41t-37 -33.5h-56v12q16 22 33.5 47.5t33 52t26.5 48.5h103v-10z" />
    <glyph glyph-name="uni013B" unicode="&#x13b;" horiz-adv-x="468" 
d="M88 0v714h88v-635h270v-79h-358zM331 -70q-5 -21 -17 -48.5t-27 -54.5t-32 -48h-47v12q7 17 15 44t14.5 55t8.5 49h85v-9z" />
    <glyph glyph-name="uni013C" unicode="&#x13c;" horiz-adv-x="240" 
d="M163 0h-85v760h85v-760zM182 -70q-5 -21 -17 -48.5t-27 -54.5t-32 -48h-47v12q7 17 15 44t14.5 55t8.5 49h85v-9z" />
    <glyph glyph-name="Lcaron" unicode="&#x13d;" horiz-adv-x="468" 
d="M88 0v714h88v-635h270v-79h-358zM454 705q-4 -19 -15.5 -47t-25.5 -56t-28 -48h-46v12q3 11 7.5 30.5t9 41t7.5 41.5t4 35h87v-9z" />
    <glyph glyph-name="lcaron" unicode="&#x13e;" horiz-adv-x="240" 
d="M163 0h-85v760h85v-760zM320 751q-4 -19 -15.5 -47t-25.5 -56t-28 -48h-46v12q3 11 7.5 30.5t9 41t7.5 41.5t4 35h87v-9z" />
    <glyph glyph-name="Lslash" unicode="&#x141;" horiz-adv-x="471" 
d="M90 0v246l-47 -29l-37 58l84 53v386h88v-332l127 77l37 -60l-164 -99v-221h270v-79h-358z" />
    <glyph glyph-name="lslash" unicode="&#x142;" horiz-adv-x="247" 
d="M76 0v290l-52 -35l-37 57l89 61v387h86v-329l60 43l39 -57l-99 -69v-348h-86z" />
    <glyph glyph-name="Nacute" unicode="&#x143;" horiz-adv-x="690" 
d="M602 0h-104l-331 589h-4q2 -24 3.5 -53.5t2.5 -60.5t1 -62v-413h-82v714h103l331 -584h4q-1 21 -2.5 50.5t-2.5 62t-1 59.5v412h82v-714zM487 934q-9 -14 -26 -34t-37 -41.5t-40 -41t-37 -33.5h-56v12q16 22 33.5 47.5t33 52t26.5 48.5h103v-10z" />
    <glyph glyph-name="nacute" unicode="&#x144;" 
d="M313 546q85 0 128 -46t43 -146v-354h-85v345q0 64 -24 96t-77 32q-75 0 -105 -48.5t-30 -146.5v-278h-85v536h68l12 -73h5q16 28 39 46.5t52 27.5t59 9zM424 756q-9 -14 -26 -34t-37 -41.5t-40 -41t-37 -33.5h-56v12q16 22 33.5 47.5t33 52t26.5 48.5h103v-10z" />
    <glyph glyph-name="uni0145" unicode="&#x145;" horiz-adv-x="690" 
d="M602 0h-104l-331 589h-4q2 -24 3.5 -53.5t2.5 -60.5t1 -62v-413h-82v714h103l331 -584h4q-1 21 -2.5 50.5t-2.5 62t-1 59.5v412h82v-714zM406 -70q-5 -21 -17 -48.5t-27 -54.5t-32 -48h-47v12q7 17 15 44t14.5 55t8.5 49h85v-9z" />
    <glyph glyph-name="uni0146" unicode="&#x146;" 
d="M313 546q85 0 128 -46t43 -146v-354h-85v345q0 64 -24 96t-77 32q-75 0 -105 -48.5t-30 -146.5v-278h-85v536h68l12 -73h5q16 28 39 46.5t52 27.5t59 9zM341 -70q-5 -21 -17 -48.5t-27 -54.5t-32 -48h-47v12q7 17 15 44t14.5 55t8.5 49h85v-9z" />
    <glyph glyph-name="Ncaron" unicode="&#x147;" horiz-adv-x="690" 
d="M602 0h-104l-331 589h-4q2 -24 3.5 -53.5t2.5 -60.5t1 -62v-413h-82v714h103l331 -584h4q-1 21 -2.5 50.5t-2.5 62t-1 59.5v412h82v-714zM302 784q-12 23 -31.5 49t-41 52.5t-39.5 46.5v12h55q23 -17 49 -41.5t50 -51.5q26 28 50.5 50.5t49.5 42.5h56v-12
q-17 -19 -39 -45.5t-42 -53t-32 -49.5h-85z" />
    <glyph glyph-name="ncaron" unicode="&#x148;" 
d="M313 546q85 0 128 -46t43 -146v-354h-85v345q0 64 -24 96t-77 32q-75 0 -105 -48.5t-30 -146.5v-278h-85v536h68l12 -73h5q16 28 39 46.5t52 27.5t59 9zM239 606q-12 23 -31.5 49t-41 52.5t-39.5 46.5v12h55q23 -17 49 -41.5t50 -51.5q26 28 50.5 50.5t49.5 42.5h56v-12
q-17 -19 -39 -45.5t-42 -53t-32 -49.5h-85z" />
    <glyph glyph-name="Eng" unicode="&#x14a;" horiz-adv-x="690" 
d="M434 -191q-23 0 -40.5 3t-31.5 9v76q15 -4 32 -7t37 -3q24 0 44 10.5t32.5 35.5t12.5 67l-354 592h-3q2 -22 3.5 -53.5t2.5 -65.5t1 -65v-408h-82v714h103l331 -559h4q-2 24 -3.5 54t-2 62.5t-0.5 62.5v380h82v-709q0 -66 -20 -109.5t-57.5 -65t-90.5 -21.5z" />
    <glyph glyph-name="eng" unicode="&#x14b;" 
d="M353 -240q-20 0 -35 3t-27 8v71q12 -4 24 -6.5t27 -2.5q26 0 41.5 18.5t15.5 65.5v428q0 64 -24.5 95.5t-76.5 31.5q-49 0 -79 -21t-43 -63.5t-13 -108.5v-279h-85v536h68l13 -73h4q16 28 38.5 46.5t51.5 27.5t60 9q59 0 97 -21.5t56.5 -65t18.5 -109.5v-431
q0 -49 -14.5 -85t-43 -55t-74.5 -19z" />
    <glyph glyph-name="Omacron" unicode="&#x14c;" horiz-adv-x="696" 
d="M640 358q0 -81 -18 -148t-54 -117t-90.5 -76.5t-128.5 -26.5q-76 0 -131 27.5t-91 76.5t-53 117t-17 148q0 114 32 196t97 126t163 44t162.5 -47t96.5 -129.5t32 -190.5zM149 358q0 -92 21.5 -157t66 -99t111.5 -34q68 0 112 33.5t65.5 98.5t21.5 158q0 139 -48 214
t-150 75q-68 0 -112.5 -34t-66 -98.5t-21.5 -156.5zM486 855v-68h-277v68h277z" />
    <glyph glyph-name="omacron" unicode="&#x14d;" horiz-adv-x="546" 
d="M497 269q0 -66 -15 -117t-44 -87.5t-71 -55.5t-95 -19q-50 0 -91 19t-70 55t-45 87.5t-16 117.5q0 89 26.5 150.5t76.5 94t121 32.5q67 0 117 -32t78 -93.5t28 -151.5zM138 269q0 -65 14.5 -111.5t44.5 -71t77 -24.5q46 0 76 24.5t44.5 71t14.5 111.5q0 66 -14.5 111.5
t-44.5 69t-77 23.5q-71 0 -103 -53t-32 -151zM411 677v-68h-277v68h277z" />
    <glyph glyph-name="Ohungarumlaut" unicode="&#x150;" horiz-adv-x="696" 
d="M640 358q0 -81 -18 -148t-54 -117t-90.5 -76.5t-128.5 -26.5q-76 0 -131 27.5t-91 76.5t-53 117t-17 148q0 114 32 196t97 126t163 44t162.5 -47t96.5 -129.5t32 -190.5zM149 358q0 -92 21.5 -157t66 -99t111.5 -34q68 0 112 33.5t65.5 98.5t21.5 158q0 139 -48 214
t-150 75q-68 0 -112.5 -34t-66 -98.5t-21.5 -156.5zM518 934q-8 -14 -23 -34t-34 -42t-37.5 -41t-34.5 -33h-47v12q15 20 31 47t30.5 54.5t22.5 46.5h92v-10zM354 934q-9 -14 -23.5 -34t-32.5 -41.5t-37.5 -41t-36.5 -33.5h-46v12q14 20 30 47t30.5 54t23.5 47h92v-10z" />
    <glyph glyph-name="ohungarumlaut" unicode="&#x151;" horiz-adv-x="546" 
d="M497 269q0 -66 -15 -117t-44 -87.5t-71 -55.5t-95 -19q-50 0 -91 19t-70 55t-45 87.5t-16 117.5q0 89 26.5 150.5t76.5 94t121 32.5q67 0 117 -32t78 -93.5t28 -151.5zM138 269q0 -65 14.5 -111.5t44.5 -71t77 -24.5q46 0 76 24.5t44.5 71t14.5 111.5q0 66 -14.5 111.5
t-44.5 69t-77 23.5q-71 0 -103 -53t-32 -151zM443 756q-8 -14 -23 -34t-34 -42t-37.5 -41t-34.5 -33h-47v12q15 20 31 47t30.5 54.5t22.5 46.5h92v-10zM279 756q-9 -14 -23.5 -34t-32.5 -41.5t-37.5 -41t-36.5 -33.5h-46v12q14 20 30 47t30.5 54t23.5 47h92v-10z" />
    <glyph glyph-name="OE" unicode="&#x152;" horiz-adv-x="825" 
d="M352 723q22 0 43 -2.5t40 -6.5h335v-78h-255v-225h239v-77h-239v-256h255v-78h-331q-19 -3 -40.5 -5.5t-44.5 -2.5q-100 0 -166 45t-98.5 127.5t-32.5 194.5t32.5 193.5t98 126t164.5 44.5zM357 645q-55 0 -95 -20t-64.5 -57.5t-36.5 -90t-12 -119.5q0 -89 21 -153.5
t67.5 -99.5t119.5 -36q20 0 38.5 3.5t32.5 8.5v552q-15 6 -32.5 9t-38.5 3z" />
    <glyph glyph-name="oe" unicode="&#x153;" horiz-adv-x="854" 
d="M610 545q63 0 106.5 -30.5t66.5 -84.5t23 -124v-54h-319q2 -97 39 -143.5t107 -46.5q44 0 79 9.5t71 27.5v-74q-35 -18 -71 -26.5t-82 -8.5q-62 0 -109 26.5t-75 79.5q-28 -53 -73 -79.5t-104 -26.5q-66 0 -115 33t-76.5 95.5t-27.5 150.5q0 89 26 150.5t75.5 94
t119.5 32.5q57 0 101 -26.5t71 -78.5q18 34 42.5 57.5t55.5 35t69 11.5zM269 473q-69 0 -100 -51t-31 -153q0 -68 14 -114t43.5 -69.5t74.5 -23.5t73.5 23t42.5 68.5t14 112.5q0 70 -14 115.5t-43 68.5t-74 23zM608 475q-53 0 -83.5 -39t-35.5 -116h230q0 45 -11.5 80
t-36 55t-63.5 20z" />
    <glyph glyph-name="Racute" unicode="&#x154;" horiz-adv-x="563" 
d="M259 714q84 0 137.5 -22.5t79.5 -67.5t26 -112q0 -54 -17 -91.5t-46.5 -61.5t-66.5 -39l177 -320h-101l-156 296h-116v-296h-88v714h171zM256 637h-80v-267h87q76 0 112.5 35t36.5 103q0 46 -16.5 74t-51 41.5t-88.5 13.5zM424 934q-9 -14 -26 -34t-37 -41.5t-40 -41
t-37 -33.5h-56v12q16 22 33.5 47.5t33 52t26.5 48.5h103v-10z" />
    <glyph glyph-name="racute" unicode="&#x155;" horiz-adv-x="373" 
d="M303 546q14 0 29.5 -1.5t27.5 -4.5l-11 -82q-12 3 -25.5 5t-26.5 2q-27 0 -51.5 -13t-43 -37.5t-29 -57.5t-10.5 -73v-284h-85v536h68l11 -95h4q15 30 36 54t48 37.5t58 13.5zM358 756q-9 -14 -26 -34t-37 -41.5t-40 -41t-37 -33.5h-56v12q16 22 33.5 47.5t33 52
t26.5 48.5h103v-10z" />
    <glyph glyph-name="uni0156" unicode="&#x156;" horiz-adv-x="563" 
d="M259 714q84 0 137.5 -22.5t79.5 -67.5t26 -112q0 -54 -17 -91.5t-46.5 -61.5t-66.5 -39l177 -320h-101l-156 296h-116v-296h-88v714h171zM256 637h-80v-267h87q76 0 112.5 35t36.5 103q0 46 -16.5 74t-51 41.5t-88.5 13.5zM358 -70q-5 -21 -17 -48.5t-27 -54.5t-32 -48
h-47v12q7 17 15 44t14.5 55t8.5 49h85v-9z" />
    <glyph glyph-name="uni0157" unicode="&#x157;" horiz-adv-x="373" 
d="M303 546q14 0 29.5 -1.5t27.5 -4.5l-11 -82q-12 3 -25.5 5t-26.5 2q-27 0 -51.5 -13t-43 -37.5t-29 -57.5t-10.5 -73v-284h-85v536h68l11 -95h4q15 30 36 54t48 37.5t58 13.5zM182 -70q-5 -21 -17 -48.5t-27 -54.5t-32 -48h-47v12q7 17 15 44t14.5 55t8.5 49h85v-9z" />
    <glyph glyph-name="Rcaron" unicode="&#x158;" horiz-adv-x="563" 
d="M259 714q84 0 137.5 -22.5t79.5 -67.5t26 -112q0 -54 -17 -91.5t-46.5 -61.5t-66.5 -39l177 -320h-101l-156 296h-116v-296h-88v714h171zM256 637h-80v-267h87q76 0 112.5 35t36.5 103q0 46 -16.5 74t-51 41.5t-88.5 13.5zM239 784q-12 23 -31.5 49t-41 52.5t-39.5 46.5
v12h55q23 -17 49 -41.5t50 -51.5q26 28 50.5 50.5t49.5 42.5h56v-12q-17 -19 -39 -45.5t-42 -53t-32 -49.5h-85z" />
    <glyph glyph-name="rcaron" unicode="&#x159;" horiz-adv-x="373" 
d="M303 546q14 0 29.5 -1.5t27.5 -4.5l-11 -82q-12 3 -25.5 5t-26.5 2q-27 0 -51.5 -13t-43 -37.5t-29 -57.5t-10.5 -73v-284h-85v536h68l11 -95h4q15 30 36 54t48 37.5t58 13.5zM173 606q-12 23 -31.5 49t-41 52.5t-39.5 46.5v12h55q23 -17 49 -41.5t50 -51.5
q26 28 50.5 50.5t49.5 42.5h56v-12q-17 -19 -39 -45.5t-42 -53t-32 -49.5h-85z" />
    <glyph glyph-name="Sacute" unicode="&#x15a;" horiz-adv-x="499" 
d="M455 193q0 -63 -28 -108t-80 -70t-122 -25q-36 0 -68.5 4t-60 11t-50.5 18v86q36 -17 84 -29t96 -12q46 0 77.5 15t47.5 41.5t16 60.5q0 35 -13 59t-45 44t-88 43q-54 22 -91.5 49t-56.5 65.5t-19 94.5q-1 56 26 97.5t75 64t110 22.5q53 0 97.5 -11t79.5 -27l-27 -77
q-35 16 -73 26t-78 10q-39 0 -66.5 -13t-41 -36.5t-13.5 -54.5q0 -37 13 -60.5t43.5 -42.5t82.5 -41q57 -24 95.5 -51.5t58 -64t19.5 -88.5zM402 934q-9 -14 -26 -34t-37 -41.5t-40 -41t-37 -33.5h-56v12q16 22 33.5 47.5t33 52t26.5 48.5h103v-10z" />
    <glyph glyph-name="sacute" unicode="&#x15b;" horiz-adv-x="428" 
d="M387 147q0 -51 -23 -86t-65.5 -53t-102.5 -18q-49 0 -86 9t-65 24v81q28 -17 68.5 -29.5t82.5 -12.5q56 0 82 21t26 57q0 21 -10 37t-34.5 31.5t-68.5 34.5q-45 21 -78 41.5t-51 49t-18 71.5q0 66 50.5 103.5t132.5 37.5q44 0 81.5 -9t71.5 -26l-30 -68q-29 14 -61 23
t-66 9q-46 0 -71.5 -18t-25.5 -48q0 -22 11.5 -37.5t37.5 -30t70 -34.5t76 -40.5t49 -49t17 -70.5zM360 756q-9 -14 -26 -34t-37 -41.5t-40 -41t-37 -33.5h-56v12q16 22 33.5 47.5t33 52t26.5 48.5h103v-10z" />
    <glyph glyph-name="Scedilla" unicode="&#x15e;" horiz-adv-x="499" 
d="M455 193q0 -63 -28 -108t-80 -70t-122 -25q-36 0 -68.5 4t-60 11t-50.5 18v86q36 -17 84 -29t96 -12q46 0 77.5 15t47.5 41.5t16 60.5q0 35 -13 59t-45 44t-88 43q-54 22 -91.5 49t-56.5 65.5t-19 94.5q-1 56 26 97.5t75 64t110 22.5q53 0 97.5 -11t79.5 -27l-27 -77
q-35 16 -73 26t-78 10q-39 0 -66.5 -13t-41 -36.5t-13.5 -54.5q0 -37 13 -60.5t43.5 -42.5t82.5 -41q57 -24 95.5 -51.5t58 -64t19.5 -88.5zM329 -138q0 -49 -35 -75.5t-102 -26.5q-16 0 -30 1.5t-22 3.5v55q9 -2 22.5 -3.5t26.5 -1.5q34 0 52 11t18 34q0 26 -24 39t-62 18
l40 83h55l-25 -52q25 -5 44.5 -16t30.5 -28t11 -42z" />
    <glyph glyph-name="scedilla" unicode="&#x15f;" horiz-adv-x="428" 
d="M387 147q0 -51 -23 -86t-65.5 -53t-102.5 -18q-49 0 -86 9t-65 24v81q28 -17 68.5 -29.5t82.5 -12.5q56 0 82 21t26 57q0 21 -10 37t-34.5 31.5t-68.5 34.5q-45 21 -78 41.5t-51 49t-18 71.5q0 66 50.5 103.5t132.5 37.5q44 0 81.5 -9t71.5 -26l-30 -68q-29 14 -61 23
t-66 9q-46 0 -71.5 -18t-25.5 -48q0 -22 11.5 -37.5t37.5 -30t70 -34.5t76 -40.5t49 -49t17 -70.5zM305 -138q0 -49 -35 -75.5t-102 -26.5q-16 0 -30 1.5t-22 3.5v55q9 -2 22.5 -3.5t26.5 -1.5q34 0 52 11t18 34q0 26 -24 39t-62 18l40 83h55l-25 -52q25 -5 44.5 -16
t30.5 -28t11 -42z" />
    <glyph glyph-name="Scaron" unicode="&#x160;" horiz-adv-x="499" 
d="M455 193q0 -63 -28 -108t-80 -70t-122 -25q-36 0 -68.5 4t-60 11t-50.5 18v86q36 -17 84 -29t96 -12q46 0 77.5 15t47.5 41.5t16 60.5q0 35 -13 59t-45 44t-88 43q-54 22 -91.5 49t-56.5 65.5t-19 94.5q-1 56 26 97.5t75 64t110 22.5q53 0 97.5 -11t79.5 -27l-27 -77
q-35 16 -73 26t-78 10q-39 0 -66.5 -13t-41 -36.5t-13.5 -54.5q0 -37 13 -60.5t43.5 -42.5t82.5 -41q57 -24 95.5 -51.5t58 -64t19.5 -88.5zM217 784q-12 23 -31.5 49t-41 52.5t-39.5 46.5v12h55q23 -17 49 -41.5t50 -51.5q26 28 50.5 50.5t49.5 42.5h56v-12
q-17 -19 -39 -45.5t-42 -53t-32 -49.5h-85z" />
    <glyph glyph-name="scaron" unicode="&#x161;" horiz-adv-x="428" 
d="M387 147q0 -51 -23 -86t-65.5 -53t-102.5 -18q-49 0 -86 9t-65 24v81q28 -17 68.5 -29.5t82.5 -12.5q56 0 82 21t26 57q0 21 -10 37t-34.5 31.5t-68.5 34.5q-45 21 -78 41.5t-51 49t-18 71.5q0 66 50.5 103.5t132.5 37.5q44 0 81.5 -9t71.5 -26l-30 -68q-29 14 -61 23
t-66 9q-46 0 -71.5 -18t-25.5 -48q0 -22 11.5 -37.5t37.5 -30t70 -34.5t76 -40.5t49 -49t17 -70.5zM175 606q-12 23 -31.5 49t-41 52.5t-39.5 46.5v12h55q23 -17 49 -41.5t50 -51.5q26 28 50.5 50.5t49.5 42.5h56v-12q-17 -19 -39 -45.5t-42 -53t-32 -49.5h-85z" />
    <glyph glyph-name="Tcaron" unicode="&#x164;" horiz-adv-x="492" 
d="M290 0h-88v636h-192v78h471v-78h-191v-636zM203 784q-12 23 -31.5 49t-41 52.5t-39.5 46.5v12h55q23 -17 49 -41.5t50 -51.5q26 28 50.5 50.5t49.5 42.5h56v-12q-17 -19 -39 -45.5t-42 -53t-32 -49.5h-85z" />
    <glyph glyph-name="tcaron" unicode="&#x165;" horiz-adv-x="324" 
d="M239 62q18 0 35.5 3.5t30.5 7.5v-67q-15 -7 -38 -11.5t-47 -4.5q-39 0 -70 15t-49 49.5t-18 93.5v320h-67v43l69 30l30 118h53v-123h131v-68h-131v-315q0 -46 18.5 -68.5t52.5 -22.5zM431 751q-4 -19 -15.5 -47t-25.5 -56t-28 -48h-46v12q3 11 7.5 30.5t9 41t7.5 41.5
t4 35h87v-9z" />
    <glyph glyph-name="Umacron" unicode="&#x16a;" horiz-adv-x="654" 
d="M572 242q0 -77 -27 -133.5t-81.5 -87.5t-138.5 -31q-119 0 -181 67t-62 186v471h87v-474q0 -85 40.5 -128.5t119.5 -43.5q54 0 88.5 20.5t51 59.5t16.5 93v473h87v-472zM465 855v-68h-277v68h277z" />
    <glyph glyph-name="umacron" unicode="&#x16b;" 
d="M481 536v-536h-69l-12 71h-5q-15 -27 -38.5 -45t-51.5 -27t-60 -9q-58 0 -96 22t-57 65.5t-19 108.5v350h86v-341q0 -67 24.5 -99.5t75.5 -32.5t81 22t43 64.5t13 105.5v281h85zM418 677v-68h-277v68h277z" />
    <glyph glyph-name="Ubreve" unicode="&#x16c;" horiz-adv-x="654" 
d="M572 242q0 -77 -27 -133.5t-81.5 -87.5t-138.5 -31q-119 0 -181 67t-62 186v471h87v-474q0 -85 40.5 -128.5t119.5 -43.5q54 0 88.5 20.5t51 59.5t16.5 93v473h87v-472zM470 918q-1 -40 -19.5 -70t-50 -47t-75.5 -17q-67 0 -102.5 35.5t-38.5 98.5h54q4 -39 26 -52.5
t63 -13.5q36 0 60.5 14t29.5 52h53z" />
    <glyph glyph-name="ubreve" unicode="&#x16d;" 
d="M481 536v-536h-69l-12 71h-5q-15 -27 -38.5 -45t-51.5 -27t-60 -9q-58 0 -96 22t-57 65.5t-19 108.5v350h86v-341q0 -67 24.5 -99.5t75.5 -32.5t81 22t43 64.5t13 105.5v281h85zM422 740q-1 -40 -19.5 -70t-50 -47t-75.5 -17q-67 0 -102.5 35.5t-38.5 98.5h54
q4 -39 26 -52.5t63 -13.5q36 0 60.5 14t29.5 52h53z" />
    <glyph glyph-name="Uring" unicode="&#x16e;" horiz-adv-x="654" 
d="M572 242q0 -77 -27 -133.5t-81.5 -87.5t-138.5 -31q-119 0 -181 67t-62 186v471h87v-474q0 -85 40.5 -128.5t119.5 -43.5q54 0 88.5 20.5t51 59.5t16.5 93v473h87v-472zM327 785q-49 0 -78.5 28t-29.5 76t29.5 75.5t78.5 27.5q46 0 77 -27t31 -75q0 -49 -30 -77t-78 -28z
M327 835q24 0 39.5 14.5t15.5 39.5t-15 40t-40 15q-24 0 -39.5 -15t-15.5 -40t14 -39.5t41 -14.5z" />
    <glyph glyph-name="uring" unicode="&#x16f;" 
d="M481 536v-536h-69l-12 71h-5q-15 -27 -38.5 -45t-51.5 -27t-60 -9q-58 0 -96 22t-57 65.5t-19 108.5v350h86v-341q0 -67 24.5 -99.5t75.5 -32.5t81 22t43 64.5t13 105.5v281h85zM280 607q-49 0 -78.5 28t-29.5 76t29.5 75.5t78.5 27.5q46 0 77 -27t31 -75q0 -49 -30 -77
t-78 -28zM280 657q24 0 39.5 14.5t15.5 39.5t-15 40t-40 15q-24 0 -39.5 -15t-15.5 -40t14 -39.5t41 -14.5z" />
    <glyph glyph-name="Uhungarumlaut" unicode="&#x170;" horiz-adv-x="654" 
d="M572 242q0 -77 -27 -133.5t-81.5 -87.5t-138.5 -31q-119 0 -181 67t-62 186v471h87v-474q0 -85 40.5 -128.5t119.5 -43.5q54 0 88.5 20.5t51 59.5t16.5 93v473h87v-472zM497 934q-8 -14 -23 -34t-34 -42t-37.5 -41t-34.5 -33h-47v12q15 20 31 47t30.5 54.5t22.5 46.5h92
v-10zM333 934q-9 -14 -23.5 -34t-32.5 -41.5t-37.5 -41t-36.5 -33.5h-46v12q14 20 30 47t30.5 54t23.5 47h92v-10z" />
    <glyph glyph-name="uhungarumlaut" unicode="&#x171;" 
d="M481 536v-536h-69l-12 71h-5q-15 -27 -38.5 -45t-51.5 -27t-60 -9q-58 0 -96 22t-57 65.5t-19 108.5v350h86v-341q0 -67 24.5 -99.5t75.5 -32.5t81 22t43 64.5t13 105.5v281h85zM449 756q-8 -14 -23 -34t-34 -42t-37.5 -41t-34.5 -33h-47v12q15 20 31 47t30.5 54.5
t22.5 46.5h92v-10zM285 756q-9 -14 -23.5 -34t-32.5 -41.5t-37.5 -41t-36.5 -33.5h-46v12q14 20 30 47t30.5 54t23.5 47h92v-10z" />
    <glyph glyph-name="Uogonek" unicode="&#x172;" horiz-adv-x="654" 
d="M406 -111q0 -27 12 -39t33 -12q14 0 24.5 2t18.5 4v-57q-13 -4 -26.5 -6t-31.5 -2q-51 0 -75.5 25t-24.5 74q0 29 14 57t34.5 51.5t40.5 38.5l72 22q-33 -36 -53 -63.5t-29 -49.5t-9 -45zM572 242q0 -77 -27 -133.5t-81.5 -87.5t-138.5 -31q-119 0 -181 67t-62 186v471
h87v-474q0 -85 40.5 -128.5t119.5 -43.5q54 0 88.5 20.5t51 59.5t16.5 93v473h87v-472z" />
    <glyph glyph-name="uogonek" unicode="&#x173;" 
d="M481 536v-536h-69l-12 71h-5q-15 -27 -38.5 -45t-51.5 -27t-60 -9q-58 0 -96 22t-57 65.5t-19 108.5v350h86v-341q0 -67 24.5 -99.5t75.5 -32.5t81 22t43 64.5t13 105.5v281h85zM402 -116q0 -23 12 -35t33 -12q15 0 25 2.5t17 3.5v-56q-12 -4 -25 -6t-32 -2
q-51 0 -75.5 24t-24.5 69q0 28 12.5 54t33 49t42.5 39l47 -14q-34 -33 -49.5 -59.5t-15.5 -56.5z" />
    <glyph glyph-name="Wcircumflex" unicode="&#x174;" horiz-adv-x="853" 
d="M843 714l-174 -714h-94l-121 463q-4 17 -9 36t-9 38t-7 36t-5 31q-1 -10 -3.5 -26t-6.5 -35t-8.5 -39.5t-10.5 -41.5l-118 -462h-94l-174 714h91l102 -437q5 -24 10 -47.5t9 -45.5t7 -42t5 -38q3 21 6.5 42.5t8.5 44l10 45t10 44.5l113 434h87l115 -436q6 -21 11 -44
t9.5 -45t8 -43.5t6.5 -41.5q4 28 8.5 56.5t11 58.5t13.5 59l102 436h90zM468 944q12 -22 31.5 -49t41.5 -53.5t40 -46.5v-11h-56q-24 17 -49.5 41t-50.5 50q-26 -26 -51 -50t-48 -41h-55v11q19 21 40 47.5t40.5 53t31.5 48.5h85z" />
    <glyph glyph-name="wcircumflex" unicode="&#x175;" horiz-adv-x="720" 
d="M391 311q-6 25 -12 49t-10.5 46t-7.5 38h-3q-3 -16 -7.5 -38t-10 -46.5t-12.5 -49.5l-85 -309h-97l-136 536h88l66 -279q7 -29 13.5 -58t11.5 -56.5t8 -49.5h3q3 14 6.5 32.5t7.5 39t9 41t10 39.5l81 291h94l78 -291q6 -22 12.5 -47.5t12 -52.5t8.5 -52h3q2 16 6.5 38.5
t10.5 49.5t12 55l72 300h86l-137 -536h-100zM402 766q12 -22 31.5 -49t41.5 -53.5t40 -46.5v-11h-56q-24 17 -49.5 41t-50.5 50q-26 -26 -51 -50t-48 -41h-55v11q19 21 40 47.5t40.5 53t31.5 48.5h85z" />
    <glyph glyph-name="Ycircumflex" unicode="&#x176;" horiz-adv-x="502" 
d="M251 368l158 346h93l-207 -437v-277h-88v274l-207 440h94zM293 944q12 -22 31.5 -49t41.5 -53.5t40 -46.5v-11h-56q-24 17 -49.5 41t-50.5 50q-26 -26 -51 -50t-48 -41h-55v11q19 21 40 47.5t40.5 53t31.5 48.5h85z" />
    <glyph glyph-name="ycircumflex" unicode="&#x177;" horiz-adv-x="459" 
d="M2 536h90l101 -304q7 -24 14 -47.5t13 -46t10 -43.5h4q5 26 15.5 62.5t22.5 74.5l95 304h90l-204 -613q-18 -51 -41 -88t-56 -56t-79 -19q-20 0 -36 2.5t-29 5.5v71q11 -3 24.5 -5t27.5 -2q27 0 46 11t32.5 33t24.5 54l24 70zM271 766q12 -22 31.5 -49t41.5 -53.5
t40 -46.5v-11h-56q-24 17 -49.5 41t-50.5 50q-26 -26 -51 -50t-48 -41h-55v11q19 21 40 47.5t40.5 53t31.5 48.5h85z" />
    <glyph glyph-name="Ydieresis" unicode="&#x178;" horiz-adv-x="502" 
d="M251 368l158 346h93l-207 -437v-277h-88v274l-207 440h94zM117 854q0 26 13.5 38t31.5 12q19 0 32 -12t13 -38q0 -25 -13 -37.5t-32 -12.5q-18 0 -31.5 12.5t-13.5 37.5zM295 854q0 26 13.5 38t31.5 12q19 0 32.5 -12t13.5 -38q0 -25 -13.5 -37.5t-32.5 -12.5t-32 12.5
t-13 37.5z" />
    <glyph glyph-name="Zacute" unicode="&#x179;" horiz-adv-x="495" 
d="M463 0h-429v67l318 568h-309v79h411v-67l-319 -568h328v-79zM392 934q-9 -14 -26 -34t-37 -41.5t-40 -41t-37 -33.5h-56v12q16 22 33.5 47.5t33 52t26.5 48.5h103v-10z" />
    <glyph glyph-name="zacute" unicode="&#x17a;" horiz-adv-x="409" 
d="M376 0h-342v57l241 411h-227v68h321v-63l-238 -405h245v-68zM349 756q-9 -14 -26 -34t-37 -41.5t-40 -41t-37 -33.5h-56v12q16 22 33.5 47.5t33 52t26.5 48.5h103v-10z" />
    <glyph glyph-name="Zdotaccent" unicode="&#x17b;" horiz-adv-x="495" 
d="M463 0h-429v67l318 568h-309v79h411v-67l-319 -568h328v-79zM252 916q21 0 35 -14t14 -43q0 -28 -14 -42t-35 -14q-22 0 -36.5 14t-14.5 42q0 29 14 43t37 14z" />
    <glyph glyph-name="zdotaccent" unicode="&#x17c;" horiz-adv-x="409" 
d="M376 0h-342v57l241 411h-227v68h321v-63l-238 -405h245v-68zM208 738q21 0 35 -14t14 -43q0 -28 -14 -42t-35 -14q-22 0 -36.5 14t-14.5 42q0 29 14 43t37 14z" />
    <glyph glyph-name="Zcaron" unicode="&#x17d;" horiz-adv-x="495" 
d="M463 0h-429v67l318 568h-309v79h411v-67l-319 -568h328v-79zM207 784q-12 23 -31.5 49t-41 52.5t-39.5 46.5v12h55q23 -17 49 -41.5t50 -51.5q26 28 50.5 50.5t49.5 42.5h56v-12q-17 -19 -39 -45.5t-42 -53t-32 -49.5h-85z" />
    <glyph glyph-name="zcaron" unicode="&#x17e;" horiz-adv-x="409" 
d="M376 0h-342v57l241 411h-227v68h321v-63l-238 -405h245v-68zM164 606q-12 23 -31.5 49t-41 52.5t-39.5 46.5v12h55q23 -17 49 -41.5t50 -51.5q26 28 50.5 50.5t49.5 42.5h56v-12q-17 -19 -39 -45.5t-42 -53t-32 -49.5h-85z" />
    <glyph glyph-name="uni0218" unicode="&#x218;" horiz-adv-x="499" 
d="M455 193q0 -63 -28 -108t-80 -70t-122 -25q-36 0 -68.5 4t-60 11t-50.5 18v86q36 -17 84 -29t96 -12q46 0 77.5 15t47.5 41.5t16 60.5q0 35 -13 59t-45 44t-88 43q-54 22 -91.5 49t-56.5 65.5t-19 94.5q-1 56 26 97.5t75 64t110 22.5q53 0 97.5 -11t79.5 -27l-27 -77
q-35 16 -73 26t-78 10q-39 0 -66.5 -13t-41 -36.5t-13.5 -54.5q0 -37 13 -60.5t43.5 -42.5t82.5 -41q57 -24 95.5 -51.5t58 -64t19.5 -88.5zM296 -70q-5 -21 -17 -48.5t-27 -54.5t-32 -48h-47v12q7 17 15 44t14.5 55t8.5 49h85v-9z" />
    <glyph glyph-name="uni0219" unicode="&#x219;" horiz-adv-x="428" 
d="M387 147q0 -51 -23 -86t-65.5 -53t-102.5 -18q-49 0 -86 9t-65 24v81q28 -17 68.5 -29.5t82.5 -12.5q56 0 82 21t26 57q0 21 -10 37t-34.5 31.5t-68.5 34.5q-45 21 -78 41.5t-51 49t-18 71.5q0 66 50.5 103.5t132.5 37.5q44 0 81.5 -9t71.5 -26l-30 -68q-29 14 -61 23
t-66 9q-46 0 -71.5 -18t-25.5 -48q0 -22 11.5 -37.5t37.5 -30t70 -34.5t76 -40.5t49 -49t17 -70.5zM271 -70q-5 -21 -17 -48.5t-27 -54.5t-32 -48h-47v12q7 17 15 44t14.5 55t8.5 49h85v-9z" />
    <glyph glyph-name="uni021A" unicode="&#x21a;" horiz-adv-x="492" 
d="M290 0h-88v636h-192v78h471v-78h-191v-636zM308 -70q-5 -21 -17 -48.5t-27 -54.5t-32 -48h-47v12q7 17 15 44t14.5 55t8.5 49h85v-9z" />
    <glyph glyph-name="uni021B" unicode="&#x21b;" horiz-adv-x="324" 
d="M239 62q18 0 35.5 3.5t30.5 7.5v-67q-15 -7 -38 -11.5t-47 -4.5q-39 0 -70 15t-49 49.5t-18 93.5v320h-67v43l69 30l30 118h53v-123h131v-68h-131v-315q0 -46 18.5 -68.5t52.5 -22.5zM255 -70q-5 -21 -17 -48.5t-27 -54.5t-32 -48h-47v12q7 17 15 44t14.5 55t8.5 49h85
v-9z" />
    <glyph glyph-name="uni0237" unicode="&#x237;" horiz-adv-x="241" 
d="M27 -240q-20 0 -37.5 3t-29.5 8v71q13 -4 26.5 -6.5t28.5 -2.5q29 0 46 18.5t17 64.5v620h85v-617q0 -50 -14.5 -86t-44.5 -54.5t-77 -18.5z" />
    <glyph glyph-name="circumflex" unicode="&#x2c6;" horiz-adv-x="390" 
d="M237 766q12 -22 31.5 -49t41.5 -53.5t40 -46.5v-11h-56q-24 17 -49.5 41t-50.5 50q-26 -26 -51 -50t-48 -41h-55v11q19 21 40 47.5t40.5 53t31.5 48.5h85z" />
    <glyph glyph-name="caron" unicode="&#x2c7;" horiz-adv-x="390" 
d="M152 606q-12 23 -31.5 49t-41 52.5t-39.5 46.5v12h55q23 -17 49 -41.5t50 -51.5q26 28 50.5 50.5t49.5 42.5h56v-12q-17 -19 -39 -45.5t-42 -53t-32 -49.5h-85z" />
    <glyph glyph-name="macronmod" unicode="&#x2c9;" horiz-adv-x="357" 
d="M317 677v-68h-277v68h277z" />
    <glyph glyph-name="breve" unicode="&#x2d8;" horiz-adv-x="366" 
d="M326 740q-1 -40 -19.5 -70t-50 -47t-75.5 -17q-67 0 -102.5 35.5t-38.5 98.5h54q4 -39 26 -52.5t63 -13.5q36 0 60.5 14t29.5 52h53z" />
    <glyph glyph-name="dotaccent" unicode="&#x2d9;" horiz-adv-x="180" 
d="M91 738q21 0 35 -14t14 -43q0 -28 -14 -42t-35 -14q-22 0 -36.5 14t-14.5 42q0 29 14 43t37 14z" />
    <glyph glyph-name="ring" unicode="&#x2da;" horiz-adv-x="296" 
d="M148 607q-49 0 -78.5 28t-29.5 76t29.5 75.5t78.5 27.5q46 0 77 -27t31 -75q0 -49 -30 -77t-78 -28zM148 657q24 0 39.5 14.5t15.5 39.5t-15 40t-40 15q-24 0 -39.5 -15t-15.5 -40t14 -39.5t41 -14.5z" />
    <glyph glyph-name="ogonek" unicode="&#x2db;" horiz-adv-x="237" 
d="M110 -116q0 -23 12 -35t33 -12q15 0 25 2.5t17 3.5v-56q-12 -4 -25 -6t-32 -2q-51 0 -75.5 24t-24.5 69q0 28 12.5 54t33 49t42.5 39l47 -14q-34 -33 -49.5 -59.5t-15.5 -56.5z" />
    <glyph glyph-name="tilde" unicode="&#x2dc;" horiz-adv-x="421" 
d="M40 606q3 27 10 50t19.5 40t30 26t40.5 9q21 0 40 -8.5t37 -20t34.5 -20t31.5 -8.5q20 0 31 15.5t17 42.5h50q-5 -58 -31 -91.5t-68 -33.5q-20 0 -39 8.5t-37.5 20t-34.5 20t-32 8.5q-20 0 -31 -15t-17 -43h-51z" />
    <glyph glyph-name="hungarumlaut" unicode="&#x2dd;" horiz-adv-x="420" 
d="M380 756q-8 -14 -23 -34t-34 -42t-37.5 -41t-34.5 -33h-47v12q15 20 31 47t30.5 54.5t22.5 46.5h92v-10zM216 756q-9 -14 -23.5 -34t-32.5 -41.5t-37.5 -41t-36.5 -33.5h-46v12q14 20 30 47t30.5 54t23.5 47h92v-10z" />
    <glyph glyph-name="gravecomb" unicode="&#x300;" horiz-adv-x="0" 
d="M-354 766q11 -22 27 -49.5t34 -53.5t33 -45v-12h-57q-16 14 -36.5 33t-40.5 40.5t-36.5 42t-25.5 34.5v10h102z" />
    <glyph glyph-name="acutecomb" unicode="&#x301;" horiz-adv-x="0" 
d="M-117 756q-9 -14 -26 -34t-37 -41.5t-40 -41t-37 -33.5h-56v12q16 22 33.5 47.5t33 52t26.5 48.5h103v-10z" />
    <glyph glyph-name="uni0302" unicode="&#x302;" horiz-adv-x="0" 
d="M43 766q12 -22 31.5 -49t41.5 -53.5t40 -46.5v-11h-56q-24 17 -49.5 41t-50.5 50q-26 -26 -51 -50t-48 -41h-55v11q19 21 40 47.5t40.5 53t31.5 48.5h85z" />
    <glyph glyph-name="tildecomb" unicode="&#x303;" horiz-adv-x="0" 
d="M-460 606q3 27 10 50t19.5 40t30 26t40.5 9q21 0 40 -8.5t37 -20t34.5 -20t31.5 -8.5q20 0 31 15.5t17 42.5h50q-5 -58 -31 -91.5t-68 -33.5q-20 0 -39 8.5t-37.5 20t-34.5 20t-32 8.5q-20 0 -31 -15t-17 -43h-51z" />
    <glyph glyph-name="uni0304" unicode="&#x304;" horiz-adv-x="0" 
d="M139 677v-68h-277v68h277z" />
    <glyph glyph-name="uni0306" unicode="&#x306;" horiz-adv-x="0" 
d="M143 740q-1 -40 -19.5 -70t-50 -47t-75.5 -17q-67 0 -102.5 35.5t-38.5 98.5h54q4 -39 26 -52.5t63 -13.5q36 0 60.5 14t29.5 52h53z" />
    <glyph glyph-name="uni0307" unicode="&#x307;" horiz-adv-x="0" 
d="M1 738q21 0 35 -14t14 -43q0 -28 -14 -42t-35 -14q-22 0 -36.5 14t-14.5 42q0 29 14 43t37 14z" />
    <glyph glyph-name="uni0308" unicode="&#x308;" horiz-adv-x="0" 
d="M-134 676q0 26 13.5 38t31.5 12q19 0 32 -12t13 -38q0 -25 -13 -37.5t-32 -12.5q-18 0 -31.5 12.5t-13.5 37.5zM44 676q0 26 13.5 38t31.5 12q19 0 32.5 -12t13.5 -38q0 -25 -13.5 -37.5t-32.5 -12.5t-32 12.5t-13 37.5z" />
    <glyph glyph-name="uni030A" unicode="&#x30a;" horiz-adv-x="0" 
d="M1 607q-49 0 -78.5 28t-29.5 76t29.5 75.5t78.5 27.5q46 0 77 -27t31 -75q0 -49 -30 -77t-78 -28zM1 657q24 0 39.5 14.5t15.5 39.5t-15 40t-40 15q-24 0 -39.5 -15t-15.5 -40t14 -39.5t41 -14.5z" />
    <glyph glyph-name="uni030B" unicode="&#x30b;" horiz-adv-x="0" 
d="M225 756q-8 -14 -23 -34t-34 -42t-37.5 -41t-34.5 -33h-47v12q15 20 31 47t30.5 54.5t22.5 46.5h92v-10zM61 756q-9 -14 -23.5 -34t-32.5 -41.5t-37.5 -41t-36.5 -33.5h-46v12q14 20 30 47t30.5 54t23.5 47h92v-10z" />
    <glyph glyph-name="uni030C" unicode="&#x30c;" horiz-adv-x="0" 
d="M-43 606q-12 23 -31.5 49t-41 52.5t-39.5 46.5v12h55q23 -17 49 -41.5t50 -51.5q26 28 50.5 50.5t49.5 42.5h56v-12q-17 -19 -39 -45.5t-42 -53t-32 -49.5h-85z" />
    <glyph glyph-name="uni0312" unicode="&#x312;" horiz-adv-x="0" 
d="M-72 480q9 37 22.5 78t29 81t31.5 75h63q-9 -39 -19 -82.5t-17 -85.5t-12 -77h-92z" />
    <glyph glyph-name="uni0326" unicode="&#x326;" horiz-adv-x="0" 
d="M60 -70q-5 -21 -17 -48.5t-27 -54.5t-32 -48h-47v12q7 17 15 44t14.5 55t8.5 49h85v-9z" />
    <glyph glyph-name="uni0327" unicode="&#x327;" horiz-adv-x="0" 
d="M96 -138q0 -49 -35 -75.5t-102 -26.5q-16 0 -30 1.5t-22 3.5v55q9 -2 22.5 -3.5t26.5 -1.5q34 0 52 11t18 34q0 26 -24 39t-62 18l40 83h55l-25 -52q25 -5 44.5 -16t30.5 -28t11 -42z" />
    <glyph glyph-name="uni0328" unicode="&#x328;" horiz-adv-x="0" 
d="M-11 -116q0 -23 12 -35t33 -12q15 0 25 2.5t17 3.5v-56q-12 -4 -25 -6t-32 -2q-51 0 -75.5 24t-24.5 69q0 28 12.5 54t33 49t42.5 39l47 -14q-34 -33 -49.5 -59.5t-15.5 -56.5z" />
    <glyph glyph-name="uni0589" unicode="&#x589;" horiz-adv-x="250" 
d="M67 53q0 33 16 48.5t42 15.5t42 -15.5t16 -48.5t-16 -49t-42 -16t-42 16.5t-16 48.5zM67 483q0 34 16 49t42 15t42 -14.5t16 -49.5q0 -33 -16.5 -48.5t-41.5 -15.5t-41.5 15.5t-16.5 48.5z" />
    <glyph glyph-name="uni10A0" unicode="&#x10a0;" horiz-adv-x="561" 
d="M355 -10q-91 0 -158 41.5t-104 118.5t-37 181q0 74 21 134.5t57.5 104t83.5 67.5v3h-143v74h439v-77h-109q-80 0 -137.5 -37.5t-88.5 -104.5t-31 -156q0 -87 25.5 -147.5t74.5 -92t119 -31.5q41 0 77 8t70 20v-78q-34 -14 -71.5 -21t-87.5 -7z" />
    <glyph glyph-name="uni10A1" unicode="&#x10a1;" horiz-adv-x="706" 
d="M438 0v226q0 15 1.5 39t3.5 51h-4q-26 -48 -74 -74.5t-107 -26.5q-65 0 -111.5 29.5t-71 86t-24.5 135.5q0 68 16.5 129t48.5 119h98q-21 -30 -37 -69.5t-25 -84.5t-9 -94q0 -55 14 -94.5t43.5 -61t74.5 -21.5q55 0 91 22t54.5 69.5t18.5 124.5v209h87v-638h170v-76h-258
z" />
    <glyph glyph-name="uni10A2" unicode="&#x10a2;" horiz-adv-x="674" 
d="M406 0v638h-249v-246h-87v322h423v-638h171v-76h-258z" />
    <glyph glyph-name="uni10A3" unicode="&#x10a3;" horiz-adv-x="686" 
d="M342 -10q-90 0 -154 36t-98 101t-34 152q0 82 30 143.5t85 99t130 43.5v71h-216v78h517v-78h-215v-71q76 -6 130.5 -42.5t83.5 -98.5t29 -145q0 -88 -33.5 -153t-98 -100.5t-156.5 -35.5zM342 67q63 0 107 24.5t67 72t23 116.5q0 68 -23.5 115.5t-66.5 72t-106 24.5
q-61 0 -104.5 -24.5t-67 -71.5t-23.5 -117q0 -68 22.5 -115.5t66 -72t105.5 -24.5z" />
    <glyph glyph-name="uni10A4" unicode="&#x10a4;" horiz-adv-x="582" 
d="M406 0v638h-249v-246h-87v322h423v-714h-87z" />
    <glyph glyph-name="uni10A5" unicode="&#x10a5;" horiz-adv-x="745" 
d="M406 0v638h-249v-246h-87v322h423v-299h212v-232h-81v157h-131v-340h-87z" />
    <glyph glyph-name="uni10A6" unicode="&#x10a6;" horiz-adv-x="719" 
d="M424 -10q-76 0 -128.5 34t-79.5 95t-27 145v374h-184v76h271v-176q0 -13 -0.5 -29t-1 -33.5t-2.5 -34.5h5q31 54 72.5 79t99.5 25q70 0 118.5 -35t74 -97t25.5 -144q0 -85 -28 -148t-82 -97t-133 -34zM423 66q49 0 83.5 23.5t52.5 69t18 109.5q0 66 -17 110t-49.5 67.5
t-79.5 23.5q-50 0 -84.5 -25t-52.5 -70.5t-18 -107.5q0 -95 38 -147.5t109 -52.5z" />
    <glyph glyph-name="uni10A7" unicode="&#x10a7;" horiz-adv-x="819" 
d="M567 415h211v-232h-81v157h-131v-340h-189q-152 0 -236.5 91.5t-84.5 259.5q0 118 39.5 199t114.5 122.5t182 41.5h175v-299zM480 76v562h-81q-125 0 -188 -71.5t-63 -212.5q0 -137 60 -207.5t177 -70.5h95z" />
    <glyph glyph-name="uni10A8" unicode="&#x10a8;" horiz-adv-x="439" 
d="M263 0v638h-258v76h345v-714h-87z" />
    <glyph glyph-name="uni10A9" unicode="&#x10a9;" horiz-adv-x="635" 
d="M474 0v107q0 23 1.5 48t2.5 49h-6q-29 -53 -72 -78.5t-100 -25.5q-69 0 -118.5 32.5t-75 90.5t-25.5 137v354h87v-101q0 -15 -1 -38.5t-3 -55.5h5q31 55 73.5 79.5t99.5 24.5q71 0 119.5 -33t74 -91.5t25.5 -135.5v-363h-87zM317 175q49 0 84 22t53.5 64t18.5 100
q0 60 -17.5 102t-50.5 63.5t-80 21.5q-49 0 -84.5 -22.5t-54 -64t-18.5 -99.5q0 -60 17 -102t51 -63.5t81 -21.5z" />
    <glyph glyph-name="uni10AA" unicode="&#x10aa;" horiz-adv-x="900" 
d="M604 -10q-75 0 -127.5 33.5t-79.5 95t-27 145.5v374h-213v-246h-87v322h387v-176q0 -9 -0.5 -23.5t-1.5 -32.5t-3 -41h6q31 54 72.5 79t98.5 25q72 0 120.5 -35.5t73.5 -98t25 -142.5q0 -86 -28.5 -148.5t-83.5 -96.5t-132 -34zM604 66q49 0 83.5 23.5t52.5 69t18 109.5
q0 66 -17.5 110t-49.5 67.5t-79 23.5q-49 0 -84 -24.5t-53 -70t-18 -108.5q0 -95 37.5 -147.5t109.5 -52.5z" />
    <glyph glyph-name="uni10AB" unicode="&#x10ab;" horiz-adv-x="681" 
d="M288 -10q-70 0 -122 28.5t-81 83t-29 130.5q0 80 28.5 133t82 80t127.5 27h139v166h-327v76h414v-242h121v-75h-121v-151q0 -79 -25.5 -136.5t-77 -88.5t-129.5 -31zM285 66q78 0 113 46.5t35 129.5v154h-136q-75 0 -113.5 -38.5t-38.5 -125.5q0 -81 38 -123.5t102 -42.5
z" />
    <glyph glyph-name="uni10AC" unicode="&#x10ac;" horiz-adv-x="640" 
d="M86 0v714h446v-76h-359v-166q0 -10 -0.5 -33t-3.5 -55h5q20 33 45.5 55.5t59 34t75.5 11.5q64 0 109.5 -27.5t69.5 -83t24 -140.5v-234h-87v232q0 93 -34.5 136t-102.5 43q-76 0 -118 -49.5t-42 -144.5v-217h-87z" />
    <glyph glyph-name="uni10AD" unicode="&#x10ad;" horiz-adv-x="773" 
d="M348 -10q-76 0 -131 27.5t-91 76.5t-53 117t-17 148q0 114 32 195.5t97 125.5t164 44q97 0 161.5 -47t96.5 -129t32 -190q0 -84 -19 -154t-59 -119q17 -13 32.5 -20.5t33.5 -7.5q27 0 40.5 19.5t13.5 56.5h82q0 -43 -13.5 -75.5t-40.5 -50t-72 -17.5q-34 0 -63 15.5
t-53 38.5q-33 -26 -76.5 -40t-96.5 -14zM348 68q68 0 111.5 33.5t65 98.5t21.5 158q0 138 -48 213t-149 75q-68 0 -113 -33.5t-66.5 -98t-21.5 -156.5t22 -157t66.5 -99t111.5 -34z" />
    <glyph glyph-name="uni10AE" unicode="&#x10ae;" horiz-adv-x="766" 
d="M437 -10q-117 0 -182.5 65t-65.5 187v396h-184v76h271v-470q0 -89 41 -133.5t118 -44.5q52 0 88 19.5t54 59t18 99.5v470h87v-470q0 -83 -29 -139.5t-83.5 -85.5t-132.5 -29z" />
    <glyph glyph-name="uni10AF" unicode="&#x10af;" horiz-adv-x="666" 
d="M490 0v208q0 30 1.5 56.5t3.5 51.5h-5q-25 -47 -73 -74t-108 -27q-62 0 -108.5 29t-72.5 82.5t-26 124.5q0 60 21.5 106.5t58.5 77.5v3h-172v76h282v-76q-40 -18 -61 -47t-29 -61.5t-8 -64.5q0 -85 34 -130.5t101 -45.5q53 0 89 22t54 70t18 124v209h88v-714h-88z" />
    <glyph glyph-name="uni10B0" unicode="&#x10b0;" horiz-adv-x="838" 
d="M275 -10q-70 0 -120.5 31t-77 84.5t-26.5 119.5q0 47 13 89t39 79l76 -30q-18 -32 -27 -67.5t-9 -70.5q0 -43 15 -79t44 -58t72 -22q65 0 98.5 46t33.5 135v467h87v-159q0 -10 -1 -33t-3 -55h4q25 43 61.5 61t76.5 18q53 0 90 -25.5t56.5 -67t19.5 -87.5q0 -36 -10 -70.5
t-28 -64.5l-77 24q14 24 20.5 49t6.5 49q0 34 -12 60.5t-35.5 42.5t-57.5 16q-32 0 -57 -15t-39.5 -44.5t-14.5 -73.5v-94q0 -80 -25.5 -137t-74 -87.5t-118.5 -30.5z" />
    <glyph glyph-name="uni10B1" unicode="&#x10b1;" horiz-adv-x="574" 
d="M301 -10q-69 0 -118.5 30.5t-75.5 87.5t-26 137v469h87v-467q0 -89 35 -135t100 -46q42 0 70.5 22t43 58t14.5 79q0 35 -8.5 70.5t-27.5 67.5l76 30q26 -37 39 -79t13 -89q0 -66 -26 -119.5t-75.5 -84.5t-120.5 -31z" />
    <glyph glyph-name="uni10B2" unicode="&#x10b2;" horiz-adv-x="557" 
d="M86 0v714h171q122 0 183 -51.5t61 -157.5q0 -55 -16.5 -97.5t-49 -71.5t-80 -43.5t-110.5 -14.5h-72v-202h304v-76h-391zM173 354h65q60 0 98.5 15t57 48t18.5 86q0 70 -39.5 103t-122.5 33h-77v-285z" />
    <glyph glyph-name="uni10B3" unicode="&#x10b3;" horiz-adv-x="699" 
d="M532 -168q-9 0 -20 2t-23 3v72q8 -1 17.5 -2.5t20.5 -1.5q33 0 51 20.5t18 53.5q0 29 -17 49.5t-42 30.5q-36 -33 -82.5 -51t-104.5 -18q-73 0 -128 26t-92 74.5t-55.5 116.5t-18.5 152q0 117 34 198.5t100 124t160 42.5q95 0 160 -44t98.5 -126t33.5 -196
q0 -70 -14 -131.5t-47 -115.5q28 -10 49.5 -28t35 -44t13.5 -62q0 -66 -39.5 -105.5t-107.5 -39.5zM350 66q66 0 110.5 33t67 98t22.5 161q0 143 -50.5 216.5t-149.5 73.5q-67 0 -112 -33.5t-67.5 -98t-22.5 -158.5t22.5 -159.5t68 -99t111.5 -33.5z" />
    <glyph glyph-name="uni10B4" unicode="&#x10b4;" horiz-adv-x="748" 
d="M332 0v177q-82 1 -144.5 32.5t-97 92t-34.5 147.5q0 68 22 119t63 86t101 52.5t134 17.5q76 0 134.5 -17t99 -50.5t61.5 -85t21 -120.5q0 -89 -34.5 -149.5t-96.5 -91.5t-144 -33v-177h-85zM332 250v400q-58 -2 -100 -25t-65 -66.5t-23 -108.5q0 -66 22.5 -110
t64.5 -66.5t101 -23.5zM417 250q59 1 100.5 24t64 67t22.5 111q0 65 -22.5 108t-64.5 65.5t-100 24.5v-400z" />
    <glyph glyph-name="uni10B5" unicode="&#x10b5;" horiz-adv-x="562" 
d="M232 0v396h-186v76h186v242h87v-242h187v-76h-187v-396h-87z" />
    <glyph glyph-name="uni10B6" unicode="&#x10b6;" horiz-adv-x="658" 
d="M81 0v471q0 84 30.5 140t86 84.5t132.5 28.5q117 0 180.5 -65.5t63.5 -187.5v-471h-87v470q0 90 -41 134t-119 44q-50 0 -86 -19t-54.5 -58.5t-18.5 -100.5v-470h-87z" />
    <glyph glyph-name="uni10B7" unicode="&#x10b7;" horiz-adv-x="615" 
d="M438 0v226q0 15 1.5 39t3.5 51h-4q-26 -48 -74 -74.5t-107 -26.5q-65 0 -111.5 29.5t-71 86t-24.5 135.5q0 68 16.5 129t48.5 119h98q-21 -30 -37 -69.5t-25 -84.5t-9 -94q0 -55 14 -94.5t43.5 -61t74.5 -21.5q55 0 91 22t54.5 69.5t18.5 124.5v209h87v-714h-88z" />
    <glyph glyph-name="uni10B8" unicode="&#x10b8;" horiz-adv-x="634" 
d="M316 -10q-67 0 -117.5 26t-78.5 70t-28 97q0 24 5 45t17 43l79 -25q-5 -14 -8 -28.5t-3 -28.5q0 -35 15.5 -63t45 -44t72.5 -16q46 0 78 20t48.5 58t16.5 91v88q0 14 0.5 31.5t2 36.5t2.5 37h-5q-30 -50 -73 -76t-101 -26q-63 0 -108.5 28.5t-70 84.5t-24.5 139v136h88
v-134q0 -91 34 -135t102 -44q71 0 112 49.5t41 144.5v119h88v-479q0 -75 -27.5 -130.5t-78.5 -85t-124 -29.5z" />
    <glyph glyph-name="uni10B9" unicode="&#x10b9;" horiz-adv-x="618" 
d="M88 0v714h88v-266h363v-448h-87v374h-276v-374h-88z" />
    <glyph glyph-name="uni10BA" unicode="&#x10ba;" horiz-adv-x="637" 
d="M325 -10q-85 0 -145 44.5t-92 127t-32 196.5q0 111 37 193.5t106 127.5t165 45q51 0 96 -10.5t83 -30.5l-33 -73q-36 18 -72.5 28t-73.5 10q-68 0 -116.5 -35.5t-74 -100.5t-25.5 -155t22.5 -155.5t65.5 -100t103 -34.5q41 0 78 12t72 33v185h87v-297h-87v36
q-35 -22 -75.5 -34t-88.5 -12z" />
    <glyph glyph-name="uni10BB" unicode="&#x10bb;" horiz-adv-x="812" 
d="M279 -10q-70 0 -119.5 30.5t-76.5 84.5t-27 127q0 74 28 128t80.5 83t126.5 29h118v242h87v-242h238v-472h-82v396h-156v-156q0 -80 -25 -136t-73.5 -85t-118.5 -29zM275 66q68 0 101 42.5t33 128.5v159h-116q-75 0 -112 -41.5t-37 -122.5q0 -76 34.5 -121t96.5 -45z" />
    <glyph glyph-name="uni10BC" unicode="&#x10bc;" horiz-adv-x="547" 
d="M88 0v714h171q122 0 183 -50t61 -152q0 -70 -29 -118.5t-85.5 -74t-141.5 -25.5h-72v-82h217v-163h-81v88h-136v-137h-87zM175 369h64q61 0 99.5 14.5t57 45.5t18.5 80q0 67 -39.5 98.5t-122.5 31.5h-77v-270z" />
    <glyph glyph-name="uni10BD" unicode="&#x10bd;" horiz-adv-x="524" 
d="M259 -10q-102 0 -158 49.5t-56 136.5q0 15 2 30t4 28h87q-4 -12 -5.5 -26t-1.5 -30q0 -52 32 -82.5t96 -30.5q62 0 93 30t31 84q0 41 -18.5 67.5t-51.5 46t-75 38.5q-41 18 -72.5 38.5t-52.5 45.5t-32 56.5t-11 70.5q0 56 25 96.5t70 63t105 22.5q59 0 101 -21.5
t63.5 -59.5t21.5 -89q0 -6 -0.5 -13t-1.5 -12h-87q1 5 1.5 11t0.5 12q0 29 -11.5 50.5t-34 34t-55.5 12.5q-52 0 -81 -28.5t-29 -77.5q0 -40 17 -65t48.5 -43.5t74.5 -38.5q52 -23 91 -50.5t60.5 -66t21.5 -96.5q0 -90 -55.5 -141.5t-156.5 -51.5z" />
    <glyph glyph-name="uni10BE" unicode="&#x10be;" horiz-adv-x="625" 
d="M86 714h87v-354h277v354h87v-428h-364v-210h348v-76h-435v714z" />
    <glyph glyph-name="uni10BF" unicode="&#x10bf;" horiz-adv-x="591" 
d="M34 0l221 368l-154 270h-86v76h510v-64l-166 -280l222 -370h-96l-179 305l-179 -305h-93zM308 430l121 208h-236z" />
    <glyph glyph-name="uni10C0" unicode="&#x10c0;" horiz-adv-x="863" 
d="M589 -10q-69 0 -118.5 30.5t-75 87.5t-25.5 137v393h-213v-246h-87v322h387v-467q0 -89 34.5 -135t99.5 -46q42 0 71 22t43 58t14 79q0 35 -8 70.5t-27 67.5l76 30q26 -37 39 -79t13 -89q0 -66 -26.5 -119.5t-76 -84.5t-120.5 -31z" />
    <glyph glyph-name="uni10C1" unicode="&#x10c1;" horiz-adv-x="628" 
d="M88 0v714h87v-175q0 -17 -1 -37.5t-3 -43.5h4q18 29 41 48.5t51.5 29.5t61.5 10q88 0 133 -55t46 -161h100v-75h-186v68q0 76 -25.5 112.5t-84.5 36.5q-45 0 -76 -21.5t-46 -62t-15 -98.5v-290h-87z" />
    <glyph glyph-name="uni10C2" unicode="&#x10c2;" horiz-adv-x="557" 
d="M208 -10q-49 0 -87 7t-76 22v78q39 -14 76.5 -22t78.5 -8q65 0 111.5 30t72 85t25.5 129q0 56 -14 100.5t-41.5 76.5t-68 48.5t-95.5 16.5h-112v161h83v-85h49q70 0 124.5 -22t91.5 -63t55.5 -99.5t18.5 -132.5q0 -99 -35.5 -171t-101 -111.5t-155.5 -39.5z" />
    <glyph glyph-name="uni10C3" unicode="&#x10c3;" horiz-adv-x="608" 
d="M432 0v193q0 16 1.5 39.5t3.5 50.5h-5q-25 -48 -72.5 -74.5t-101.5 -26.5q-62 0 -108.5 26.5t-72.5 76t-26 118.5q0 47 12.5 89.5t37.5 80.5l76 -30q-18 -32 -26 -67t-8 -67q0 -46 14 -80t43 -53t72 -19q53 0 88.5 22t54 69.5t18.5 123.5v242h87v-714h-88z" />
    <glyph glyph-name="uni10C4" unicode="&#x10c4;" horiz-adv-x="635" 
d="M274 0v245q-98 12 -150.5 77.5t-52.5 180.5v211h87v-211q0 -93 40.5 -139t120.5 -46q77 0 118 46t41 139v211h87v-212q0 -75 -24 -129.5t-69.5 -86t-110.5 -40.5v-246h-87z" />
    <glyph glyph-name="uni10C5" unicode="&#x10c5;" horiz-adv-x="758" 
d="M218 -10q-81 0 -126.5 39.5t-45.5 118.5q0 76 48 117t140 41h68v215q0 65 24.5 110.5t70.5 69t110 23.5q97 0 151 -44t54 -125q0 -80 -54.5 -122.5t-154.5 -42.5h-114v-84h244v-191h-82v119h-162v-47q0 -94 -45 -145.5t-126 -51.5zM219 63q40 0 61.5 31t21.5 91v49h-62
q-52 0 -77.5 -21.5t-25.5 -65.5t21 -64t61 -20zM389 463h109q63 0 93.5 23t30.5 69q0 45 -29 70.5t-88 25.5q-57 0 -86.5 -32t-29.5 -96v-60z" />
    <glyph glyph-name="uni10C7" unicode="&#x10c7;" horiz-adv-x="518" 
d="M264 -10q-101 0 -157 53t-56 144q0 57 20 94.5t59 64.5t95 50q45 19 75.5 37.5t46 43.5t15.5 65q0 51 -29 79.5t-79 28.5q-33 0 -55.5 -12.5t-34 -34t-11.5 -50.5q0 -6 0.5 -12t1.5 -11h-87q-1 5 -1.5 11.5t-0.5 12.5q0 51 21.5 89t63.5 59.5t101 21.5t103.5 -22.5
t69.5 -62.5t25 -96q0 -38 -9.5 -68.5t-29 -55.5t-51 -46.5t-75.5 -40.5q-45 -19 -78 -38.5t-51 -45t-18 -66.5q0 -55 30.5 -87t93.5 -32q64 0 96 32t32 86q0 15 -1.5 28t-5.5 25h87q3 -13 4.5 -26.5t1.5 -28.5q0 -88 -55 -138.5t-157 -50.5z" />
    <glyph glyph-name="uni10CD" unicode="&#x10cd;" horiz-adv-x="495" 
d="M34 0v67l318 568h-309v79h411v-67l-319 -568h328v-79h-429z" />
    <glyph glyph-name="uni10D0" unicode="&#x10d0;" horiz-adv-x="499" 
d="M247 -10q-58 0 -103.5 22t-72 65t-26.5 106q0 24 4.5 45t9.5 38h81q-4 -17 -6.5 -37t-2.5 -44q0 -39 14 -66.5t40 -42t62 -14.5t61 14t39 42t14 70q0 54 -20 88t-47 64q-21 24 -41.5 51t-34 62t-13.5 83h85q0 -46 21 -81t48 -68q23 -25 43.5 -53.5t33.5 -63.5t13 -82
q0 -61 -26.5 -105.5t-72 -68.5t-103.5 -24z" />
    <glyph glyph-name="uni10D1" unicode="&#x10d1;" horiz-adv-x="547" 
d="M327 541q52 -11 90 -46.5t59 -92t21 -133.5q0 -66 -15 -117t-44 -87.5t-71 -55.5t-95 -19q-50 0 -91 19t-70 55t-45 87.5t-16 117.5q0 82 23 141.5t67 94t106 40.5q5 9 8 21t3 28q0 20 -9 33t-22 25q-18 17 -35.5 40t-17.5 68h86q0 -24 10 -40t25 -31q17 -16 32 -36
t15 -53q0 -17 -3.5 -31.5t-10.5 -27.5zM274 62q46 0 76 24.5t44.5 71t14.5 111.5q0 66 -14.5 111.5t-44.5 69t-77 23.5q-71 0 -103 -53t-32 -151q0 -65 14.5 -111.5t44.5 -71t77 -24.5z" />
    <glyph glyph-name="uni10D2" unicode="&#x10d2;" horiz-adv-x="537" 
d="M267 -250q-50 0 -91 19t-70 54t-45 84.5t-16 111.5q0 84 25 140t71.5 88t111.5 41q54 9 74.5 37t20.5 68q0 37 -20.5 61.5t-61.5 24.5q-39 0 -60 -22t-21 -60q0 -10 1.5 -19.5t3.5 -19.5h-83q-3 12 -5 24t-2 26q0 42 21 73t58.5 48t86.5 17q50 0 87.5 -18.5t59 -52.5
t21.5 -79q0 -42 -20 -77.5t-66 -52.5v-3q52 -16 83.5 -52t46 -85.5t14.5 -106.5q0 -62 -15 -111.5t-44 -84.5t-70.5 -54t-95.5 -19zM269 -178q46 0 76 24t44.5 68.5t14.5 104.5q0 61 -14.5 104.5t-44.5 66.5t-77 23q-71 0 -103 -51.5t-32 -142.5q0 -60 14.5 -104.5
t44.5 -68.5t77 -24z" />
    <glyph glyph-name="uni10D3" unicode="&#x10d3;" horiz-adv-x="789" 
d="M489 -250q-19 42 -52.5 72.5t-72 46.5t-75.5 16q-35 0 -64.5 -8t-64.5 -25l-28 57q21 11 48.5 19.5t65.5 10.5v3q-61 32 -105.5 79.5t-67.5 112.5t-23 145q0 81 20.5 141t60.5 93t98 33q36 0 65 -12t50 -36t31 -62h4q18 56 61 83t93 27q66 0 112 -32t70 -93.5t24 -148.5
q0 -63 -15 -113.5t-41.5 -85.5t-64 -54t-83.5 -19q-49 0 -87.5 19t-65 54.5t-40 85.5t-13.5 113v52q0 80 -25.5 115t-69.5 35q-31 0 -52.5 -22t-33 -64.5t-11.5 -106.5q0 -71 16 -122.5t43 -88.5t62.5 -62.5t74.5 -44.5q52 -24 94.5 -48t74.5 -55.5t54 -77.5zM533 72
q42 0 67.5 24.5t38 69t12.5 106.5q0 97 -27.5 149t-90.5 52q-60 0 -88.5 -52t-28.5 -149q0 -62 12.5 -107t38.5 -69t66 -24z" />
    <glyph glyph-name="uni10D4" unicode="&#x10d4;" horiz-adv-x="534" 
d="M255 -250q-50 0 -89 17.5t-66 48.5t-41 72t-14 88q0 34 6.5 61.5t13.5 44.5h81q-5 -15 -10 -41.5t-5 -58.5q0 -43 12.5 -79.5t40 -58.5t71.5 -22t71.5 21.5t40 61t12.5 93.5v335q0 68 -27.5 104.5t-83.5 36.5q-34 0 -59.5 -14t-39.5 -41.5t-14 -66.5q0 -24 2.5 -44
t7.5 -38h-81q-6 18 -10 38.5t-4 45.5q0 63 26 106t71 64.5t102 21.5q58 0 102 -24.5t69 -70.5t25 -115v-341q0 -77 -25 -132t-71.5 -84t-113.5 -29z" />
    <glyph glyph-name="uni10D5" unicode="&#x10d5;" horiz-adv-x="525" 
d="M261 -250q-52 0 -92 17t-67.5 46.5t-42 67.5t-14.5 78q0 30 6 57t13 45h81q-5 -16 -9.5 -42t-4.5 -54q0 -34 13 -67t42 -54.5t75 -21.5q44 0 73 21t43.5 58t14.5 86t-16 85t-47 55t-77 19h-36v73h40q62 0 92 39t30 97q0 35 -12.5 62t-37 42t-60.5 15q-37 0 -61 -13.5
t-37 -38.5t-13 -59q0 -17 2.5 -31t6.5 -34h-83q-6 21 -8.5 37t-2.5 34q0 53 25 92.5t69 62t102 22.5q57 0 101 -23t69 -64.5t25 -97.5q0 -67 -34.5 -113t-94.5 -62v-4q40 -7 73 -31t53 -65.5t20 -101.5q0 -72 -27.5 -125t-76 -81t-115.5 -28z" />
    <glyph glyph-name="uni10D6" unicode="&#x10d6;" horiz-adv-x="562" 
d="M295 -10q-49 0 -88 19t-67.5 53.5t-43.5 83t-15 107.5t15 107.5t48 81.5v4q-35 9 -61 31t-40.5 54.5t-14.5 71.5q0 46 18 84t53 60.5t87 22.5q50 0 85.5 -21t54 -56.5t18.5 -81.5q0 -27 -6 -48.5t-18 -37.5v-3q2 -1 5 -1t6 -1q42 -6 75.5 -26t56.5 -53t36 -78.5
t13 -102.5q0 -62 -15 -112t-43 -85t-68 -54t-91 -19zM297 62q44 0 72 24t41.5 68.5t13.5 105.5q0 60 -13.5 103t-41.5 66.5t-73 23.5q-67 0 -97 -51.5t-30 -141.5q0 -61 13.5 -105t41.5 -68.5t73 -24.5zM186 501q39 0 57.5 26.5t18.5 75.5q0 43 -18.5 72.5t-57.5 29.5
t-57.5 -29.5t-18.5 -72.5q0 -41 18.5 -71.5t57.5 -30.5z" />
    <glyph glyph-name="uni10D7" unicode="&#x10d7;" horiz-adv-x="789" 
d="M254 -10q-46 0 -83.5 19t-64 55t-41.5 87.5t-15 117.5q0 89 24.5 150.5t70.5 94t111 32.5q50 0 93.5 -27t61.5 -83h5q11 38 31 62t49.5 36t66.5 12q57 0 96 -32.5t59.5 -91.5t20.5 -139q0 -54 -6.5 -101t-19 -91t-32.5 -91h-85q29 69 42.5 135t13.5 142q0 66 -11.5 109.5
t-32.5 65.5t-53 22q-44 0 -69.5 -35t-25.5 -115v-55q0 -66 -13.5 -117t-40 -87.5t-65 -55.5t-87.5 -19zM256 62q41 0 66.5 24.5t38 71t12.5 111.5q0 98 -28 151t-89 53q-62 0 -90 -53t-28 -151q0 -65 12.5 -111.5t38.5 -71t67 -24.5z" />
    <glyph glyph-name="uni10D8" unicode="&#x10d8;" horiz-adv-x="522" 
d="M108 0q-19 47 -32 91t-19.5 90t-6.5 99q0 86 25 145t72 90t114 31q68 0 115 -31t71.5 -90t24.5 -145q0 -52 -6.5 -99t-19 -90.5t-32.5 -90.5h-85q29 69 42.5 135.5t13.5 145.5q0 67 -15.5 110t-43 63t-65.5 20t-65.5 -20t-43 -63t-15.5 -111q0 -53 6 -99.5t18.5 -90.5
t31.5 -90h-85z" />
    <glyph glyph-name="uni10D9" unicode="&#x10d9;" horiz-adv-x="510" 
d="M250 -250q-65 0 -112.5 29t-72.5 77t-25 103q0 31 5.5 57.5t13.5 44.5h80q-5 -15 -9 -41.5t-4 -54.5q0 -36 13 -68.5t40.5 -53.5t70.5 -21t71 21t42 58t14 86q0 56 -17 96t-48 61.5t-75 21.5h-36v73h40q42 0 69 17t40 44.5t13 58.5q0 34 -13 60t-36 40.5t-55 14.5v72
q54 0 96.5 -22.5t67.5 -62.5t25 -91q0 -62 -34.5 -105.5t-94.5 -58.5v-4q40 -8 73 -33t53 -70.5t20 -114.5q0 -72 -26.5 -125t-74.5 -81t-114 -28z" />
    <glyph glyph-name="uni10DA" unicode="&#x10da;" horiz-adv-x="963" 
d="M614 -250q-20 36 -48 63.5t-61.5 46t-71 28.5t-76.5 10q-44 0 -85.5 -12t-77.5 -33l-30 59q17 9 37.5 17.5t42.5 13.5t42 6v3q-49 18 -91.5 47t-75 71.5t-51 99t-18.5 127.5q0 75 20 131t59.5 87t95.5 31q51 0 82 -24.5t45 -68.5h4q15 44 47 68.5t78 24.5
q49 0 80.5 -24.5t45.5 -68.5h4q15 44 47 68.5t80 24.5q57 0 96 -33t59 -93t20 -144q0 -62 -12.5 -117.5t-38.5 -110.5l-75 26q22 50 30.5 98.5t8.5 104.5q0 99 -24.5 148t-71.5 49q-39 0 -59.5 -35t-20.5 -104v-153h-82v153q0 65 -20 102t-67 37q-43 0 -64.5 -35t-21.5 -104
v-153h-82v153q0 65 -19 102t-61 37q-46 0 -71 -44.5t-25 -132.5q0 -75 20.5 -129t55.5 -91t80.5 -61t94.5 -38q60 -15 117.5 -40t104 -63t71.5 -93z" />
    <glyph glyph-name="uni10DB" unicode="&#x10db;" horiz-adv-x="551" 
d="M267 -10q-66 0 -115 32.5t-75.5 94.5t-26.5 150q0 131 53 200t144 69q35 0 63 -9t49.5 -26.5t36.5 -40.5h5q-1 15 -3 34.5t-2 35.5v51q0 36 -12.5 63t-38.5 42.5t-68 15.5q-33 0 -58.5 -10.5t-39.5 -30t-14 -46.5q0 -7 0.5 -13.5t1.5 -13.5h-81q-4 11 -5 21t-1 19
q0 42 26 74t71 50t100 18q63 0 109 -23.5t71 -67t25 -104.5v-308q0 -140 -55.5 -208.5t-159.5 -68.5zM267 62q70 0 100 51.5t30 139.5v20q0 93 -30 143t-105 50q-63 0 -93.5 -54.5t-30.5 -145.5q0 -97 31.5 -150.5t97.5 -53.5z" />
    <glyph glyph-name="uni10DC" unicode="&#x10dc;" horiz-adv-x="551" 
d="M284 -10q-103 0 -158.5 68.5t-55.5 208.5v315q0 62 23.5 101.5t64 58t90.5 18.5h201v-72h-190q-48 0 -76 -24.5t-28 -79.5v-39q0 -16 -1.5 -38.5t-3.5 -39.5h5q16 24 37 41.5t49.5 27.5t62.5 10q91 0 144 -71t53 -208q0 -88 -26 -150t-75 -94.5t-116 -32.5zM284 62
q66 0 97.5 53.5t31.5 150.5t-30.5 152.5t-92.5 55.5q-51 0 -80.5 -23t-42.5 -67t-13 -107v-24q0 -88 30 -139.5t100 -51.5z" />
    <glyph glyph-name="uni10DD" unicode="&#x10dd;" horiz-adv-x="719" 
d="M108 0q-19 47 -32 90.5t-19.5 89t-6.5 96.5q0 84 20.5 144t60.5 93t99 33q51 0 82 -24.5t45 -68.5h4q15 44 47 68.5t79 24.5q60 0 100 -33t60.5 -93t20.5 -144q0 -50 -6 -96t-18.5 -89.5t-32.5 -90.5h-85q28 69 41.5 135t13.5 142q0 66 -11.5 109.5t-33.5 65.5t-56 22
q-39 0 -59.5 -35t-20.5 -104v-153h-82v153q0 65 -19 102t-61 37q-50 0 -75.5 -49t-25.5 -148q0 -52 6 -97.5t18.5 -89.5t31.5 -90h-85z" />
    <glyph glyph-name="uni10DE" unicode="&#x10de;" horiz-adv-x="520" 
d="M255 -10q-61 0 -108.5 22t-74.5 65t-27 106q0 24 4.5 45t9.5 38h81q-4 -17 -6.5 -37t-2.5 -44q0 -39 14.5 -66.5t42.5 -42t67 -14.5q43 0 71 20t42 56.5t14 85.5q0 48 -16 84.5t-47 57t-79 20.5h-41v73h47q39 0 62.5 10.5t35 29.5t11.5 43q0 37 -19.5 58t-45.5 38
q-22 15 -43 30.5t-34.5 39t-13.5 58.5h86q0 -27 21 -45.5t50 -37.5q22 -14 42 -31.5t32.5 -42t12.5 -59.5q0 -55 -34 -83t-89 -42v-4q37 -7 71.5 -31t56.5 -66t22 -106q0 -71 -26.5 -122t-75 -78.5t-113.5 -27.5z" />
    <glyph glyph-name="uni10DF" unicode="&#x10df;" horiz-adv-x="572" 
d="M288 -250q-50 0 -89 16.5t-66 44t-41 64t-14 76.5q0 31 4.5 52.5t12.5 40.5h81q-5 -17 -8.5 -39t-3.5 -48q0 -34 12.5 -64.5t40 -50.5t70.5 -20q45 0 72.5 21.5t40 61t12.5 93.5v467q-33 -16 -74 -28.5t-84 -18.5v-3q28 -13 48.5 -41.5t20.5 -68.5q0 -41 -18.5 -72
t-50.5 -48t-74 -17q-61 0 -99.5 36t-38.5 89q0 11 1.5 20.5t4.5 19.5h72q-1 -8 -2.5 -15.5t-1.5 -15.5q0 -30 17.5 -49.5t46.5 -19.5q32 0 48.5 21.5t16.5 53.5q0 45 -20.5 67.5t-53.5 28.5v61q71 10 136 27t117 44h73v-543q0 -77 -24.5 -131.5t-71 -83t-113.5 -28.5z" />
    <glyph glyph-name="uni10E0" unicode="&#x10e0;" horiz-adv-x="717" 
d="M107 0q-20 47 -32.5 91t-18.5 90t-6 98v45q0 111 23.5 194t74 136.5t132.5 74.5q47 12 99 22t107 19l14 -74q-25 -4 -53 -8.5t-55 -9.5t-50.5 -9.5t-41.5 -9.5q-38 -10 -71.5 -29.5t-58.5 -53t-41 -90.5h3q17 25 34 38t35 17.5t35 4.5q45 0 75.5 -24.5t44.5 -68.5h3
q15 44 47.5 68.5t79.5 24.5q59 0 99.5 -33t61 -93t20.5 -144q0 -50 -6 -96t-19 -89.5t-33 -90.5h-84q28 69 41.5 135t13.5 142q0 66 -11.5 109.5t-33.5 65.5t-56 22q-39 0 -59.5 -35t-20.5 -104v-153h-82v153q0 65 -19 102t-61 37q-50 0 -75.5 -49t-25.5 -148q0 -52 6 -97.5
t18.5 -89.5t31.5 -90h-85z" />
    <glyph glyph-name="uni10E1" unicode="&#x10e1;" horiz-adv-x="551" 
d="M285 -10q-104 0 -159.5 66t-55.5 196v508h85v-514q0 -85 31 -134.5t99 -49.5q44 0 72 21.5t42 58.5t14 84q0 42 -12 72.5t-30 58.5q-23 37 -42 77.5t-19 101.5h86q0 -45 16.5 -80t39.5 -71q21 -32 35 -70.5t14 -90.5q0 -68 -26 -121t-74.5 -83t-115.5 -30z" />
    <glyph glyph-name="uni10E2" unicode="&#x10e2;" horiz-adv-x="688" 
d="M344 -250q-73 0 -128.5 27.5t-92 80t-55 128t-18.5 172.5q0 115 30 197.5t87.5 130t139.5 56.5q-2 19 -3.5 37.5t-1.5 33.5v47h85v-45q0 -15 -1.5 -34t-3.5 -38q84 -9 141 -58t86 -132t29 -196q0 -93 -18 -168t-54.5 -128.5t-91.5 -82t-130 -28.5zM344 -177q68 0 114 37
t69 111t23 186q0 97 -18.5 163.5t-56 105t-93.5 47.5q2 -21 3.5 -42.5t1.5 -42.5v-206h-85v208q0 20 1.5 41t3.5 41q-57 -9 -94.5 -47.5t-56 -105t-18.5 -162.5q0 -111 24 -185t70 -111.5t112 -37.5z" />
    <glyph glyph-name="uni10E3" unicode="&#x10e3;" 
d="M276 -250q-53 0 -94 17.5t-69 48.5t-42.5 72t-14.5 88q0 34 6.5 61.5t14.5 44.5h80q-5 -15 -10 -41.5t-5 -58.5q0 -43 13 -79.5t43 -58.5t78 -22q46 0 74 21.5t41 61t13 93.5v367q0 51 -17.5 80t-56.5 29q-38 0 -56 -28.5t-18 -76.5v-132h-82v130q0 50 -19 76t-60 26h-62
v72h63q48 0 76.5 -20.5t41.5 -64.5h3q15 44 45.5 67t78.5 23t81 -21.5t50 -59.5t17 -88v-386q0 -76 -24.5 -130.5t-72 -82.5t-116.5 -28z" />
    <glyph glyph-name="uni10E4" unicode="&#x10e4;" horiz-adv-x="770" 
d="M459 -250q-74 0 -128.5 22t-84.5 62.5t-30 94.5q0 10 1 19.5t3 18.5h81q-1 -7 -1.5 -14t-0.5 -14q0 -39 19.5 -65t55.5 -39t84 -13q53 0 86.5 18.5t50.5 51.5t17 75q0 35 -10.5 64t-33 47t-58.5 18h-21v73h37q32 0 56.5 20.5t38 56.5t13.5 83q0 43 -10.5 75.5t-30.5 51
t-50 18.5q-44 0 -70.5 -35t-26.5 -115v-25q0 -54 -13.5 -100t-39 -79t-62.5 -51.5t-84 -18.5q-45 0 -81.5 18.5t-62.5 51.5t-39.5 79t-13.5 100q0 75 23.5 130.5t68 86t105.5 30.5q49 0 91.5 -27t60.5 -83h5q15 53 52 81.5t92 28.5q54 0 93 -29t59 -77t20 -104
q0 -55 -14.5 -96.5t-43 -68t-70.5 -37.5v-4q35 -10 59 -32t36.5 -55.5t12.5 -78.5q0 -62 -29.5 -110.5t-83.5 -76t-128 -27.5zM249 122q38 0 62.5 23t37 63t12.5 91q0 52 -12.5 91t-37 61t-62.5 22q-39 0 -64 -22t-37 -61t-12 -91q0 -51 12.5 -91t37 -63t63.5 -23z" />
    <glyph glyph-name="uni10E5" unicode="&#x10e5;" horiz-adv-x="534" 
d="M255 -250q-50 0 -89 17.5t-66 48.5t-41 72t-14 88q0 34 6.5 61.5t13.5 44.5h81q-5 -15 -10 -41.5t-5 -58.5q0 -43 12.5 -79.5t40 -58.5t71.5 -22t71.5 21.5t40 61t12.5 93.5v278q0 96 -27.5 147t-93.5 51q-29 0 -52.5 -14t-37 -41.5t-13.5 -66.5q0 -24 2.5 -44t7.5 -38
h-81q-6 18 -10 38.5t-4 45.5q0 63 25 106t64.5 64.5t83.5 21.5q31 0 55.5 -10t45 -27.5t35.5 -41.5h5q-1 17 -3 39.5t-2 38.5v215h86v-765q0 -77 -25 -132t-71.5 -84t-113.5 -29z" />
    <glyph glyph-name="uni10E6" unicode="&#x10e6;" horiz-adv-x="719" 
d="M460 -250q-18 42 -47 72.5t-63.5 46t-70.5 15.5q-34 0 -63.5 -7.5t-64.5 -24.5l-27 57q20 11 48 19.5t66 10.5v3q-93 47 -140.5 131t-47.5 200q0 85 20.5 146t60.5 94t99 33q51 0 82 -24.5t45 -68.5h4q15 44 47 68.5t79 24.5q60 0 100 -33t60.5 -93t20.5 -144
q0 -62 -12 -117.5t-39 -110.5l-75 26q22 50 30.5 98.5t8.5 104.5q0 66 -11.5 109.5t-33.5 65.5t-56 22q-39 0 -59.5 -35t-20.5 -104v-153h-82v153q0 65 -19 102t-61 37q-50 0 -75.5 -49.5t-25.5 -150.5q0 -68 14.5 -118.5t40 -86t59.5 -61t73 -45.5q52 -24 89.5 -48t65 -55
t48.5 -78z" />
    <glyph glyph-name="uni10E7" unicode="&#x10e7;" horiz-adv-x="542" 
d="M263 -250q-50 0 -89 16.5t-66 44t-41 64t-14 76.5q0 31 4.5 52.5t12.5 40.5h80q-5 -17 -8.5 -39t-3.5 -48q0 -34 13 -64.5t40.5 -50.5t70.5 -20q45 0 72 21.5t40 61t13 93.5v129q0 16 0.5 31.5t2 31t2.5 31.5h-5q-23 -43 -62.5 -64t-88.5 -21q-59 0 -101 25.5t-63.5 75.5
t-21.5 124q0 52 10.5 95t25.5 80h84q-14 -41 -23 -81t-9 -93q0 -50 12.5 -84.5t38 -52.5t64.5 -18q43 0 73 18.5t46 56t16 96.5v158h84v-541q0 -77 -24.5 -132t-71 -84t-113.5 -29z" />
    <glyph glyph-name="uni10E8" unicode="&#x10e8;" horiz-adv-x="551" 
d="M267 -10q-66 0 -115 32t-75.5 92t-26.5 143t24 140.5t68.5 88t104.5 30.5q35 0 63 -9t49.5 -26.5t36.5 -40.5h5q-1 15 -3 34.5t-2 35.5v97q0 33 -8.5 54t-23.5 31t-36 10q-29 0 -47.5 -18.5t-18.5 -54.5v-47h-83v45q0 34 -18 52.5t-44 18.5q-16 0 -31 -4t-30 -9l-22 66
q19 8 40 13.5t46 5.5q29 0 56 -13.5t43 -54.5h3q17 41 49 54.5t64 13.5q38 0 71.5 -16.5t54.5 -51.5t21 -92v-353q0 -88 -25 -147.5t-72.5 -89.5t-117.5 -30zM267 62q70 0 100 50t30 131v20q0 57 -13 98t-42.5 63t-79.5 22q-42 0 -69.5 -24t-41 -67t-13.5 -99q0 -60 14 -103
t42.5 -67t72.5 -24z" />
    <glyph glyph-name="uni10E9" unicode="&#x10e9;" horiz-adv-x="542" 
d="M70 0v600q0 49 20.5 87.5t58.5 60.5t90 22q49 0 86 -19t58 -51.5t21 -75.5q0 -32 -13 -61.5t-45 -51.5v-3q68 -15 108 -77.5t40 -166.5q0 -50 -7.5 -100.5t-18 -93t-21.5 -70.5h-86q11 31 21.5 72.5t17 89t6.5 95.5q0 62 -15 104t-42 63.5t-65 21.5q-39 0 -68 -20
t-45.5 -60.5t-16.5 -104.5v-261h-84zM150 434h5q12 22 30 38.5t48 32.5q28 15 46.5 30t28 34.5t9.5 47.5q0 37 -21 58.5t-59 21.5t-60.5 -26.5t-22.5 -70.5v-94v-19.5t-1 -24t-3 -28.5z" />
    <glyph glyph-name="uni10EA" unicode="&#x10ea;" horiz-adv-x="598" 
d="M315 -250q-69 0 -119 26t-82 77.5t-48 128t-16 177.5q0 72 10 139.5t28.5 127.5t42.5 110h85q-24 -51 -42 -112t-28 -127.5t-10 -136.5q0 -108 17.5 -184t57.5 -115t105 -39q71 0 110 41.5t39 129.5q0 48 -15.5 84.5t-46.5 57.5t-79 21h-39v73h53q39 0 63 10.5t35 29.5
t11 44q0 35 -12 57t-30 38q-27 23 -48.5 51t-21.5 77h86q1 -29 17.5 -49t38.5 -41q24 -22 41.5 -49.5t17.5 -73.5q0 -57 -34 -86t-90 -43v-4q38 -7 69.5 -30.5t51.5 -66t20 -107.5q0 -72 -28.5 -125t-81.5 -82t-128 -29z" />
    <glyph glyph-name="uni10EB" unicode="&#x10eb;" horiz-adv-x="551" 
d="M267 -10q-66 0 -115 32.5t-75.5 94.5t-26.5 150q0 137 53 208t144 71q35 0 63 -10t49.5 -27.5t36.5 -41.5h5q-1 17 -3 39.5t-2 38.5v215h86v-493q0 -140 -55.5 -208.5t-159.5 -68.5zM267 62q70 0 100 51.5t30 139.5v16q0 101 -30 153t-105 52q-63 0 -93.5 -55.5
t-30.5 -152.5t31.5 -150.5t97.5 -53.5z" />
    <glyph glyph-name="uni10EC" unicode="&#x10ec;" horiz-adv-x="551" 
d="M284 -10q-69 0 -117 30t-72.5 89.5t-24.5 147.5v353q0 57 20.5 92t54 51.5t71.5 16.5q33 0 65 -13.5t48 -54.5h3q16 41 43 54.5t56 13.5q26 0 47 -5.5t39 -13.5l-21 -66q-15 5 -30 9t-31 4q-27 0 -45 -18t-18 -49v-49h-83v51q0 33 -18.5 51t-47.5 18q-20 0 -35.5 -10
t-24 -31t-8.5 -54v-97q0 -16 -1.5 -35.5t-3.5 -34.5h5q16 23 37 40.5t49.5 26.5t62.5 9q61 0 105 -30.5t68 -88t24 -140.5t-26 -143t-75 -92t-116 -32zM284 62q44 0 72.5 24t42.5 67t14 103q0 56 -13.5 99t-40.5 67t-69 24q-51 0 -80.5 -22t-42.5 -63t-13 -98v-20
q0 -81 30 -131t100 -50z" />
    <glyph glyph-name="uni10ED" unicode="&#x10ed;" horiz-adv-x="541" 
d="M279 -250q-50 0 -89.5 17.5t-67 48t-41.5 70t-14 83.5q0 35 6.5 62.5t13.5 44.5h81q-5 -15 -10 -41.5t-5 -59.5q0 -39 13 -74t41 -57t71 -22q46 0 73 22t39 58.5t12 79.5q0 48 -11.5 83t-28.5 67q-17 34 -32.5 71.5t-21.5 83.5h-3q-20 -26 -49.5 -40t-66.5 -14
q-34 0 -67.5 17t-55 51t-21.5 83q0 51 22.5 85t59.5 50.5t80 16.5h88v224h84v-224h106v-72h-106v-111q0 -59 18 -102t42 -86q21 -39 36 -84t15 -104q0 -65 -24.5 -116.5t-71.5 -81t-115 -29.5zM210 303q44 0 64.5 27t20.5 66v68h-78q-42 0 -64 -21t-22 -59q0 -39 22.5 -60
t56.5 -21z" />
    <glyph glyph-name="uni10EE" unicode="&#x10ee;" horiz-adv-x="551" 
d="M284 -10q-103 0 -158.5 68.5t-55.5 208.5v493h85v-215q0 -16 -1.5 -38.5t-3.5 -39.5h5q16 24 37 41.5t49.5 27.5t62.5 10q91 0 144 -71t53 -208q0 -88 -26 -150t-75 -94.5t-116 -32.5zM284 62q66 0 97.5 53.5t31.5 150.5t-30.5 152.5t-92.5 55.5q-76 0 -106 -52t-30 -153
v-16q0 -88 30 -139.5t100 -51.5z" />
    <glyph glyph-name="uni10EF" unicode="&#x10ef;" horiz-adv-x="513" 
d="M300 312q0 -35 11.5 -64t31 -54.5t41.5 -51.5q22 -25 41 -52.5t31 -61t12 -75.5q0 -61 -26.5 -107t-74.5 -71t-112 -25q-50 0 -89 16.5t-66 44t-41 64t-14 76.5q0 31 4.5 52.5t12.5 40.5h81q-5 -17 -8.5 -39t-3.5 -48q0 -34 12.5 -64.5t40 -50.5t71.5 -20q37 0 65 16
t44 44.5t16 66.5q0 35 -10.5 63t-27 52t-36.5 45q-22 27 -43 56t-34.5 64.5t-13.5 80.5v42l-160 34v72l160 -33v121h85v-140l158 -33v-72l-158 33v-22z" />
    <glyph glyph-name="uni10F0" unicode="&#x10f0;" horiz-adv-x="514" 
d="M254 -10q-69 0 -116 25t-71 66t-24 87q0 13 2 25.5t5 25.5h82q-2 -8 -3 -17.5t-1 -19.5q0 -30 12 -57.5t40 -45t74 -17.5q42 0 69 14t40 36t13 49q0 46 -28 74t-91 28h-44v73h59q49 0 71.5 15t22.5 49q0 29 -23.5 46t-76.5 17h-53v73h59q46 0 61.5 15t15.5 35
q0 24 -18 37.5t-42 24.5q-22 10 -44.5 23t-37 33.5t-14.5 55.5h85q2 -22 22.5 -36t48.5 -27q21 -10 41.5 -23t33.5 -32.5t13 -49.5q0 -32 -24 -54.5t-73 -32.5v-4q28 -3 54 -15t43 -33.5t17 -52.5q0 -36 -15.5 -57t-41.5 -31t-57 -15v-4q38 -6 66 -23.5t43 -44.5t15 -65
q0 -48 -26.5 -86.5t-73.5 -61t-110 -22.5z" />
    <glyph glyph-name="uni10F1" unicode="&#x10f1;" horiz-adv-x="603" 
d="M331 -10q-99 0 -161 46.5t-91 137t-29 222.5q0 65 10 130t28.5 124.5t42.5 109.5h85q-24 -51 -42 -111.5t-28 -124t-10 -127.5q0 -107 18.5 -182.5t61.5 -114.5t116 -39q61 0 97 27.5t36 72.5q0 46 -28 74t-91 28h-44v73h59q49 0 71.5 15t22.5 49q0 29 -23.5 46t-76.5 17
h-53v73h59q31 0 47.5 8t23 21t6.5 26q0 24 -12.5 38t-30.5 25q-16 11 -31.5 23.5t-26 32.5t-10.5 50h85q0 -22 15.5 -37t34.5 -27q24 -14 44 -36.5t20 -65.5q0 -36 -25.5 -58t-71.5 -31v-4q28 -3 54 -15t43 -33.5t17 -52.5q0 -36 -15.5 -57t-41.5 -31t-57 -15v-4
q38 -6 66 -23.5t43 -44.5t15 -65q0 -49 -27.5 -87.5t-77 -60.5t-117.5 -22z" />
    <glyph glyph-name="uni10F2" unicode="&#x10f2;" horiz-adv-x="532" 
d="M60 0v72q35 0 66.5 4t71.5 15v3q-49 26 -81.5 63.5t-49.5 84t-17 95.5q0 43 14 81t42 67t68 45t92 16t92 -16t68 -45t42 -67t14 -81q0 -49 -17 -95.5t-49.5 -84t-81.5 -63.5v-3q41 -11 72 -15t66 -4v-72q-60 0 -110 13t-96 40q-46 -27 -96 -40t-110 -13zM266 122
q38 22 67 52t45.5 70.5t16.5 93.5q0 39 -15.5 69.5t-44 48.5t-69.5 18q-40 0 -69 -18t-44.5 -48.5t-15.5 -69.5q0 -53 16.5 -93.5t45.5 -70.5t67 -52z" />
    <glyph glyph-name="uni10F3" unicode="&#x10f3;" horiz-adv-x="525" 
d="M261 -250q-52 0 -92 17t-67.5 46.5t-42 67.5t-14.5 78q0 30 6 57t13 45h81q-5 -16 -9.5 -42t-4.5 -54q0 -34 13 -67t42 -54.5t75 -21.5q44 0 73 21t43.5 58t14.5 86q0 88 -40.5 129.5t-103.5 41.5h-50v61l161 245h-272v72h370v-61l-167 -248q48 -4 91.5 -31t71 -79
t27.5 -133q0 -72 -27.5 -125t-76 -81t-115.5 -28z" />
    <glyph glyph-name="uni10F4" unicode="&#x10f4;" horiz-adv-x="515" 
d="M255 -250q-61 0 -108.5 22t-74.5 65t-27 106q0 24 4.5 45t9.5 38h81q-4 -17 -6.5 -37t-2.5 -44q0 -39 14.5 -66.5t42.5 -42t67 -14.5q43 0 71 20t42 56.5t14 85.5q0 48 -16 84.5t-47 57t-79 20.5h-41v73h47q39 0 62.5 13.5t35 38.5t11.5 58t-13.5 55.5t-36 39.5t-48.5 32
q-33 18 -66.5 40t-55.5 54.5t-22 81.5q0 44 19.5 74.5t54 47t80.5 16.5q37 0 70 -9t64 -26l-29 -67q-29 16 -54 23.5t-49 7.5q-34 0 -53.5 -16.5t-19.5 -49.5q0 -29 14.5 -49t38 -35.5t51.5 -30.5q34 -19 67 -41.5t54.5 -57t21.5 -88.5q0 -64 -34 -98t-89 -48v-4
q37 -7 71.5 -31t56.5 -66t22 -106q0 -72 -26.5 -123t-74.5 -78t-114 -27z" />
    <glyph glyph-name="uni10F5" unicode="&#x10f5;" horiz-adv-x="587" 
d="M253 -10q-95 0 -149 45.5t-54 130.5q0 80 53.5 124t152.5 44h115v109h-128q-89 0 -136 41.5t-47 119.5t52.5 122t144.5 44q65 0 109 -23t67 -67t23 -107v-59h97v-71h-97v-109h97v-71h-97v-68q0 -100 -51.5 -152.5t-151.5 -52.5zM255 61q60 0 88.5 35.5t28.5 104.5v62
h-122q-55 0 -84 -25.5t-29 -71.5q0 -49 30 -77t88 -28zM248 514h124v59q0 64 -29 95t-87 31q-53 0 -81 -24.5t-28 -69.5q0 -44 25 -67.5t76 -23.5z" />
    <glyph glyph-name="uni10F6" unicode="&#x10f6;" horiz-adv-x="837" 
d="M341 -250q-21 0 -39.5 4.5t-30.5 11.5v68q8 -4 23 -8t28 -4q28 0 41 17t13 68v84q0 19 1.5 43t3.5 42h-5q-14 -26 -34.5 -46t-47 -30t-59.5 -10q-88 0 -136.5 73.5t-48.5 206.5q0 132 48.5 204t136.5 72q34 0 60 -10.5t46.5 -30t34.5 -46.5h4q-1 20 -2.5 40t-1.5 44v70
q0 59 16.5 93.5t46 49t64.5 14.5q19 0 36.5 -4t27.5 -9v-69q-9 4 -22 7t-26 3q-30 0 -44 -17.5t-14 -69.5v-68q0 -24 -1 -44t-4 -40h5q15 27 35 46.5t46.5 30t59.5 10.5q88 0 136.5 -72t48.5 -204q0 -133 -48.5 -206.5t-136.5 -73.5q-32 0 -58.5 10t-47 30t-35.5 46h-5
q2 -18 3.5 -42t1.5 -43v-85q0 -58 -15 -92.5t-42 -49t-63 -14.5zM252 62q62 0 93 46t31 151v32q0 95 -30 139.5t-93 44.5q-57 0 -86.5 -51.5t-29.5 -152.5t29.5 -155t85.5 -54zM585 62q56 0 85.5 54t29.5 155t-29 152.5t-87 51.5q-62 0 -92.5 -44.5t-30.5 -139.5v-32
q0 -105 31 -151t93 -46z" />
    <glyph glyph-name="uni10F7" unicode="&#x10f7;" horiz-adv-x="498" 
d="M248 -250q-60 0 -105.5 24.5t-71.5 70.5t-26 110q0 70 24.5 117.5t66 82t92.5 63.5q43 26 70.5 47t40.5 46.5t13 63.5q0 48 -25.5 74t-75.5 26q-52 0 -77.5 -26t-25.5 -75q0 -8 1 -16t3 -15h-85q-1 8 -2 17t-1 18q0 51 22 88.5t64 58.5t102 21t101.5 -21t63.5 -59t22 -89
q0 -53 -19.5 -92t-58 -71t-97.5 -66q-38 -21 -67.5 -46.5t-46.5 -60.5t-17 -87q0 -63 31.5 -97.5t82.5 -34.5q52 0 85.5 32.5t33.5 100.5q0 21 -2.5 38.5t-7.5 29.5h88q5 -14 7 -31.5t2 -37.5q0 -68 -26.5 -113t-72.5 -68t-106 -23z" />
    <glyph glyph-name="uni10F8" unicode="&#x10f8;" horiz-adv-x="542" 
d="M279 -250q-66 0 -113 29t-71.5 84t-24.5 132v541h84v-158q0 -59 16 -96.5t46 -56t73 -18.5q39 0 64.5 18t38 52.5t12.5 84.5q0 53 -9 93t-24 81h84q16 -37 26.5 -80t10.5 -95q0 -74 -22 -124t-63 -75.5t-101 -25.5q-48 0 -88 21t-63 64h-5q2 -16 3 -31.5t1.5 -31
t0.5 -31.5v-129q0 -54 12.5 -93.5t40.5 -61t72 -21.5q43 0 70 20t40 50.5t13 64.5q0 26 -3.5 48t-8.5 39h81q8 -19 12.5 -40.5t4.5 -52.5q0 -40 -14 -76.5t-41 -64t-66 -44t-89 -16.5z" />
    <glyph glyph-name="uni10F9" unicode="&#x10f9;" horiz-adv-x="547" 
d="M275 546q50 0 91 -18.5t70 -53.5t45 -85t16 -112q0 -83 -24.5 -139.5t-71.5 -87.5t-112 -42q-54 -8 -74.5 -36t-20.5 -68q0 -38 20.5 -62t61.5 -24q40 0 60.5 21.5t20.5 59.5q0 11 -1 20t-4 20h83q3 -13 5 -25t2 -25q0 -41 -21 -72.5t-58.5 -49t-86.5 -17.5
q-50 0 -87.5 19t-59 53t-21.5 78q0 43 20 78t66 52v3q-51 16 -83 52.5t-46.5 86t-14.5 105.5q0 62 15 112t44 85t70.5 53.5t95.5 18.5zM273 474q-46 0 -76 -23.5t-44.5 -67.5t-14.5 -106q0 -60 14.5 -103.5t45 -67t76.5 -23.5q71 0 103 51.5t32 142.5q0 61 -14.5 105t-44 68
t-77.5 24z" />
    <glyph glyph-name="uni10FA" unicode="&#x10fa;" horiz-adv-x="436" 
d="M107 -100v75l84 34v3q-44 14 -75.5 47.5t-48.5 85t-17 120.5q0 95 28 157.5t78.5 93t118.5 30.5q38 0 71 -7.5t56 -19.5l-26 -71q-22 9 -49 16t-51 7q-47 0 -77.5 -23t-45.5 -68.5t-15 -113.5q0 -65 15 -110.5t45.5 -68.5t74.5 -23q36 0 65.5 8t55.5 21v-79z" />
    <glyph glyph-name="uni10FB" unicode="&#x10fb;" horiz-adv-x="480" 
d="M369 203q-26 0 -41.5 16.5t-15.5 48.5t15 48.5t42 16.5q28 0 42.5 -17t14.5 -48t-15 -48t-42 -17zM119 -14q-28 0 -42.5 17.5t-14.5 47.5q0 31 14.5 48t42.5 17t42.5 -17t14.5 -48q0 -30 -15 -47.5t-42 -17.5zM119 419q-28 0 -42.5 17t-14.5 48q0 32 14.5 48.5t42.5 16.5
q29 0 43 -17.5t14 -47.5q0 -31 -15 -48t-42 -17z" />
    <glyph glyph-name="uni10FC" unicode="&#x10fc;" horiz-adv-x="333" 
d="M169 406q-62 0 -95.5 41t-33.5 118v171q0 39 15.5 62.5t40.5 34.5t55 11h124v-58h-116q-21 0 -33.5 -10.5t-12.5 -34.5v-16q0 -10 -1 -23t-3 -26h3q12 22 33 34t50 12q49 0 78.5 -39.5t29.5 -116.5q0 -75 -35 -117.5t-99 -42.5zM170 467q31 0 44.5 26t13.5 72
q0 48 -14.5 73t-42.5 25q-33 0 -47 -23t-14 -68v-13q0 -44 15 -68t45 -24z" />
    <glyph glyph-name="uni10FD" unicode="&#x10fd;" horiz-adv-x="498" 
d="M250 -10q-60 0 -106 23t-72.5 68t-26.5 113q0 20 2.5 37.5t6.5 31.5h88q-4 -12 -6.5 -29.5t-2.5 -38.5q0 -68 33.5 -100.5t84.5 -32.5t82.5 34.5t31.5 97.5q0 50 -17 81.5t-46.5 54t-67.5 45.5q-58 34 -97 65.5t-58 69.5t-19 90t21.5 90t63.5 59t102 21q59 0 101.5 -21
t64.5 -59t22 -89q0 -9 -0.5 -17.5t-2.5 -16.5h-85q2 7 2.5 14.5t0.5 16.5q0 48 -25.5 74.5t-77.5 26.5q-49 0 -75 -26.5t-26 -73.5q0 -38 13 -62.5t41 -45.5t71 -47q38 -21 71 -44t58 -51.5t39 -65.5t14 -88q0 -64 -25.5 -110t-71 -70.5t-106.5 -24.5z" />
    <glyph glyph-name="uni10FE" unicode="&#x10fe;" horiz-adv-x="532" 
d="M60 536q60 0 110 -12.5t96 -40.5q46 28 96 40.5t110 12.5v-71q-35 0 -66 -4.5t-72 -14.5v-3q49 -26 81.5 -64t49.5 -84t17 -96q0 -43 -14 -80.5t-42 -66.5t-68 -45.5t-92 -16.5t-92 16.5t-68 45.5t-42 66.5t-14 80.5q0 50 17 96t49.5 84t81.5 64v3q-40 10 -71.5 14.5
t-66.5 4.5v71zM266 415q-38 -23 -67 -53t-45.5 -70t-16.5 -93q0 -39 15.5 -70t44.5 -49t69 -18q41 0 69.5 18t44 49t15.5 70q0 53 -16.5 93t-45.5 70t-67 53z" />
    <glyph glyph-name="uni10FF" unicode="&#x10ff;" horiz-adv-x="547" 
d="M497 269q0 -66 -15 -117t-44 -87.5t-71 -55.5t-95 -19q-50 0 -91 19t-70 55t-45 87.5t-16 117.5q0 89 26.5 150.5t76.5 94t121 32.5q67 0 117 -32t78 -93.5t28 -151.5zM138 269q0 -65 14.5 -111.5t44.5 -71t77 -24.5q46 0 76 24.5t44.5 71t14.5 111.5q0 66 -14.5 111.5
t-44.5 69t-77 23.5q-71 0 -103 -53t-32 -151z" />
    <glyph glyph-name="uni1C90" unicode="&#x1c90;" horiz-adv-x="551" 
d="M272 -9q-66 0 -116 27.5t-78 78.5t-28 119q0 31 4.5 62.5t20.5 73.5h88q-13 -38 -17.5 -71t-4.5 -59q0 -68 33 -111t98 -43q46 0 74.5 21t42.5 58.5t14 86.5q0 51 -11.5 91.5t-30.5 75t-41 64.5q-26 39 -49 76t-34.5 79t-5.5 94h88q-4 -42 6.5 -77t30.5 -67t43 -67
q24 -34 46 -73.5t36.5 -88t14.5 -109.5q0 -74 -27 -128.5t-77 -83.5t-120 -29z" />
    <glyph glyph-name="uni1C91" unicode="&#x1c91;" horiz-adv-x="575" 
d="M286 -9q-48 0 -90 18t-73.5 52t-49 83t-17.5 110q0 83 29.5 141.5t82 89t121.5 30.5q64 0 116.5 -30t83.5 -88.5t31 -142.5q0 -61 -17 -109.5t-48.5 -83t-74 -52.5t-94.5 -18zM288 68q43 0 74 22t48 63.5t17 100.5t-17 99.5t-48.5 62.5t-74.5 22q-63 0 -101 -48t-38 -136
q0 -58 17 -100t49 -64t74 -22zM335 497l-84 5q8 10 12.5 22.5t4.5 27.5q0 21 -12 35t-26 25q-13 10 -25.5 24t-19 33t-3.5 45h89q-1 -21 9.5 -35t26.5 -28q20 -15 35 -35.5t15 -51.5q0 -20 -6 -37t-16 -30z" />
    <glyph glyph-name="uni1C92" unicode="&#x1c92;" horiz-adv-x="564" 
d="M281 -9q-49 0 -91 18t-73.5 51t-49 79.5t-17.5 102.5q0 75 27 128t75.5 83t112.5 38q57 7 80 30t23 57t-23.5 54.5t-63.5 20.5t-64 -20.5t-24 -53.5q0 -9 1.5 -16t2.5 -16h-88q-2 11 -3.5 21t-1.5 21q0 40 23 70t63 47.5t91 17.5q52 0 91.5 -18t62.5 -50.5t23 -75.5
q0 -38 -18.5 -69t-61.5 -47v-3q60 -19 98 -73t38 -146q0 -56 -17 -102.5t-48 -79.5t-74 -51t-94 -18zM282 68q43 0 74 21.5t48 60.5t17 92q0 54 -17 93t-48.5 59t-73.5 20q-43 0 -74 -20.5t-48 -58.5t-17 -93q0 -52 17 -91t48.5 -61t73.5 -22z" />
    <glyph glyph-name="uni1C93" unicode="&#x1c93;" horiz-adv-x="838" 
d="M520 0q-6 27 -25.5 46.5t-48 33t-62.5 20t-67 6.5q-36 0 -73 -8t-66 -24l-31 61q20 11 47 19t65 10v3q-64 26 -110 70.5t-69.5 105t-23.5 133.5t21 129t63.5 87.5t105.5 31.5q38 0 68 -11.5t51.5 -33.5t31.5 -56h4q12 33 37 55.5t58 34t70 11.5q69 0 117.5 -30t73.5 -85
t25 -129q0 -54 -15 -98t-43.5 -76t-68 -49.5t-88.5 -17.5q-52 0 -92.5 17t-68 49.5t-42 76t-14.5 96.5v36q0 44 -11 73.5t-33.5 44.5t-55.5 15t-56.5 -19.5t-35 -57.5t-11.5 -94q0 -75 23 -126t60.5 -84t84 -54t94.5 -37q37 -12 70.5 -26.5t60 -34.5t44 -48t20.5 -66h-84z
M565 315q44 0 71 21t40.5 57.5t13.5 85.5q0 51 -13 89t-40.5 58.5t-70.5 20.5t-70.5 -20.5t-40 -58.5t-12.5 -89q0 -48 12.5 -85t40 -58t69.5 -21z" />
    <glyph glyph-name="uni1C94" unicode="&#x1c94;" horiz-adv-x="570" 
d="M272 -9q-70 0 -120 28t-76 76t-26 107q0 29 4.5 52.5t11.5 41.5h86q-5 -17 -8 -40.5t-3 -47.5q0 -38 14 -70t43 -51t74 -19q46 0 75.5 18.5t43.5 53t14 81.5v305q0 56 -32.5 88.5t-86.5 32.5q-36 0 -63 -13t-41.5 -37t-14.5 -60q0 -20 2 -38.5t5 -36.5h-87q-5 17 -8 37.5
t-3 41.5q0 61 28 101t75.5 61t106.5 21t106 -23t74 -66.5t27 -106.5v-310q0 -71 -26 -122t-75.5 -78t-119.5 -27z" />
    <glyph glyph-name="uni1C95" unicode="&#x1c95;" horiz-adv-x="558" 
d="M280 -10q-71 0 -122.5 26.5t-79.5 73t-28 106.5q0 19 3 39.5t9 41.5h87q-4 -19 -6 -36.5t-2 -33.5q0 -64 34.5 -102t104.5 -38q45 0 75.5 18t45.5 50.5t15 74.5t-16.5 72.5t-46.5 47.5t-74 17h-44v76h48q60 0 88.5 35t28.5 85q0 32 -13.5 55.5t-39.5 36.5t-62 13
q-37 0 -63.5 -12.5t-40.5 -35t-14 -52.5q0 -15 1.5 -28t5.5 -29h-89q-4 18 -6 32.5t-2 33.5q0 49 26 86.5t73 59t109 21.5q61 0 107.5 -22t73 -61t26.5 -93q0 -63 -32 -104t-87 -56v-3q36 -6 66.5 -28t49.5 -59t19 -91q0 -65 -28 -114.5t-79 -76t-121 -26.5z" />
    <glyph glyph-name="uni1C96" unicode="&#x1c96;" horiz-adv-x="598" 
d="M314 -10q-52 0 -93.5 18t-71 51t-45.5 78t-16 100q0 56 14.5 100.5t45.5 74.5v3q-35 9 -61.5 30t-41 52t-14.5 68q0 43 19.5 79t56.5 58t91 22q53 0 90.5 -20t58 -54t20.5 -75q0 -24 -6.5 -46t-20.5 -38v-2q3 -1 6 -1t8 -1q59 -7 101 -38.5t64.5 -83t22.5 -121.5
q0 -57 -15.5 -104t-45 -80.5t-71.5 -51.5t-96 -18zM316 67q47 0 76.5 21.5t43.5 61.5t14 94q0 55 -14 94t-43.5 60.5t-77.5 21.5q-71 0 -102.5 -47t-31.5 -129q0 -54 14 -94t43.5 -61.5t77.5 -21.5zM198 471q41 0 61 24.5t20 66.5q0 37 -20 63t-61 26t-60 -26t-19 -63
q0 -36 19.5 -63.5t59.5 -27.5z" />
    <glyph glyph-name="uni1C97" unicode="&#x1c97;" horiz-adv-x="887" 
d="M628 724q57 0 102 -31.5t71 -100t26 -180.5q0 -87 -9.5 -156.5t-26.5 -130.5t-42 -125h-92q26 65 42.5 127.5t25.5 131t9 150.5q0 88 -14.5 140.5t-40 75t-58.5 22.5q-34 0 -57 -17.5t-34 -49t-11 -73.5q0 -24 1.5 -50.5t3 -51.5t1.5 -48q0 -125 -25 -206t-76.5 -121
t-131.5 -40t-131.5 41t-76 122t-24.5 204q1 125 26 206t76 121t130 40q42 0 75 -11.5t58 -35t41 -59.5h2q14 39 39.5 62.5t57.5 33.5t63 10zM292 67q50 0 81 31t45 95t14 164q0 102 -14 165.5t-45 94t-81 30.5t-80.5 -31t-44.5 -95t-14 -164q0 -101 14.5 -165t45 -94.5
t79.5 -30.5z" />
    <glyph glyph-name="uni1C98" unicode="&#x1c98;" horiz-adv-x="585" 
d="M122 0q-19 58 -33 116.5t-21.5 127.5t-7.5 156q0 114 30 185.5t82.5 105t120.5 33.5t120 -33.5t82 -105t30 -185.5q0 -87 -7 -156t-21 -127.5t-34 -116.5h-90q20 58 33 116t19.5 126t6.5 155q0 92 -17 147t-48.5 79t-73.5 24q-43 0 -74.5 -24t-48.5 -79t-17 -147
q0 -87 7 -155t20 -126t33 -116h-91z" />
    <glyph glyph-name="uni1C99" unicode="&#x1c99;" horiz-adv-x="542" 
d="M267 -10q-67 0 -117 26.5t-77.5 73t-27.5 106.5q0 19 3 39.5t9 41.5h87q-4 -19 -6.5 -36.5t-2.5 -33.5q0 -64 34 -102t97 -38q46 0 75.5 17.5t44 50.5t14.5 76q0 50 -15 84.5t-45.5 53.5t-75.5 19h-38v76h41q44 0 69.5 15t37 39t11.5 52q0 29 -12 51.5t-34 35.5t-54 14
v74q55 0 98 -21t67.5 -58t24.5 -86q0 -57 -29.5 -96t-85.5 -54v-4q37 -7 67 -31t47.5 -65.5t17.5 -101.5q0 -67 -27.5 -115.5t-78 -75.5t-119.5 -27z" />
    <glyph glyph-name="uni1C9A" unicode="&#x1c9a;" horiz-adv-x="1024" 
d="M650 0q-4 27 -21.5 48.5t-44 37t-59 26t-66 15t-64.5 4.5q-59 0 -105 -12.5t-83 -31.5l-33 62q18 9 36.5 16.5t39.5 12.5t43 6v3q-53 14 -97 38.5t-75.5 61.5t-48 88t-16.5 116q0 71 21 123t62 81t101 29q53 0 87 -25t48 -71h4q15 48 50 72t83 24q52 0 85.5 -25.5
t47.5 -70.5h4q15 46 49.5 71t85.5 25q60 0 101 -30.5t62.5 -85t21.5 -128.5q0 -60 -12.5 -112t-38.5 -103l-82 26q24 49 33 95t9 98q0 80 -26 122t-76 42q-29 0 -48 -16.5t-28.5 -45.5t-9.5 -68v-131h-86v132q0 39 -9.5 67.5t-29.5 45t-53 16.5q-31 0 -51.5 -15.5
t-30.5 -44.5t-10 -69v-132h-86v131q0 37 -8.5 66.5t-27 46.5t-49.5 17q-49 0 -75.5 -38.5t-26.5 -120.5q0 -68 20.5 -116.5t59 -81.5t94.5 -53.5t126 -30.5q50 -7 98 -22.5t88.5 -39.5t68.5 -60t35 -85h-87z" />
    <glyph glyph-name="uni1C9B" unicode="&#x1c9b;" horiz-adv-x="583" 
d="M284 -10q-71 0 -122.5 31t-78.5 89.5t-27 140.5q0 122 55.5 187.5t150.5 65.5q38 0 67 -9t51.5 -25.5t37.5 -38.5h6q-2 16 -3.5 34.5t-1.5 33.5v46q0 33 -14 56.5t-42 37t-71 13.5q-34 0 -61.5 -10t-44 -29t-16.5 -48q0 -4 0.5 -7t0.5 -7h-86q-1 8 -1 13v11q0 46 28.5 79
t76.5 51.5t104 18.5q65 0 113 -22.5t74.5 -63.5t26.5 -99v-289q0 -129 -58 -194.5t-165 -65.5zM284 66q48 0 77.5 20.5t43.5 59.5t14 92v19q0 51 -12.5 90t-43 60.5t-84.5 21.5q-65 0 -98.5 -48.5t-33.5 -131.5q0 -87 33.5 -135t103.5 -48z" />
    <glyph glyph-name="uni1C9C" unicode="&#x1c9c;" horiz-adv-x="583" 
d="M299 -10q-106 0 -164 65.5t-58 194.5v284q0 47 13.5 81t38.5 56t57.5 32.5t69.5 10.5h224v-77h-213q-48 0 -75 -23t-27 -77v-39q0 -15 -1.5 -33.5t-3.5 -34.5h5q16 22 38.5 39t52 26.5t65.5 9.5q64 0 110.5 -29.5t71.5 -86t25 -138.5t-27.5 -140.5t-78.5 -89.5t-123 -31z
M299 66q48 0 78 21.5t44 63t14 98.5q0 56 -14.5 96.5t-43.5 62.5t-73 22q-50 0 -81 -21.5t-45 -60.5t-14 -91v-19q0 -53 14 -92t44 -59.5t77 -20.5z" />
    <glyph glyph-name="uni1C9D" unicode="&#x1c9d;" horiz-adv-x="814" 
d="M138 0q-19 48 -33.5 94.5t-24.5 95t-15 103t-5 119.5q0 112 27 180.5t72 100t100 31.5q29 0 58 -8.5t52.5 -30.5t36.5 -62h3q13 39 36 61t51.5 31t56.5 9q57 0 102.5 -31.5t72 -100t26.5 -180.5q0 -87 -9 -156.5t-26.5 -130.5t-42.5 -125h-91q25 65 42 127.5t26 131
t9 150.5q0 88 -15.5 140.5t-41.5 75t-57 22.5q-30 0 -51.5 -18.5t-33 -54.5t-11.5 -91v-273h-90v273q0 54 -11.5 90.5t-33 55t-53.5 18.5q-30 0 -55 -22.5t-40.5 -74.5t-15.5 -141q0 -80 8.5 -149t25.5 -132t43 -128h-92z" />
    <glyph glyph-name="uni1C9E" unicode="&#x1c9e;" horiz-adv-x="553" 
d="M273 -10q-67 0 -117.5 26.5t-78 73t-27.5 106.5q0 19 3 39.5t9 41.5h87q-4 -19 -6 -36.5t-2 -33.5q0 -64 33.5 -102t98.5 -38q45 0 74 18t43.5 50t14.5 76q0 32 -9.5 58.5t-28.5 45.5t-47 29.5t-64 10.5h-43v76h58q40 0 64.5 9t35.5 25t11 36q0 25 -11 40.5t-28 26.5
t-37 21q-24 14 -45.5 30t-33.5 39t-10 56h89q0 -24 21.5 -41.5t54.5 -35.5q23 -12 43.5 -29t34 -41t13.5 -58q0 -32 -13.5 -54.5t-37.5 -36.5t-56 -22v-3q23 -5 46.5 -19t42.5 -37t30.5 -56t11.5 -77q0 -65 -27.5 -113t-77.5 -74.5t-119 -26.5z" />
    <glyph glyph-name="uni1C9F" unicode="&#x1c9f;" horiz-adv-x="609" 
d="M307 -10q-67 0 -117 26.5t-77.5 73t-27.5 106.5q0 19 3 39.5t10 41.5h87q-4 -19 -6.5 -36.5t-2.5 -33.5q0 -64 33.5 -102t97.5 -38q47 0 75.5 18.5t42.5 53t14 81.5v420q-38 -15 -77 -25t-81 -15v-1q29 -13 46 -40t17 -63q0 -37 -19.5 -66.5t-53.5 -46.5t-78 -17
t-77 16.5t-51 43.5t-18 60q0 9 1 18.5t4 17.5h77q-1 -7 -2 -13t-1 -12q0 -27 17.5 -44t49.5 -17q33 0 51 19t18 48q0 37 -20 57.5t-58 23.5v66q73 8 142 23.5t124 40.5h77v-498q0 -71 -25.5 -121.5t-75 -77.5t-119.5 -27z" />
    <glyph glyph-name="uni1CA0" unicode="&#x1ca0;" horiz-adv-x="765" 
d="M105 0q-19 52 -30 95.5t-15 92t-4 114.5q0 79 13 143t41.5 112.5t73.5 81t109 47.5q32 8 69 14.5t76.5 12.5t78.5 11l15 -78q-32 -3 -62 -7.5t-58.5 -9t-53.5 -8.5t-44 -9q-40 -9 -74.5 -26t-60 -47t-40.5 -79h2q17 22 35.5 33.5t38.5 15.5t39 4q47 0 80 -23.5t47 -68.5
h3q14 45 50 68.5t89 23.5q63 0 104 -31.5t62 -88t21 -134.5q0 -47 -6 -89.5t-17 -84t-28 -85.5h-90q23 65 36 127.5t13 132.5q0 59 -10.5 98t-32.5 59.5t-58 20.5q-28 0 -49 -15.5t-32 -46t-11 -75.5v-137h-86v137q0 45 -10.5 75.5t-30.5 46t-51 15.5q-53 0 -77 -44.5
t-24 -134.5q0 -72 13 -134t36 -125h-90z" />
    <glyph glyph-name="uni1CA1" unicode="&#x1ca1;" horiz-adv-x="585" 
d="M302 -10q-109 0 -167 63.5t-58 184.5v476h88v-481q0 -77 33 -121.5t105 -44.5q46 0 75.5 19t44 52t14.5 73q0 42 -13 70.5t-32 55.5q-24 33 -43 72t-16 96h90q-1 -43 15.5 -74t38.5 -63q23 -31 38 -69t15 -89q0 -64 -27.5 -113.5t-78.5 -78t-122 -28.5z" />
    <glyph glyph-name="uni1CA2" unicode="&#x1ca2;" horiz-adv-x="734" 
d="M367 -10q-77 0 -135.5 25t-98 72.5t-58.5 114.5t-19 149q0 152 69.5 242t199.5 104q-1 9 -2 19.5t-1 20.5v15h90v-15q0 -10 -0.5 -20.5t-2.5 -19.5q132 -13 200.5 -104.5t68.5 -242.5q0 -79 -19.5 -145t-58 -114t-97 -74.5t-136.5 -26.5zM366 67q72 0 120.5 33t73.5 96.5
t25 154.5q0 122 -44.5 190.5t-133.5 81.5q2 -14 3 -35t1 -44v-207h-89v208q0 22 1.5 41.5t2.5 35.5q-90 -13 -134 -83t-44 -188q0 -90 25.5 -154t74.5 -97t118 -33z" />
    <glyph glyph-name="uni1CA3" unicode="&#x1ca3;" horiz-adv-x="577" 
d="M279 -9q-70 0 -120 28t-76 76t-26 107q0 29 4.5 52.5t11.5 41.5h86q-5 -17 -8 -40.5t-3 -47.5q0 -38 14 -70t43 -51t74 -19q46 0 75.5 18.5t43.5 53t14 81.5v333q0 29 -8 50t-25 33.5t-46 12.5q-40 0 -59 -25t-19 -69v-118h-87v118q0 43 -19.5 65t-58.5 22h-53v77h54
q40 0 72.5 -16.5t46.5 -60.5h3q10 27 28.5 45.5t44.5 27.5t58 9q51 0 85.5 -20.5t52.5 -57t18 -83.5v-346q0 -71 -26 -122t-75 -78t-120 -27z" />
    <glyph glyph-name="uni1CA4" unicode="&#x1ca4;" horiz-adv-x="830" 
d="M499 -9q-78 0 -136 20.5t-89.5 58t-31.5 87.5q0 8 1 17t3 19h85q-1 -7 -1 -13.5v-11.5q0 -34 20.5 -57t58.5 -34t89 -11q56 0 92.5 16.5t54 45.5t17.5 65q0 31 -11.5 56.5t-35.5 41t-62 15.5h-20v75h36q35 0 61 18t40 50t14 72q0 39 -10 67t-31.5 43.5t-54.5 15.5
q-32 0 -54.5 -15t-34.5 -44t-12 -71v-34q0 -50 -14 -92.5t-42 -73.5t-68.5 -48t-91.5 -17q-50 0 -89.5 17t-67.5 48.5t-43 74t-15 93.5q0 72 25.5 125.5t74 83.5t116.5 30q37 0 70 -11t57.5 -33.5t37.5 -55.5h4q10 34 31.5 56t52 33t68.5 11q58 0 98.5 -27t62 -70.5
t21.5 -95.5q0 -77 -33 -123.5t-89 -62.5v-3q33 -9 55.5 -29.5t34 -51t11.5 -71.5q0 -58 -31 -102.5t-88 -70.5t-136 -26zM273 328q42 0 69 20.5t40 56t13 79.5q0 49 -13 85.5t-40 57t-70 20.5q-44 0 -71 -20.5t-40 -57t-13 -85.5q0 -45 13.5 -80t40.5 -55.5t71 -20.5z" />
    <glyph glyph-name="uni1CA5" unicode="&#x1ca5;" horiz-adv-x="567" 
d="M274 -10q-68 0 -118.5 26.5t-78 72.5t-27.5 106q0 20 3 40.5t9 41.5h87q-4 -19 -6 -36.5t-2 -33.5q0 -65 33.5 -102.5t98.5 -37.5q45 0 74 19t42.5 54.5t13.5 83.5v141q0 50 -12.5 89.5t-40 63t-75.5 23.5q-31 0 -55.5 -12.5t-38.5 -36t-14 -57.5q0 -11 1 -23l2 -24h-88
q-3 12 -4.5 24.5t-1.5 26.5q0 58 26 97.5t68 60t89 20.5q33 0 60 -9t47.5 -24t36.5 -37h4q-1 15 -3 36.5t-2 38.5v92h88v-492q0 -73 -25 -125t-73.5 -79.5t-117.5 -27.5z" />
    <glyph glyph-name="uni1CA6" unicode="&#x1ca6;" horiz-adv-x="765" 
d="M481 0q-6 41 -32.5 67t-65 39t-82.5 13q-36 0 -73 -8t-67 -24l-30 62q20 10 45 18t63 10v3q-58 25 -99 65.5t-62.5 97.5t-21.5 128q0 76 21 132.5t63 87.5t104 31q54 0 88 -24t48 -65h4q15 43 50 66t85 23q63 0 105 -30.5t63.5 -86.5t21.5 -133q0 -57 -13 -109.5
t-41 -104.5l-78 27q23 46 32 91t9 96q0 57 -12 96t-35.5 59t-59.5 20q-29 0 -48.5 -15.5t-28 -43t-8.5 -66.5v-140h-88v140q0 37 -8.5 65.5t-27 44t-49.5 15.5q-53 0 -79.5 -43.5t-26.5 -130.5q0 -72 19.5 -120t53 -78.5t77 -50.5t90.5 -36q46 -16 84.5 -40.5t64 -61
t30.5 -86.5h-85z" />
    <glyph glyph-name="uni1CA7" unicode="&#x1ca7;" horiz-adv-x="574" 
d="M277 -10q-67 0 -116.5 26.5t-77 72.5t-27.5 106q0 20 3 40.5t9 41.5h87q-4 -19 -6.5 -36.5t-2.5 -33.5q0 -65 33.5 -102.5t97.5 -37.5q46 0 75.5 19t43 54.5t13.5 83.5v99q0 15 0.5 29.5t1.5 30t2 32.5h-4q-23 -38 -65 -58t-95 -20q-60 0 -103 25t-65.5 73t-22.5 116
q0 47 10 87.5t26 75.5h87q-15 -38 -23.5 -74.5t-8.5 -84.5q0 -44 13.5 -76t39.5 -49.5t64 -17.5q45 0 77 18t49 55t17 93v136h88v-492q0 -73 -25.5 -125t-74.5 -79.5t-120 -27.5z" />
    <glyph glyph-name="uni1CA8" unicode="&#x1ca8;" horiz-adv-x="586" 
d="M287 -10q-72 0 -123 31t-78.5 89.5t-27.5 140.5q0 122 56 187.5t153 65.5q36 0 64.5 -9t51 -25.5t38.5 -38.5h5q-1 16 -3 34.5t-2 33.5v70q0 28 -9 46.5t-25.5 28t-39.5 9.5q-29 0 -49 -17.5t-20 -51.5v-33h-86v31q0 31 -19 49.5t-49 18.5q-17 0 -31 -3.5t-30 -9.5
l-25 67q19 9 42 14.5t49 5.5q30 0 59.5 -14.5t45.5 -52.5h3q17 38 51 52.5t69 14.5q40 0 74.5 -16t56 -49.5t21.5 -87.5v-321q0 -129 -58 -194.5t-164 -65.5zM287 66q48 0 77.5 20.5t43.5 59.5t14 92v19q0 51 -12.5 90t-43 60.5t-84.5 21.5q-66 0 -99 -48.5t-33 -131.5
q0 -87 33 -135t104 -48z" />
    <glyph glyph-name="uni1CA9" unicode="&#x1ca9;" horiz-adv-x="571" 
d="M77 0v550q0 51 21 90.5t62 61.5t98 22q76 0 126 -35.5t50 -103.5q0 -30 -13 -57.5t-47 -47.5v-4q73 -19 107 -78.5t34 -147.5q0 -50 -5.5 -97t-14.5 -86.5t-20 -66.5h-89q12 30 20.5 68t13 83.5t4.5 95.5q0 78 -31 124.5t-91 46.5q-41 0 -72 -18.5t-48.5 -56t-17.5 -95.5
v-248h-87zM160 409h5q15 25 37 42t53 30q26 13 46.5 26t32.5 31t12 43q0 34 -23.5 52.5t-65.5 18.5q-43 0 -68 -27.5t-25 -72.5v-75v-17.5t-1 -23t-3 -27.5z" />
    <glyph glyph-name="uni1CAA" unicode="&#x1caa;" horiz-adv-x="638" 
d="M337 -9q-71 0 -124.5 23.5t-88 71t-51.5 118t-17 164.5q0 67 9.5 128t27 116t39.5 102h88q-21 -49 -37.5 -104t-25.5 -115.5t-9 -125.5q0 -99 19 -166.5t60.5 -102t110.5 -34.5q77 0 117.5 37t40.5 114q0 42 -16.5 74.5t-49.5 50.5t-83 18h-40v77h54q40 0 67.5 9t41 25.5
t13.5 38.5q0 27 -15.5 46t-34.5 36q-16 14 -30.5 30t-23.5 38.5t-8 53.5h89q0 -28 15.5 -45.5t34.5 -35.5q23 -20 43.5 -47t20.5 -69q0 -34 -14 -57.5t-39.5 -38t-63.5 -21.5v-4q38 -7 67.5 -29t47 -60.5t17.5 -97.5q0 -67 -30.5 -116t-86.5 -75.5t-135 -26.5z" />
    <glyph glyph-name="uni1CAB" unicode="&#x1cab;" horiz-adv-x="585" 
d="M284 -10q-69 0 -120.5 31t-79.5 89.5t-28 141.5q0 86 26 144.5t72.5 88.5t108.5 30q36 0 65.5 -9.5t52.5 -26.5t39 -39h5q-1 17 -3 39.5t-2 37.5v197h88v-463q0 -130 -59 -195.5t-165 -65.5zM284 67q47 0 77.5 21.5t45 60t14.5 90.5v15q0 50 -11 92t-42 67.5t-89 25.5
q-42 0 -71.5 -22.5t-44.5 -64.5t-15 -101q0 -86 34.5 -135t101.5 -49z" />
    <glyph glyph-name="uni1CAC" unicode="&#x1cac;" horiz-adv-x="586" 
d="M299 -10q-106 0 -164 65.5t-58 194.5v321q0 54 21.5 87.5t56 49.5t74.5 16q35 0 69 -14.5t51 -52.5h3q16 38 45.5 52.5t59.5 14.5q26 0 49.5 -5.5t42.5 -14.5l-26 -67q-15 6 -29.5 9.5t-31.5 3.5q-30 0 -49 -18.5t-19 -49.5v-31h-86v33q0 34 -19.5 51.5t-49.5 17.5
q-22 0 -39 -9.5t-26 -28t-9 -46.5v-70q0 -15 -1.5 -33.5t-3.5 -34.5h5q16 22 38.5 38.5t51.5 25.5t65 9q95 0 151.5 -65.5t56.5 -187.5q0 -82 -27.5 -140.5t-78.5 -89.5t-123 -31zM299 66q71 0 104 48t33 135q0 83 -32.5 131.5t-99.5 48.5q-51 0 -82 -21.5t-44.5 -60.5
t-13.5 -90v-19q0 -53 14 -92t44 -59.5t77 -20.5z" />
    <glyph glyph-name="uni1CAD" unicode="&#x1cad;" horiz-adv-x="578" 
d="M302 -10q-67 0 -117 25t-77.5 69.5t-27.5 100.5q0 10 1.5 22t5.5 27h87q-2 -12 -2.5 -21t-0.5 -16q0 -60 33.5 -95t97.5 -35q46 0 74 18t41.5 48.5t13.5 67.5q0 25 -5.5 46t-15 39t-20 35.5t-21 35.5t-17.5 40h-3q-15 -25 -38.5 -41t-51 -23.5t-57.5 -7.5
q-37 0 -72.5 16.5t-57.5 48t-22 76.5q0 46 23 77.5t61.5 47.5t84.5 16h93v107h88v-107h93v-75h-93v-28q0 -29 12.5 -56.5t31 -55t36.5 -57t30.5 -63t12.5 -73.5q0 -61 -26 -108.5t-75 -74t-120 -26.5zM223 398q44 0 66.5 23t22.5 57v55h-83q-43 0 -67 -17.5t-24 -49.5
t24.5 -50t60.5 -18z" />
    <glyph glyph-name="uni1CAE" unicode="&#x1cae;" horiz-adv-x="585" 
d="M300 -10q-105 0 -164 65.5t-59 195.5v463h88v-198q0 -15 -1.5 -38t-3.5 -39h5q16 22 38 39t51.5 27t64.5 10q64 0 111 -30t73 -88.5t26 -144.5q0 -83 -28 -141.5t-79.5 -89.5t-121.5 -31zM301 67q67 0 101.5 49t34.5 135q0 59 -15 101t-44 64.5t-72 22.5
q-58 0 -88.5 -25.5t-42.5 -67.5t-12 -92v-15q0 -52 15 -90.5t45.5 -60t77.5 -21.5z" />
    <glyph glyph-name="uni1CAF" unicode="&#x1caf;" horiz-adv-x="545" 
d="M271 -10q-66 0 -116 26.5t-77.5 73t-27.5 106.5q0 19 3 39.5t9 41.5h87q-4 -19 -6 -36.5t-2 -33.5q0 -64 33.5 -102t96.5 -38q40 0 69.5 13.5t46.5 38t17 56.5t-11.5 56.5t-29.5 45t-40 39.5q-31 30 -52 58t-31.5 58t-10.5 65v37l-169 29v75l169 -30v106h89v-125l166 -29
v-74l-167 29v-18q0 -31 12.5 -55.5t33 -46.5t44.5 -44q23 -22 43 -47t32.5 -56t12.5 -69q0 -57 -27.5 -99.5t-77.5 -66t-119 -23.5z" />
    <glyph glyph-name="uni1CB0" unicode="&#x1cb0;" horiz-adv-x="547" 
d="M269 -10q-72 0 -121.5 24t-74.5 62.5t-25 84.5q0 12 1.5 22.5t4.5 21.5h85q-1 -6 -2 -15.5t-1 -17.5q0 -27 13 -51.5t42.5 -40t77.5 -15.5q67 0 98.5 26t31.5 62q0 40 -30 65t-96 25h-45v75h72q41 0 65 13t24 44q0 28 -24 42.5t-65 14.5h-72v74h70q44 0 58.5 13.5
t14.5 31.5q0 22 -22 33t-48 21q-23 9 -45.5 22t-36 34t-12.5 53h89q1 -20 22 -32.5t53 -26.5q23 -8 44 -20.5t34.5 -31t13.5 -46.5q0 -20 -8 -37t-26.5 -29t-51.5 -17v-3q28 -1 51.5 -13t38 -32.5t14.5 -50.5q0 -44 -29 -66t-75 -28v-3q35 -5 60.5 -22.5t39.5 -44t14 -62.5
q0 -46 -27.5 -82t-77.5 -56.5t-117 -20.5z" />
    <glyph glyph-name="uni1CB1" unicode="&#x1cb1;" horiz-adv-x="641" 
d="M352 -10q-100 0 -166 43t-98 128t-32 211q0 62 9.5 122.5t27 116t40.5 103.5h89q-22 -50 -39.5 -106.5t-27 -116t-9.5 -118.5q0 -99 20.5 -168t65.5 -104.5t121 -35.5q65 0 103 24t38 65q0 39 -29 64.5t-91 25.5h-52v73h61q29 0 52 5t36 17.5t13 35.5q0 26 -25.5 41
t-81.5 15h-55v74h66q46 0 62 13t16 33q0 22 -13.5 34t-32.5 23q-16 11 -32 24t-25 32.5t-7 49.5h89q0 -14 6.5 -25t18 -19t24.5 -17q23 -15 43.5 -37t20.5 -60q0 -33 -18.5 -54.5t-67.5 -29.5v-2q29 -2 52 -14.5t37.5 -33t14.5 -47.5q0 -43 -29 -67t-75 -30v-2
q37 -5 62 -21.5t38.5 -42.5t13.5 -61q0 -46 -28.5 -82.5t-81 -57.5t-124.5 -21z" />
    <glyph glyph-name="uni1CB2" unicode="&#x1cb2;" horiz-adv-x="576" 
d="M86 0v77q33 2 64.5 8.5t62.5 19.5v2q-48 40 -83.5 93t-54.5 115.5t-19 131.5q0 93 30 154.5t82.5 92t119.5 30.5t119.5 -30.5t83 -92t30.5 -154.5q0 -69 -19 -131.5t-54 -115.5t-85 -93v-2q31 -13 62.5 -19.5t64.5 -8.5v-77q-54 3 -105.5 17.5t-96.5 38.5
q-45 -24 -96 -38.5t-106 -17.5zM288 147q43 32 74 77t48.5 102t17.5 123q0 101 -38.5 149.5t-101.5 48.5q-62 0 -101 -48.5t-39 -149.5q0 -66 17.5 -123t49 -102t73.5 -77z" />
    <glyph glyph-name="uni1CB3" unicode="&#x1cb3;" horiz-adv-x="558" 
d="M280 -10q-71 0 -122.5 26.5t-79.5 73t-28 106.5q0 19 3 39.5t9 41.5h87q-4 -19 -6 -36.5t-2 -33.5q0 -64 34.5 -102t104.5 -38q45 0 75.5 18t45.5 50.5t15 74.5q0 53 -19.5 86.5t-52.5 50t-77 16.5h-55v66l167 208h-291v77h394v-70l-171 -212q51 -5 96 -31t73 -74
t28 -120q0 -65 -28 -114.5t-79 -76t-121 -26.5z" />
    <glyph glyph-name="uni1CB4" unicode="&#x1cb4;" horiz-adv-x="543" 
d="M271 -10q-72 0 -121.5 24t-74.5 62.5t-25 84.5q0 12 1.5 22.5t4.5 21.5h85q-1 -6 -2 -15.5t-1 -17.5q0 -27 13 -51.5t42.5 -40t77.5 -15.5q67 0 98.5 26t31.5 62q0 40 -30 65t-96 25h-45v75h72q41 0 65 13.5t24 41.5q0 23 -15.5 36.5t-40 23t-53.5 19.5
q-28 10 -55.5 21.5t-51 28.5t-37.5 42t-14 60q0 37 22 64t60.5 41.5t87.5 14.5q37 0 72.5 -9t70.5 -32l-33 -65q-28 17 -54.5 25t-53.5 8q-37 0 -61 -12t-24 -34q0 -23 14.5 -36.5t40 -23.5t57.5 -22q28 -9 56.5 -20.5t51.5 -27.5t37.5 -39.5t14.5 -56.5q0 -42 -28.5 -66.5
t-75.5 -31.5v-3q35 -5 60.5 -22.5t39.5 -44t14 -62.5q0 -46 -27.5 -82t-77.5 -56.5t-117 -20.5z" />
    <glyph glyph-name="uni1CB5" unicode="&#x1cb5;" horiz-adv-x="629" 
d="M269 -10q-99 0 -156 44t-57 122q0 51 25.5 86.5t74 54.5t115.5 19h123v97h-134q-94 0 -144.5 39.5t-50.5 114.5q0 72 57 114.5t153 42.5q66 0 113 -21.5t71 -62t24 -100.5v-53h102v-74h-102v-97h102v-74h-102v-61q0 -62 -24 -104.5t-72 -64.5t-118 -22zM271 64
q47 0 74 15.5t38 42.5t11 62v58h-128q-38 0 -64.5 -10t-40 -29t-13.5 -47q0 -43 31.5 -67.5t91.5 -24.5zM264 487h130v52q0 52 -27.5 81.5t-93.5 29.5q-56 0 -86 -21.5t-30 -61.5q0 -26 12 -44t36 -27t59 -9z" />
    <glyph glyph-name="uni1CB6" unicode="&#x1cb6;" horiz-adv-x="754" 
d="M420 724v-88q102 -1 163 -36.5t88.5 -95t27.5 -133.5q0 -52 -14.5 -100.5t-47.5 -86.5t-86 -60.5t-131 -23.5v-110h-86v110q-78 1 -131.5 24t-85.5 61t-46.5 86.5t-14.5 99.5q0 54 15 102t48.5 84t86.5 57.5t128 21.5v88h86zM334 561q-68 -1 -110 -24.5t-61 -65
t-19 -99.5q0 -62 20.5 -106t62.5 -67t107 -25v387zM420 561v-387q67 2 109 26t61.5 68t19.5 104q0 59 -18.5 101t-60 64.5t-111.5 23.5z" />
    <glyph glyph-name="uni1CB7" unicode="&#x1cb7;" horiz-adv-x="531" 
d="M265 -9q-61 0 -110 23t-77 67t-28 104q0 50 15.5 85t42 60t58.5 42.5t64 31.5q39 17 71.5 34.5t52.5 42.5t20 64q0 51 -30 78t-77 27q-56 0 -83 -27t-27 -70q0 -9 1 -16.5t2 -13.5h-88q-1 8 -2.5 16t-1.5 18q0 48 23.5 86t68.5 59.5t107 21.5q59 0 103 -21.5t69.5 -61.5
t25.5 -95q0 -48 -16 -82t-43 -56.5t-59.5 -40t-65.5 -31.5q-37 -17 -69 -37t-51 -48t-19 -68q0 -55 33.5 -86.5t89.5 -31.5q36 0 64 13t44 39.5t16 67.5q0 11 -0.5 20t-2.5 18h90q2 -10 3.5 -20t1.5 -21q0 -63 -28 -105.5t-76.5 -64t-111.5 -21.5z" />
    <glyph glyph-name="uni1CB8" unicode="&#x1cb8;" horiz-adv-x="574" 
d="M296 -10q-70 0 -119 27.5t-74.5 79.5t-25.5 125v492h88v-136q0 -56 17 -93t49 -55t76 -18q38 0 64.5 17.5t40 49.5t13.5 76q0 48 -9 84.5t-23 74.5h87q17 -35 26.5 -75.5t9.5 -87.5q0 -68 -22.5 -116t-65.5 -73t-104 -25q-52 0 -94 20t-65 58h-4q2 -17 2.5 -32.5t1 -30
t0.5 -29.5v-99q0 -48 13.5 -83.5t43 -54.5t75.5 -19q63 0 96.5 37.5t33.5 102.5q0 16 -1.5 33.5t-6.5 36.5h87q6 -21 9 -41.5t3 -40.5q0 -60 -27.5 -106t-77 -72.5t-117.5 -26.5z" />
    <glyph glyph-name="uni1CB9" unicode="&#x1cb9;" horiz-adv-x="564" 
d="M283 723q49 0 91 -18t73.5 -51t49 -79t17.5 -103q0 -75 -27 -128t-75 -83t-113 -38q-57 -7 -80 -30t-23 -57t23.5 -54.5t63.5 -20.5q41 0 64.5 20.5t23.5 53.5q0 9 -1 16.5t-3 15.5h88q2 -10 3.5 -20.5t1.5 -21.5q0 -39 -23 -69.5t-63 -48t-91 -17.5q-52 0 -91.5 18
t-62.5 50.5t-23 75.5q0 39 18.5 69.5t61.5 46.5v3q-60 19 -98 73t-38 146q0 57 17 103t48 79t74 51t94 18zM282 646q-42 0 -73.5 -21.5t-48.5 -60.5t-17 -92q0 -54 17 -93t48.5 -59t73.5 -20q43 0 74.5 20.5t48 59t16.5 92.5q0 53 -16.5 92t-48 60.5t-74.5 21.5z" />
    <glyph glyph-name="uni1CBA" unicode="&#x1cba;" horiz-adv-x="499" 
d="M117 -7v89l123 52v3q-51 11 -93.5 46.5t-66.5 95t-24 140.5q0 71 17.5 127t51 96t80.5 61t105 21q41 0 80.5 -10t70.5 -27l-33 -72q-27 14 -54.5 23t-60.5 9q-40 0 -71 -17t-51.5 -47t-31.5 -72t-11 -92q0 -72 20 -123t57 -78t88 -27q37 0 64.5 7t62.5 25v-87z" />
    <glyph glyph-name="uni1CBD" unicode="&#x1cbd;" horiz-adv-x="531" 
d="M265 -9q-63 0 -111.5 21.5t-76 64t-27.5 105.5q0 11 1.5 21t3.5 20h89l-2 -18t-1 -20q0 -41 16 -67.5t44.5 -39.5t64.5 -13q56 0 89.5 31.5t33.5 86.5q0 40 -19.5 66t-51.5 44.5t-69 33.5q-32 15 -65 32t-60 41.5t-43 59.5t-16 86q0 55 25 95t70 61.5t102 21.5
q64 0 108 -21.5t67.5 -59.5t23.5 -86q0 -10 -0.5 -18t-2.5 -16h-88q1 6 1.5 13.5t0.5 16.5q0 43 -27 70t-82 27q-47 0 -77.5 -27t-30.5 -78q0 -42 20.5 -69t53.5 -45t71 -35q33 -14 65 -31t58 -41t42 -57.5t16 -81.5q0 -60 -28.5 -104t-77 -67t-110.5 -23z" />
    <glyph glyph-name="uni1CBE" unicode="&#x1cbe;" horiz-adv-x="576" 
d="M86 714q55 -3 106 -17.5t96 -38.5q45 24 96.5 38.5t105.5 17.5v-77q-33 -2 -64.5 -8.5t-62.5 -19.5v-2q50 -40 85 -92.5t54 -115t19 -132.5q0 -92 -30.5 -154t-83 -92.5t-119.5 -30.5t-119.5 30.5t-82.5 92.5t-30 154q0 70 19 132.5t54.5 115t83.5 92.5v2
q-31 13 -62.5 19.5t-64.5 8.5v77zM288 567q-42 -31 -73.5 -76.5t-49 -102t-17.5 -123.5q0 -101 39 -149.5t101 -48.5q63 0 101.5 48.5t38.5 149.5q0 67 -17.5 123.5t-48.5 102t-74 76.5z" />
    <glyph glyph-name="uni1CBF" unicode="&#x1cbf;" horiz-adv-x="605" 
d="M303 -10q-120 0 -181.5 91t-61.5 276q0 125 27.5 206t81.5 121t134 40q120 0 181 -90.5t61 -276.5q0 -125 -27.5 -206t-81 -121t-133.5 -40zM303 67q75 0 112 70t37 220q0 102 -16.5 165.5t-49.5 94t-83 30.5q-75 0 -112.5 -70t-37.5 -220q0 -101 17 -165t50.5 -94.5
t82.5 -30.5z" />
    <glyph glyph-name="Wgrave" unicode="&#x1e80;" horiz-adv-x="853" 
d="M843 714l-174 -714h-94l-121 463q-4 17 -9 36t-9 38t-7 36t-5 31q-1 -10 -3.5 -26t-6.5 -35t-8.5 -39.5t-10.5 -41.5l-118 -462h-94l-174 714h91l102 -437q5 -24 10 -47.5t9 -45.5t7 -42t5 -38q3 21 6.5 42.5t8.5 44l10 45t10 44.5l113 434h87l115 -436q6 -21 11 -44
t9.5 -45t8 -43.5t6.5 -41.5q4 28 8.5 56.5t11 58.5t13.5 59l102 436h90zM405 944q11 -22 27 -49.5t34 -53.5t33 -45v-12h-57q-16 14 -36.5 33t-40.5 40.5t-36.5 42t-25.5 34.5v10h102z" />
    <glyph glyph-name="wgrave" unicode="&#x1e81;" horiz-adv-x="720" 
d="M391 311q-6 25 -12 49t-10.5 46t-7.5 38h-3q-3 -16 -7.5 -38t-10 -46.5t-12.5 -49.5l-85 -309h-97l-136 536h88l66 -279q7 -29 13.5 -58t11.5 -56.5t8 -49.5h3q3 14 6.5 32.5t7.5 39t9 41t10 39.5l81 291h94l78 -291q6 -22 12.5 -47.5t12 -52.5t8.5 -52h3q2 16 6.5 38.5
t10.5 49.5t12 55l72 300h86l-137 -536h-100zM338 766q11 -22 27 -49.5t34 -53.5t33 -45v-12h-57q-16 14 -36.5 33t-40.5 40.5t-36.5 42t-25.5 34.5v10h102z" />
    <glyph glyph-name="Wacute" unicode="&#x1e82;" horiz-adv-x="853" 
d="M843 714l-174 -714h-94l-121 463q-4 17 -9 36t-9 38t-7 36t-5 31q-1 -10 -3.5 -26t-6.5 -35t-8.5 -39.5t-10.5 -41.5l-118 -462h-94l-174 714h91l102 -437q5 -24 10 -47.5t9 -45.5t7 -42t5 -38q3 21 6.5 42.5t8.5 44l10 45t10 44.5l113 434h87l115 -436q6 -21 11 -44
t9.5 -45t8 -43.5t6.5 -41.5q4 28 8.5 56.5t11 58.5t13.5 59l102 436h90zM568 934q-9 -14 -26 -34t-37 -41.5t-40 -41t-37 -33.5h-56v12q16 22 33.5 47.5t33 52t26.5 48.5h103v-10z" />
    <glyph glyph-name="wacute" unicode="&#x1e83;" horiz-adv-x="720" 
d="M391 311q-6 25 -12 49t-10.5 46t-7.5 38h-3q-3 -16 -7.5 -38t-10 -46.5t-12.5 -49.5l-85 -309h-97l-136 536h88l66 -279q7 -29 13.5 -58t11.5 -56.5t8 -49.5h3q3 14 6.5 32.5t7.5 39t9 41t10 39.5l81 291h94l78 -291q6 -22 12.5 -47.5t12 -52.5t8.5 -52h3q2 16 6.5 38.5
t10.5 49.5t12 55l72 300h86l-137 -536h-100zM502 756q-9 -14 -26 -34t-37 -41.5t-40 -41t-37 -33.5h-56v12q16 22 33.5 47.5t33 52t26.5 48.5h103v-10z" />
    <glyph glyph-name="Wdieresis" unicode="&#x1e84;" horiz-adv-x="853" 
d="M843 714l-174 -714h-94l-121 463q-4 17 -9 36t-9 38t-7 36t-5 31q-1 -10 -3.5 -26t-6.5 -35t-8.5 -39.5t-10.5 -41.5l-118 -462h-94l-174 714h91l102 -437q5 -24 10 -47.5t9 -45.5t7 -42t5 -38q3 21 6.5 42.5t8.5 44l10 45t10 44.5l113 434h87l115 -436q6 -21 11 -44
t9.5 -45t8 -43.5t6.5 -41.5q4 28 8.5 56.5t11 58.5t13.5 59l102 436h90zM292 854q0 26 13.5 38t31.5 12q19 0 32 -12t13 -38q0 -25 -13 -37.5t-32 -12.5q-18 0 -31.5 12.5t-13.5 37.5zM470 854q0 26 13.5 38t31.5 12q19 0 32.5 -12t13.5 -38q0 -25 -13.5 -37.5t-32.5 -12.5
t-32 12.5t-13 37.5z" />
    <glyph glyph-name="wdieresis" unicode="&#x1e85;" horiz-adv-x="720" 
d="M391 311q-6 25 -12 49t-10.5 46t-7.5 38h-3q-3 -16 -7.5 -38t-10 -46.5t-12.5 -49.5l-85 -309h-97l-136 536h88l66 -279q7 -29 13.5 -58t11.5 -56.5t8 -49.5h3q3 14 6.5 32.5t7.5 39t9 41t10 39.5l81 291h94l78 -291q6 -22 12.5 -47.5t12 -52.5t8.5 -52h3q2 16 6.5 38.5
t10.5 49.5t12 55l72 300h86l-137 -536h-100zM226 676q0 26 13.5 38t31.5 12q19 0 32 -12t13 -38q0 -25 -13 -37.5t-32 -12.5q-18 0 -31.5 12.5t-13.5 37.5zM404 676q0 26 13.5 38t31.5 12q19 0 32.5 -12t13.5 -38q0 -25 -13.5 -37.5t-32.5 -12.5t-32 12.5t-13 37.5z" />
    <glyph glyph-name="uni1E9E" unicode="&#x1e9e;" horiz-adv-x="650" 
d="M323 724q61 0 106 -20t74 -58t41 -92l-130 -146q59 -2 103.5 -26.5t69 -68.5t24.5 -107q0 -65 -24 -113.5t-74.5 -75.5t-129.5 -27q-44 0 -85 8.5t-75 28.5v82q34 -21 75 -32.5t80 -11.5q75 0 108.5 37t33.5 105q0 66 -39.5 99.5t-119.5 33.5h-48v64l138 156
q-10 29 -27.5 48t-43 28.5t-61.5 9.5q-51 0 -84.5 -20.5t-49.5 -59.5t-16 -93v-473h-87v472q0 77 26.5 133.5t80 87.5t134.5 31z" />
    <glyph glyph-name="Ygrave" unicode="&#x1ef2;" horiz-adv-x="502" 
d="M251 368l158 346h93l-207 -437v-277h-88v274l-207 440h94zM229 944q11 -22 27 -49.5t34 -53.5t33 -45v-12h-57q-16 14 -36.5 33t-40.5 40.5t-36.5 42t-25.5 34.5v10h102z" />
    <glyph glyph-name="ygrave" unicode="&#x1ef3;" horiz-adv-x="459" 
d="M2 536h90l101 -304q7 -24 14 -47.5t13 -46t10 -43.5h4q5 26 15.5 62.5t22.5 74.5l95 304h90l-204 -613q-18 -51 -41 -88t-56 -56t-79 -19q-20 0 -36 2.5t-29 5.5v71q11 -3 24.5 -5t27.5 -2q27 0 46 11t32.5 33t24.5 54l24 70zM208 766q11 -22 27 -49.5t34 -53.5t33 -45
v-12h-57q-16 14 -36.5 33t-40.5 40.5t-36.5 42t-25.5 34.5v10h102z" />
    <glyph glyph-name="uni2010" unicode="&#x2010;" horiz-adv-x="304" 
d="M35 229v79h234v-79h-234z" />
    <glyph glyph-name="endash" unicode="&#x2013;" horiz-adv-x="500" 
d="M39 232v74h422v-74h-422z" />
    <glyph glyph-name="emdash" unicode="&#x2014;" horiz-adv-x="1000" 
d="M39 232v74h922v-74h-922z" />
    <glyph glyph-name="quoteleft" unicode="&#x2018;" horiz-adv-x="180" 
d="M17 480q9 37 22.5 78t29 81t31.5 75h63q-9 -39 -19 -82.5t-17 -85.5t-12 -77h-92z" />
    <glyph glyph-name="quoteright" unicode="&#x2019;" horiz-adv-x="180" 
d="M163 703q-9 -37 -22.5 -77.5t-28.5 -80.5t-31 -76h-64q7 28 14.5 60.5t13.5 65t11.5 63t8.5 56.5h91z" />
    <glyph glyph-name="quotesinglbase" unicode="&#x201a;" horiz-adv-x="241" 
d="M180 105q-9 -37 -22.5 -77.5t-28.5 -80.5t-31 -76h-64q7 28 14.5 60.5t13.5 65t11.5 63t8.5 56.5h91z" />
    <glyph glyph-name="quotedblleft" unicode="&#x201c;" horiz-adv-x="357" 
d="M341 714q-10 -39 -19.5 -82.5t-17 -85t-11.5 -77.5h-92l-7 11q9 37 22 77.5t29 80.5t32 76h64zM163 714q-10 -39 -19.5 -83t-17 -85.5t-11.5 -76.5h-92l-6 11q9 37 22.5 77.5t29 80.5t31.5 76h63z" />
    <glyph glyph-name="quotedblright" unicode="&#x201d;" horiz-adv-x="357" 
d="M340 703q-9 -37 -22 -77.5t-28.5 -80.5t-31.5 -76h-64q10 40 19.5 83t17 84.5t12.5 77.5h90zM162 703q-9 -37 -22 -77.5t-28.5 -80.5t-31.5 -76h-63q7 28 14 60.5t13.5 65t11.5 63t8 56.5h91z" />
    <glyph glyph-name="quotedblbase" unicode="&#x201e;" horiz-adv-x="393" 
d="M350 104q-9 -37 -22 -77.5t-28.5 -80.5t-31.5 -76h-64q10 40 19.5 83t17 84.5t12.5 77.5h90zM172 104q-9 -37 -22 -77.5t-28.5 -80.5t-31.5 -76h-63q7 28 14 60.5t13.5 65t11.5 63t8 56.5h91z" />
    <glyph glyph-name="bullet" unicode="&#x2022;" horiz-adv-x="378" 
d="M74 365q0 45 14 73.5t40.5 41.5t60.5 13t59.5 -13.5t40.5 -41.5t15 -73q0 -44 -15 -72.5t-40.5 -42t-59.5 -13.5t-60 13.5t-40.5 42t-14.5 72.5z" />
    <glyph glyph-name="ellipsis" unicode="&#x2026;" horiz-adv-x="750" 
d="M67 54q0 36 16.5 51t42.5 15q25 0 42 -15t17 -51q0 -35 -17 -50.5t-42 -15.5t-42 16t-17 50zM316 54q0 36 16.5 51t42.5 15q25 0 42 -15t17 -51q0 -35 -17 -50.5t-42 -15.5t-42 16t-17 50zM564 54q0 36 16.5 51t42.5 15q25 0 42 -15t17 -51q0 -35 -17 -50.5t-42 -15.5
t-42 16t-17 50z" />
    <glyph glyph-name="guilsinglleft" unicode="&#x2039;" horiz-adv-x="296" 
d="M38 270l159 199l61 -34l-127 -171l127 -171l-61 -34l-159 198v13z" />
    <glyph glyph-name="guilsinglright" unicode="&#x203a;" horiz-adv-x="296" 
d="M98 469l160 -199v-13l-160 -198l-60 34l127 171l-127 171z" />
    <glyph glyph-name="Euro" unicode="&#x20ac;" horiz-adv-x="520" 
d="M343 724q44 0 83.5 -11t76.5 -33l-35 -72q-26 16 -58.5 27t-65.5 11t-60 -12t-47 -36.5t-34 -61t-21 -83.5h210v-62h-216q0 -10 -0.5 -19.5t-0.5 -19.5t0.5 -20.5t0.5 -21.5h190v-62h-184q10 -59 31.5 -99t56 -60.5t82.5 -20.5q35 0 69 9t64 22v-79q-29 -13 -63 -21.5
t-76 -8.5q-73 0 -124.5 31t-82.5 89t-43 138h-76v62h69q0 11 -0.5 20t-0.5 22q0 10 0.5 20.5t0.5 18.5h-69v62h75q10 79 40.5 140t83 96t124.5 35z" />
    <glyph glyph-name="uni20BE" unicode="&#x20be;" horiz-adv-x="690" 
d="M105 0v65l91 9v3q-47 32 -77 76.5t-44.5 100t-14.5 118.5q0 100 34 174.5t98.5 115.5t155.5 41t155 -42t98 -121t34 -191h-92q0 96 -19.5 159t-62.5 95t-113 32q-67 0 -110.5 -30.5t-65 -90t-21.5 -147.5q0 -90 26.5 -155t77 -100.5t118.5 -35.5h218v-76h-486zM254 350
v420h58v-420h-58zM384 350v420h58v-420h-58z" />
    <glyph glyph-name="uni2116" unicode="&#x2116;" horiz-adv-x="934" 
d="M85 0v714h100l278 -577h4q-2 26 -3.5 57t-2.5 62.5t-1 56.5v401h79v-714h-98l-281 580h-4q3 -27 4.5 -59.5t2.5 -63.5t1 -56v-401h-79zM627 0v66h240v-66h-240zM747 136q-42 0 -73.5 19.5t-49 57.5t-17.5 93q0 82 38 125.5t104 43.5q42 0 73.5 -19.5t49.5 -57t18 -92.5
q0 -82 -38.5 -126t-104.5 -44zM748 193q40 0 57.5 28t17.5 85q0 56 -17.5 83t-57.5 27q-38 0 -56 -26.5t-18 -83.5t17.5 -85t56.5 -28z" />
    <glyph glyph-name="trademark" unicode="&#x2122;" horiz-adv-x="719" 
d="M303 362v352h86l90 -273l93 273h83v-352h-59v203q0 10 1 33.5t2 36.5h-4l-96 -273h-49l-91 273h-4q1 -17 2 -37t1 -28v-208h-55zM111 362v299h-96v53h251v-53h-97v-299h-58z" />
    <glyph glyph-name="minus" unicode="&#x2212;" horiz-adv-x="304" 
d="M35 229v79h234v-79h-234z" />
    <glyph glyph-name="uni2D00" unicode="&#x2d00;" horiz-adv-x="626" 
d="M331 0q-64 0 -104 17.5t-58.5 55t-18.5 94.5v234q0 36 -16 50.5t-45 14.5h-73v70h113q33 0 60.5 -15.5t40.5 -57.5h5q16 28 39 46.5t52 27.5t59 9q85 0 128.5 -46t43.5 -146v-104h-86v95q0 64 -24 96t-77 32q-50 0 -79.5 -21.5t-42.5 -64.5t-13 -109v-102q0 -58 25 -82
t84 -24h180v-70h-193z" />
    <glyph glyph-name="uni2D01" unicode="&#x2d01;" horiz-adv-x="587" 
d="M312 -250q-41 0 -76.5 3.5t-66 11.5t-55.5 19v78q38 -19 85.5 -30t100.5 -11q59 0 98.5 13.5t59.5 40t20 63.5q0 29 -6.5 48.5t-16.5 35.5q-12 20 -21 39t-13 42h-4q-16 -36 -41 -61.5t-58.5 -38.5t-73.5 -13q-55 0 -93.5 20.5t-57.5 62.5t-19 107v356h85v-344
q0 -67 25.5 -98.5t77.5 -31.5q69 0 102.5 45t33.5 146v283h85v-366q0 -33 10.5 -57t25.5 -47q18 -26 31 -56t13 -76q0 -58 -29 -99t-85.5 -63t-136.5 -22z" />
    <glyph glyph-name="uni2D02" unicode="&#x2d02;" horiz-adv-x="590" 
d="M313 -250q-40 0 -75.5 3.5t-66 11.5t-56.5 19v78q38 -19 85.5 -30t101.5 -11q59 0 98.5 13.5t59.5 40t20 63.5q0 32 -9.5 54.5t-23.5 42.5q-17 27 -32.5 59t-15.5 80v171q0 64 -24 96t-77 32q-75 0 -105 -48.5t-30 -146.5v-278h-85v536h68l12 -73h5q16 28 39 46.5
t52 27.5t59 9q85 0 128 -46t43 -146v-174q0 -38 11.5 -63.5t28.5 -51.5q17 -24 29.5 -55t12.5 -76q0 -58 -29.5 -99t-86 -63t-137.5 -22z" />
    <glyph glyph-name="uni2D03" unicode="&#x2d03;" horiz-adv-x="545" 
d="M271 -10q-68 0 -118 30.5t-76.5 87.5t-26.5 136q0 56 14 99.5t40 77t62 57.5t81 40q-16 28 -22.5 62.5t-6.5 73.5v34h-145v72h398v-72h-168v-33q0 -34 5 -60.5t20.5 -49.5t44.5 -47q41 -36 68.5 -73.5t40.5 -82t13 -100.5q0 -81 -27 -137t-77 -85.5t-120 -29.5zM271 61
q66 0 101 44t35 136q0 41 -9 74t-27 61t-46 52q-10 10 -19.5 18.5t-17.5 16.5q-35 -12 -63 -31t-47.5 -45.5t-29.5 -62t-10 -81.5q0 -86 35.5 -134t97.5 -48z" />
    <glyph glyph-name="uni2D04" unicode="&#x2d04;" 
d="M313 546q85 0 128.5 -46t43.5 -146v-594h-86v585q0 64 -24 96t-77 32q-75 0 -105 -48.5t-30 -146.5v-278h-85v536h68l12 -73h5q16 28 39 46.5t52 27.5t59 9z" />
    <glyph glyph-name="uni2D05" unicode="&#x2d05;" horiz-adv-x="842" 
d="M607 546q81 0 121 -46t40 -147v-353h-85v345q0 66 -23 97t-71 31q-67 0 -95.5 -45t-28.5 -132v-536h-84v586q0 44 -10.5 72t-31.5 41.5t-53 13.5q-47 0 -74 -23t-38 -66.5t-11 -104.5v-279h-85v536h68l12 -73h5q15 28 36.5 46.5t48.5 27.5t57 9q56 0 92.5 -22.5
t51.5 -65.5h5q25 45 64.5 66.5t88.5 21.5z" />
    <glyph glyph-name="uni2D06" unicode="&#x2d06;" horiz-adv-x="630" 
d="M383 545q95 0 146.5 -72t51.5 -204q0 -88 -24 -150.5t-72.5 -95.5t-120.5 -33q-105 0 -159.5 68.5t-54.5 209.5v356q0 37 -16 51t-45 14h-73v71h100q44 0 70 -16t37.5 -44t11.5 -62v-75q0 -21 -1.5 -45.5t-2.5 -52.5h4q26 41 63 60.5t85 19.5zM365 62q43 0 71.5 24
t42.5 70t14 113q0 102 -31.5 153t-94.5 51q-47 0 -76 -21.5t-42.5 -63.5t-13.5 -105v-15q0 -104 31.5 -155t98.5 -51z" />
    <glyph glyph-name="uni2D07" unicode="&#x2d07;" horiz-adv-x="838" 
d="M233 -10q-54 0 -89 20.5t-52.5 62.5t-17.5 107v356h67l12 -78h5q13 26 33 45.5t48.5 31t62.5 11.5q59 0 94 -24t50 -67h5q23 43 61 67t92 24q79 0 119.5 -45.5t40.5 -144.5v-356h-84v346q0 65 -24 96t-71 31q-62 0 -93 -43t-31 -129v-301h-67l-12 80h-4
q-12 -26 -32.5 -46.5t-48.5 -32t-64 -11.5zM251 62q65 0 95.5 46.5t30.5 145.5v88q0 46 -10.5 75t-31.5 42.5t-53 13.5q-42 0 -70 -20.5t-41 -61t-13 -101.5v-96q0 -67 22.5 -99.5t70.5 -32.5z" />
    <glyph glyph-name="uni2D08" unicode="&#x2d08;" horiz-adv-x="400" 
d="M242 0v365q0 49 -23 74t-74 25h-129v72h142q59 0 96 -19t55 -57t18 -95v-365h-85z" />
    <glyph glyph-name="uni2D09" unicode="&#x2d09;" horiz-adv-x="576" 
d="M417 -240v212q0 22 1.5 46.5t2.5 51.5h-4q-26 -40 -62.5 -60t-85.5 -20q-95 0 -145 72t-50 205v493h85v-197q0 -21 -1.5 -45.5t-2.5 -52.5h4q26 41 63 60.5t86 19.5q94 0 144 -72.5t50 -205.5v-507h-85zM285 62q47 0 76 22t42.5 64.5t13.5 104.5v19q0 62 -13 107
t-41 69.5t-72 24.5q-47 0 -76 -21.5t-42.5 -63.5t-13.5 -105v-18q0 -101 32 -152t94 -51z" />
    <glyph glyph-name="uni2D0A" unicode="&#x2d0a;" horiz-adv-x="842" 
d="M540 -10q-54 0 -89.5 20.5t-52.5 62.5t-17 107v162q0 46 -10.5 75t-31.5 42.5t-53 13.5q-42 0 -70 -20.5t-41 -62t-13 -103.5v-287h-84v536h67l12 -78h5q13 26 33 45.5t48.5 31t62.5 11.5q59 0 94 -24t50 -67h5q23 43 61 67t92 24q79 0 119.5 -45.5t40.5 -144.5v-356h-67
l-12 80h-4q-12 -27 -33 -47t-48.5 -31.5t-63.5 -11.5zM557 62q65 0 95.5 46.5t30.5 145.5v92q0 65 -23.5 96t-70.5 31q-62 0 -93 -43t-31 -127v-109q0 -67 21.5 -99.5t70.5 -32.5z" />
    <glyph glyph-name="uni2D0B" unicode="&#x2d0b;" horiz-adv-x="555" 
d="M266 -10q-73 0 -121 33t-71.5 95t-23.5 147q0 140 54.5 205.5t171.5 65.5h119v51q0 35 -9.5 57.5t-31 33.5t-56.5 11h-182v71h193q60 0 98 -19t56 -57t18 -96v-325q0 -137 -54.5 -205t-160.5 -68zM266 62q69 0 99 51t30 149v201h-114q-56 0 -87.5 -20t-44.5 -63t-13 -114
q0 -100 33 -152t97 -52z" />
    <glyph glyph-name="uni2D0C" unicode="&#x2d0c;" horiz-adv-x="555" 
d="M74 0v551q0 72 20.5 118t64 68.5t112.5 22.5h187v-71h-182q-66 0 -92 -31t-26 -101v-29q0 -21 -1 -38.5t-3 -33.5h5q13 26 34.5 46t51 31.5t65.5 11.5q56 0 94 -21t57.5 -63t19.5 -108v-353h-84v341q0 68 -25.5 99.5t-76.5 31.5q-45 0 -75.5 -20t-46 -63t-15.5 -112v-277
h-84z" />
    <glyph glyph-name="uni2D0D" unicode="&#x2d0d;" horiz-adv-x="841" 
d="M234 -10q-79 0 -119.5 45.5t-40.5 144.5v356h84v-345q0 -66 24 -97t70 -31q63 0 94 43t31 129v301h84v-341q0 -46 10 -75.5t31.5 -43t52.5 -13.5q44 0 71.5 21t40.5 63t13 103v286h84v-536h-67l-12 78h-5q-13 -26 -33.5 -45.5t-48.5 -31t-62 -11.5q-59 0 -94 24.5
t-50 66.5h-5q-23 -42 -61.5 -66.5t-91.5 -24.5z" />
    <glyph glyph-name="uni2D0E" unicode="&#x2d0e;" horiz-adv-x="635" 
d="M474 536h84v-536h-68l-11 80h-4q-14 -26 -35.5 -46.5t-51.5 -32t-68 -11.5q-56 0 -94.5 20.5t-57.5 62.5t-19 107v221q0 36 -15.5 50.5t-44.5 14.5h-73v70h100q44 0 70 -16t37 -43.5t11 -62.5v-220q0 -67 25 -99.5t78 -32.5q71 0 104 46.5t33 145.5v282z" />
    <glyph glyph-name="uni2D0F" unicode="&#x2d0f;" horiz-adv-x="636" 
d="M474 -240v209q0 31 1.5 56t5.5 55h-6q-14 -26 -35.5 -46.5t-51.5 -32t-68 -11.5q-56 0 -94.5 20.5t-57.5 62.5t-19 107v221q0 36 -15.5 50.5t-44.5 14.5h-73v70h100q44 0 70 -16t37 -43.5t11 -62.5v-220q0 -67 25 -99.5t78 -32.5q71 0 104 46.5t33 145.5v282h85v-776h-85
z" />
    <glyph glyph-name="uni2D10" unicode="&#x2d10;" horiz-adv-x="841" 
d="M233 -10q-53 0 -88.5 20.5t-53 62.5t-17.5 107v356h84v-342q0 -67 23 -99.5t72 -32.5q63 0 94 46.5t31 145.5v506h85v-221q0 -24 -1.5 -43.5t-4.5 -37.5h6q12 26 32.5 45.5t49 31t63.5 11.5q53 0 88 -20.5t53 -63t18 -108.5v-354h-85v342q0 67 -22.5 99t-70.5 32
q-64 0 -95 -46.5t-31 -147.5v-279h-68l-12 80h-4q-12 -26 -32.5 -46.5t-48.5 -32t-65 -11.5z" />
    <glyph glyph-name="uni2D11" unicode="&#x2d11;" horiz-adv-x="560" 
d="M244 -10q-55 0 -93.5 20.5t-57.5 62.5t-19 107v580h85v-566q0 -67 25 -99.5t77 -32.5q47 0 77.5 20.5t45 63t14.5 108.5v282h85v-536h-68l-12 80h-4q-13 -26 -34.5 -46.5t-51.5 -32t-69 -11.5z" />
    <glyph glyph-name="uni2D12" unicode="&#x2d12;" 
d="M312 546q93 0 145 -73.5t52 -205.5q0 -133 -51.5 -205t-144.5 -72q-50 0 -87 20.5t-63 61.5h-4q1 -14 2 -36t1 -36v-29q0 -73 37 -110.5t103 -37.5q47 0 90.5 10t80.5 29v-79q-35 -17 -76.5 -25t-92.5 -8q-78 0 -128 26.5t-74 78.5t-24 127v554h69l11 -71h5
q27 42 64.5 61.5t84.5 19.5zM298 473q-47 0 -77 -21t-44.5 -66.5t-14.5 -117.5v-22q0 -48 8 -82.5t24.5 -57.5t42 -33.5t59.5 -10.5q63 0 94 51t31 153q0 67 -14 113t-41 70t-68 24z" />
    <glyph glyph-name="uni2D13" unicode="&#x2d13;" horiz-adv-x="841" 
d="M680 -240v209q0 19 0.5 33.5t1.5 32.5t3 43h-5q-13 -26 -33.5 -45.5t-48.5 -31t-62 -11.5q-59 0 -94 24.5t-50 66.5h-5q-23 -42 -61.5 -66.5t-91.5 -24.5q-79 0 -119.5 45.5t-40.5 144.5v356h84v-345q0 -66 24 -97t70 -31q63 0 94 43t31 129v301h84v-341q0 -46 10 -75.5
t31.5 -43t53.5 -13.5q43 0 70.5 21t40.5 63t13 103v510h84v-1000h-84z" />
    <glyph glyph-name="uni2D14" unicode="&#x2d14;" horiz-adv-x="835" 
d="M375 -240v231q0 19 1.5 43t3.5 42h-5q-14 -26 -34.5 -46t-47 -30t-59.5 -10q-87 0 -135.5 73.5t-48.5 206.5q0 132 48 204t136 72q34 0 60 -10.5t46.5 -30t34.5 -46.5h5l12 77h52l12 -77h4q15 27 35 46.5t46.5 30t59.5 10.5q88 0 136.5 -72t48.5 -204
q0 -133 -48.5 -206.5t-136.5 -73.5q-31 0 -58 10t-47.5 30t-35.5 46h-5q2 -18 3.5 -42t1.5 -43v-231h-85zM251 62q62 0 93.5 46t31.5 151v32q0 95 -30.5 139.5t-93.5 44.5q-57 0 -86.5 -51.5t-29.5 -152.5t30 -155t85 -54zM584 62q56 0 85.5 54t29.5 155t-29 152.5t-87 51.5
q-62 0 -92.5 -44.5t-30.5 -139.5v-32q0 -105 31 -151t93 -46z" />
    <glyph glyph-name="uni2D15" unicode="&#x2d15;" horiz-adv-x="426" 
d="M170 -240v705h-154v71h154v224h85v-224h154v-71h-154v-705h-85z" />
    <glyph glyph-name="uni2D16" unicode="&#x2d16;" 
d="M313 546q85 0 128.5 -46t43.5 -146v-354h-86v345q0 64 -24 96t-77 32q-75 0 -105 -48.5t-30 -146.5v-278h-85v536h68l12 -73h5q16 28 39 46.5t52 27.5t59 9z" />
    <glyph glyph-name="uni2D17" unicode="&#x2d17;" horiz-adv-x="560" 
d="M398 -240v209q0 30 1.5 55.5t5.5 55.5h-6q-13 -26 -34.5 -46.5t-51.5 -32t-69 -11.5q-55 0 -93.5 20.5t-57.5 62.5t-19 107v356h85v-342q0 -67 25 -99.5t77 -32.5q71 0 104 46.5t33 145.5v282h85v-776h-85z" />
    <glyph glyph-name="uni2D18" unicode="&#x2d18;" horiz-adv-x="560" 
d="M265 -250q-50 0 -93 8.5t-80 25.5v76q37 -19 79.5 -29t94.5 -10q67 0 99.5 38.5t32.5 111.5v25q0 18 1 38t4 46h-4q-13 -26 -34.5 -46.5t-51.5 -32t-69 -11.5q-55 0 -93.5 20.5t-57.5 62.5t-19 107v356h85v-342q0 -67 25 -99.5t77 -32.5q71 0 104 46.5t33 145.5v282h85
v-550q0 -121 -54 -178.5t-164 -57.5z" />
    <glyph glyph-name="uni2D19" unicode="&#x2d19;" 
d="M78 -240v1000h84v-221q0 -24 -1 -44t-4 -38h6q13 26 34.5 46t51 31.5t65.5 11.5q56 0 94 -21t57.5 -63t19.5 -108v-354h-84v342q0 68 -25.5 99.5t-76.5 31.5q-45 0 -75.5 -20t-46 -63t-15.5 -112v-518h-84z" />
    <glyph glyph-name="uni2D1A" unicode="&#x2d1a;" 
d="M284 -250q-105 0 -155.5 57t-50.5 174v555h67l11 -81h5q14 28 36.5 48.5t52.5 31.5t65 11q85 0 127.5 -46.5t42.5 -143.5v-356h-84v343q0 67 -25 98.5t-77 31.5q-69 0 -103 -45t-34 -146v-309q0 -79 32.5 -115.5t98.5 -36.5q49 0 92.5 10.5t77.5 28.5v-76
q-35 -17 -79.5 -25.5t-99.5 -8.5z" />
    <glyph glyph-name="uni2D1B" unicode="&#x2d1b;" horiz-adv-x="836" 
d="M234 -10q-88 0 -136 72t-48 204q0 134 48.5 207t135.5 73q33 0 59.5 -10t47 -29.5t34.5 -46.5h5q-2 19 -3.5 43t-1.5 43v214h85v-221q0 -24 -1.5 -44t-4.5 -38h5q14 27 34.5 46.5t47.5 31t60 11.5q54 0 90 -21t54 -63t18 -108v-354h-84v342q0 67 -22.5 99t-71.5 32
q-63 0 -94 -46t-31 -149v-278h-68l-12 77h-5q-14 -26 -34.5 -45.5t-46.5 -30.5t-60 -11zM252 61q63 0 93.5 45t30.5 140v32q0 105 -31.5 151t-93.5 46q-55 0 -85 -54.5t-30 -155.5q0 -100 29.5 -152t86.5 -52z" />
    <glyph glyph-name="uni2D1C" unicode="&#x2d1c;" horiz-adv-x="842" 
d="M78 -240v776h67l12 -78h5q13 26 33 45.5t48.5 31t62.5 11.5q59 0 94 -24t50 -67h5q23 43 61 67t92 24q79 0 119.5 -45.5t40.5 -144.5v-356h-84v346q0 65 -24 96t-71 31q-62 0 -93 -43t-31 -129v-301h-84v342q0 46 -10.5 75t-31.5 42.5t-53 13.5q-42 0 -70 -20.5t-41 -62
t-13 -103.5v-527h-84z" />
    <glyph glyph-name="uni2D1D" unicode="&#x2d1d;" horiz-adv-x="554" 
d="M260 -250q-57 0 -101.5 8.5t-80.5 25.5v76q36 -18 80 -28.5t94 -10.5q77 0 111 27t34 68q0 31 -14.5 49.5t-39.5 26.5t-57 8h-208v536h67l13 -73h5q16 28 39 46.5t52 27.5t59 9q85 0 128.5 -46t43.5 -146v-104h-86v95q0 64 -24 96t-77 32q-50 0 -79.5 -21.5t-42.5 -64.5
t-13 -109v-208h136q48 0 90 -15t68 -48t26 -90q0 -47 -24.5 -85t-73.5 -60t-125 -22z" />
    <glyph glyph-name="uni2D1E" unicode="&#x2d1e;" 
d="M284 -250q-104 0 -155 57t-51 172v557h84v-282q0 -99 33 -145t103 -46q54 0 78.5 32.5t24.5 99.5v341h84v-350q0 -66 -18.5 -109.5t-56 -65t-96.5 -21.5q-36 0 -65.5 10.5t-51.5 30.5t-36 46h-5q4 -32 5 -58t1 -50q0 -75 31.5 -111.5t99.5 -36.5q47 0 90.5 10.5
t79.5 28.5v-76q-35 -17 -79.5 -25.5t-99.5 -8.5z" />
    <glyph glyph-name="uni2D1F" unicode="&#x2d1f;" horiz-adv-x="509" 
d="M-48 -240l283 480l-141 229h-75v67h459v-61l-142 -234l153 -241h-94l-109 181l-241 -421h-93zM286 296l101 173h-203z" />
    <glyph glyph-name="uni2D20" unicode="&#x2d20;" horiz-adv-x="849" 
d="M543 -10q-54 0 -89 20.5t-53 62.5t-18 107v163q0 67 -22 98.5t-72 31.5q-42 0 -70 -20t-42.5 -62t-14.5 -109v-282h-84v536h68l11 -81h4q14 27 35 47.5t49 32t62 11.5q81 0 121 -46.5t40 -143.5v-162q0 -67 22.5 -99.5t70.5 -32.5q64 0 95 46.5t31 145.5v282h85v-536h-69
l-11 80h-4q-13 -26 -33 -46.5t-48 -32t-64 -11.5z" />
    <glyph glyph-name="uni2D21" unicode="&#x2d21;" horiz-adv-x="517" 
d="M78 -240v1000h84v-288h4q10 23 26.5 39t40.5 25.5t52 9.5q56 0 87 -33t31 -96q0 -46 13 -63t46 -17h39v-72h-63q-39 0 -66 14.5t-41 41t-14 62.5q0 45 -14.5 67.5t-49.5 22.5q-27 0 -47.5 -15.5t-32 -45t-11.5 -74.5v-578h-84z" />
    <glyph glyph-name="uni2D22" unicode="&#x2d22;" horiz-adv-x="545" 
d="M268 -10q-67 0 -116 27t-75.5 73.5t-26.5 103.5q0 16 2 32t6 33h86q-3 -14 -4.5 -28t-1.5 -27q0 -63 35 -102.5t94 -39.5q47 0 78 24.5t47 70.5t16 111q0 99 -40.5 148.5t-122.5 49.5h-174v70h173q85 0 140.5 -30.5t83.5 -89.5t28 -146t-27 -150t-78 -96.5t-123 -33.5z
" />
    <glyph glyph-name="uni2D23" unicode="&#x2d23;" horiz-adv-x="560" 
d="M398 -240v209q0 32 1.5 57t5.5 54h-6q-13 -26 -34.5 -46.5t-51.5 -32t-69 -11.5q-55 0 -93.5 20.5t-57.5 62.5t-19 107v356h85v-342q0 -67 25 -99.5t77 -32.5q71 0 104 46.5t33 145.5v506h85v-1000h-85z" />
    <glyph glyph-name="uni2D24" unicode="&#x2d24;" horiz-adv-x="545" 
d="M231 -240v235q-76 9 -116.5 62.5t-40.5 141.5v337h84v-338q0 -68 29 -102.5t86 -34.5q56 0 84.5 34.5t28.5 102.5v338h85v-339q0 -86 -40.5 -139t-115.5 -63v-235h-84z" />
    <glyph glyph-name="uni2D25" unicode="&#x2d25;" horiz-adv-x="836" 
d="M601 546q54 0 90 -21t54 -63t18 -108v-354h-84v342q0 67 -22.5 99t-71.5 32q-63 0 -94 -46t-31 -149v-278h-68l-12 77h-5q-14 -26 -34.5 -45.5t-46.5 -30.5t-60 -11q-88 0 -136 72t-48 204q0 134 48.5 207t135.5 73q33 0 59.5 -10t47 -29.5t34.5 -46.5h5q-2 19 -3.5 43
t-1.5 43v27q0 91 47 139t150 48h166v-71h-161q-64 0 -90.5 -30.5t-26.5 -89.5v-30q0 -24 -1.5 -44t-4.5 -38h5q14 27 34.5 46.5t47.5 31t60 11.5zM376 246v32q0 105 -31.5 151t-93.5 46q-55 0 -85 -54.5t-30 -155.5q0 -100 29.5 -152t86.5 -52q63 0 93.5 45t30.5 140z" />
    <glyph glyph-name="uni2D27" unicode="&#x2d27;" horiz-adv-x="484" 
d="M241 -250q-57 0 -101.5 24.5t-69.5 70.5t-25 110q0 52 14 91.5t38 70t56 55t68 46.5q40 26 66 47t39 46.5t13 63.5q0 48 -25 74t-70 26q-47 0 -71.5 -26t-24.5 -75q0 -8 1 -16t2 -15h-85q-1 8 -2 17t-1 18q0 51 21.5 88.5t62.5 58.5t98 21t97.5 -21t61.5 -59t21 -89
q0 -53 -18.5 -91.5t-56.5 -70.5t-93 -67q-34 -21 -62.5 -46.5t-45.5 -60.5t-17 -87q0 -63 31 -97.5t77 -34.5q47 0 79.5 32.5t32.5 100.5q0 21 -2 38.5t-7 29.5h88q4 -14 6.5 -31.5t2.5 -37.5q0 -68 -26 -113t-71 -68t-102 -23z" />
    <glyph glyph-name="uni2D2D" unicode="&#x2d2d;" horiz-adv-x="409" 
d="M376 0h-342v57l241 411h-227v68h321v-63l-238 -405h245v-68z" />
    <glyph glyph-name="caroncommaaccent" horiz-adv-x="485" 
d="M300 751q-4 -19 -15.5 -47t-25.5 -56t-28 -48h-46v12q3 11 7.5 30.5t9 41t7.5 41.5t4 35h87v-9z" />
    <glyph glyph-name="commaaccentrotate" horiz-adv-x="485" 
d="M306 754q-8 -17 -16.5 -44t-15.5 -55t-9 -49h-85v9q5 21 16.5 48t27.5 54.5t33 48.5h49v-12z" />
    </font>
</defs>
</svg>
